<?xml version="1.0" standalone="no"?>
<!DOCTYPE svg PUBLIC "-//W3C//DTD SVG 20010904//EN"
 "http://www.w3.org/TR/2001/REC-SVG-20010904/DTD/svg10.dtd">
<svg version="1.0" xmlns="http://www.w3.org/2000/svg"
 width="544.000000pt" height="457.000000pt" viewBox="0 0 544.000000 457.000000"
 preserveAspectRatio="xMidYMid meet">

<g transform="translate(0.000000,457.000000) scale(0.100000,-0.100000)"
fill="#000000" stroke="none">
<path d="M286 4538 c17 -18 35 -44 41 -58 18 -41 85 -112 120 -126 18 -8 45
-14 60 -13 22 0 19 3 -17 13 -60 16 -72 24 -114 74 -45 54 -46 70 -3 41 17
-12 3 6 -33 39 -69 65 -104 84 -54 30z"/>
<path d="M737 4563 c-4 -3 -7 -11 -7 -17 0 -6 5 -5 12 2 6 6 9 14 7 17 -3 3
-9 2 -12 -2z"/>
<path d="M807 4553 c10 -28 44 -86 59 -104 8 -8 14 -24 14 -35 0 -14 2 -16 9
-6 5 9 -5 33 -30 72 -22 31 -39 62 -39 68 0 6 -4 14 -10 17 -6 4 -7 -1 -3 -12z"/>
<path d="M885 4560 c-3 -5 3 -10 14 -10 11 0 23 5 26 10 3 6 -3 10 -14 10 -11
0 -23 -4 -26 -10z"/>
<path d="M996 4558 c9 -15 61 -37 69 -30 5 4 5 2 2 -5 -4 -6 -1 -14 5 -16 10
-4 10 -6 1 -6 -7 -1 -13 -13 -12 -28 0 -16 3 -22 6 -15 11 27 23 9 23 -35 0
-25 -3 -43 -6 -40 -4 3 -15 2 -25 -4 -16 -8 -19 -6 -19 15 0 13 6 27 13 30 9
5 9 7 0 12 -7 3 -15 21 -19 40 -4 20 -10 31 -17 27 -6 -4 -8 0 -4 10 6 16 4
16 -23 2 -33 -17 -41 -18 -39 -7 4 22 -2 42 -11 37 -14 -9 -12 -55 3 -55 7 0
8 -3 2 -8 -13 -9 -17 -62 -4 -62 5 0 19 11 31 25 31 36 41 31 33 -15 -6 -33
-4 -40 9 -40 9 0 16 -4 16 -10 0 -5 -7 -7 -15 -4 -10 4 -15 0 -15 -15 0 -14
-8 -23 -25 -27 -20 -5 -31 1 -55 26 -26 28 -35 32 -66 27 -65 -11 -82 -41 -39
-68 l25 -15 -39 -38 c-33 -32 -43 -37 -55 -27 -10 8 -16 9 -21 1 -3 -5 -3 -10
1 -10 4 0 -1 -9 -11 -20 -23 -25 -37 -25 -53 0 -11 19 -14 19 -28 5 -21 -21
-33 -19 -43 7 -6 18 -9 19 -14 5 -9 -23 -24 -21 -32 4 -10 31 -51 42 -80 23
-14 -9 -25 -23 -25 -30 0 -19 39 -33 73 -27 22 4 26 2 21 -11 -3 -9 -9 -16
-13 -16 -4 0 -7 -9 -8 -20 -2 -24 -4 -24 40 -5 27 11 35 19 30 32 -5 12 -2 15
9 11 9 -4 19 -3 24 2 5 4 18 4 29 0 11 -5 14 -9 8 -11 -7 -1 -17 -3 -23 -4 -5
-1 -14 -3 -20 -4 -5 0 -10 -6 -10 -12 0 -6 7 -8 16 -5 9 4 23 1 30 -5 10 -8
23 -7 52 4 25 10 44 12 53 6 24 -15 34 -10 13 7 -18 14 -18 15 6 8 35 -9 46
-11 38 -7 -5 3 -8 13 -8 24 0 10 -7 19 -15 19 -8 0 -15 -4 -15 -9 0 -5 -10
-11 -22 -14 -13 -2 -32 -8 -43 -12 -17 -7 -16 -5 4 13 13 12 28 22 32 22 5 0
33 22 63 49 42 38 62 49 85 49 19 -1 28 -5 23 -12 -3 -6 -7 -33 -8 -61 -2 -27
0 -41 2 -30 11 44 26 71 50 88 14 11 28 16 31 13 10 -10 11 -101 1 -113 -6 -7
-5 -14 2 -18 5 -3 10 1 10 9 0 9 7 16 15 16 18 0 34 -36 27 -62 -5 -20 -38
-24 -45 -5 -4 9 -6 9 -6 -1 -1 -8 8 -16 19 -19 24 -6 24 -7 6 -58 -11 -31 -16
-36 -21 -23 -4 10 -12 15 -17 12 -12 -7 40 -44 62 -44 8 0 31 -19 50 -42 24
-27 39 -38 44 -30 7 11 -15 37 -50 59 -16 10 -11 11 31 7 37 -4 46 -3 35 5 -8
6 -27 11 -42 11 -23 0 -28 4 -28 24 0 33 18 42 36 20 13 -18 13 -17 5 7 -9 24
-7 25 20 21 22 -3 29 0 29 12 0 14 -11 21 -32 17 -5 0 -8 6 -8 14 0 8 4 15 9
15 5 0 12 11 15 25 8 32 -15 59 -44 50 -30 -10 -25 18 11 59 30 35 30 35 10
48 -18 11 -21 23 -21 73 0 33 4 67 10 75 5 8 5 19 0 25 -5 6 -5 17 -1 24 6 9
11 10 15 2 4 -6 12 -11 18 -11 7 0 6 6 -2 15 -7 8 -20 15 -29 15 -13 0 -13 2
-2 9 11 7 10 10 -5 15 -28 8 -124 4 -118 -6z m114 -40 c0 -17 -23 -3 -26 16
-2 14 0 15 12 5 8 -6 14 -16 14 -21z m-20 -188 c-20 -12 -33 -1 -19 16 9 11
15 12 23 4 8 -8 7 -13 -4 -20z m-38 -2 c6 -50 1 -108 -8 -108 -7 0 -11 8 -10
18 0 9 -3 16 -9 15 -5 -1 -11 12 -12 29 -2 26 1 29 17 25 25 -6 26 8 3 22 -17
10 -17 10 0 11 9 0 18 -6 19 -12z m-372 -168 c0 -5 -7 -7 -15 -4 -8 4 -15 8
-15 10 0 2 7 4 15 4 8 0 15 -4 15 -10z"/>
<path d="M1296 4554 c-5 -13 -14 -15 -39 -10 -22 4 -27 3 -17 -3 8 -6 12 -13
8 -16 -9 -9 24 -40 61 -60 30 -15 31 -15 57 15 15 16 35 43 45 60 l19 30 -64
0 c-50 0 -65 -4 -70 -16z"/>
<path d="M1442 4535 c-1 -20 -4 -40 -7 -45 -4 -6 -2 -10 4 -10 5 0 13 -9 16
-20 9 -28 30 -25 54 9 39 54 26 101 -28 101 -36 0 -38 -1 -39 -35z"/>
<path d="M1575 4560 c3 -5 14 -10 23 -10 15 0 15 2 2 10 -20 13 -33 13 -25 0z"/>
<path d="M1670 4567 c0 -19 26 -57 42 -63 10 -3 25 -21 33 -40 8 -20 19 -33
24 -30 5 3 12 -1 15 -9 4 -11 13 -14 31 -9 19 5 25 2 25 -10 0 -18 35 -22 45
-6 5 8 11 8 20 0 9 -7 16 -6 24 4 15 18 34 15 60 -8 10 -9 21 -14 24 -9 8 12
21 106 18 123 -2 12 1 11 16 -3 11 -9 22 -14 26 -11 3 3 12 -3 19 -15 17 -28
23 -27 38 10 20 46 -1 79 -51 79 -20 0 -40 -6 -42 -12 -4 -10 -6 -10 -6 0 -1
8 -21 12 -67 12 -61 0 -65 -1 -59 -20 5 -16 2 -20 -19 -20 -15 0 -31 8 -38 20
-11 16 -24 20 -75 20 -40 0 -63 -4 -66 -12 -3 -10 -7 -10 -20 1 -10 7 -17 11
-17 8z m354 -42 c-4 -8 -10 -15 -15 -15 -5 0 -9 7 -9 15 0 8 7 15 15 15 9 0
12 -6 9 -15z"/>
<path d="M2609 4535 c-3 -26 -9 -39 -17 -37 -8 1 -11 -2 -7 -8 5 -8 11 -7 21
1 17 14 19 -2 2 -20 -11 -10 -9 -15 6 -26 15 -11 17 -22 13 -52 -4 -25 -3 -33
3 -23 8 12 10 12 16 -3 8 -23 -2 -48 -18 -42 -7 3 -18 -5 -24 -18 -9 -21 -8
-23 10 -21 12 1 26 3 33 3 20 2 26 58 9 83 -9 12 -16 32 -16 44 0 18 4 21 23
17 21 -5 21 -4 -5 21 -27 25 -33 41 -41 96 -3 18 -5 14 -8 -15z"/>
<path d="M3360 4552 c0 -13 4 -21 9 -18 9 6 35 -20 44 -44 5 -13 5 -13 6 0 0
8 -13 31 -29 50 -28 32 -30 32 -30 12z"/>
<path d="M1153 4553 c9 -2 25 -2 35 0 9 3 1 5 -18 5 -19 0 -27 -2 -17 -5z"/>
<path d="M3491 4470 l-1 -85 -50 -55 c-141 -154 -177 -193 -197 -212 -13 -12
-23 -28 -23 -35 0 -7 -7 -13 -15 -13 -8 0 -15 -3 -15 -8 0 -4 -24 -33 -53 -64
l-52 -57 -165 -15 c-91 -8 -204 -18 -251 -22 l-87 -7 -5 29 c-10 49 -12 307
-3 334 8 25 8 25 -12 5 -11 -11 -29 -49 -41 -85 -18 -57 -19 -73 -10 -130 22
-139 23 -160 5 -160 -14 0 -16 14 -17 93 0 102 -9 96 -29 -21 -10 -61 -15 -73
-33 -77 -58 -11 -541 -44 -554 -37 -8 5 -44 38 -81 74 -85 82 -176 124 -249
114 -27 -3 -57 -7 -68 -8 -11 -2 -27 -11 -36 -20 -9 -10 -19 -18 -23 -18 -8 0
-8 58 0 99 6 31 7 31 27 14 19 -18 20 -17 8 4 -6 12 -16 25 -21 28 -6 3 -10
24 -10 46 0 21 -4 39 -10 39 -5 0 -10 5 -10 11 0 5 6 7 13 3 10 -6 10 -4 0 7
-21 22 -15 32 18 25 22 -4 29 -2 26 7 -2 6 -8 11 -13 10 -5 0 -16 6 -24 15
-13 14 -12 15 3 9 9 -3 17 -2 17 4 0 5 6 9 13 8 6 -1 24 -1 40 0 34 1 36 21 2
21 -14 0 -25 -5 -25 -12 0 -6 -9 -3 -20 7 -12 11 -19 28 -18 44 3 23 -1 26
-33 29 -29 2 -37 -1 -46 -20 l-10 -22 -26 26 c-15 15 -27 23 -27 18 0 -6 -10
-10 -21 -10 -12 0 -32 -11 -44 -24 -21 -23 -21 -24 -3 -49 17 -23 22 -25 43
-15 14 6 27 19 30 30 5 15 10 16 26 7 20 -10 20 -11 -5 -34 -14 -13 -26 -27
-26 -31 0 -4 13 4 28 19 15 15 31 27 34 27 3 0 6 -23 6 -51 1 -29 6 -57 13
-63 9 -8 10 -8 4 2 -6 11 -3 11 13 1 19 -12 20 -21 16 -128 l-4 -116 -67 -91
-68 -92 -65 -6 c-36 -3 -231 -19 -435 -36 -203 -16 -435 -36 -515 -43 l-145
-12 -11 -130 c-7 -72 -12 -132 -13 -134 0 -2 -12 -1 -26 2 -19 3 -31 -2 -45
-21 -20 -24 -20 -49 -20 -1718 l0 -1694 2720 0 2720 0 0 2091 0 2092 -61 -7
c-33 -4 -71 -11 -83 -16 -12 -4 -51 -11 -87 -14 -35 -3 -118 -15 -184 -26
-188 -32 -582 -65 -608 -51 -30 15 -64 38 -139 90 -35 24 -139 96 -233 159
-93 63 -177 120 -185 127 -20 17 -76 29 -127 26 -54 -2 -151 -28 -180 -47 -31
-20 -33 -18 -34 19 0 17 -6 50 -14 72 -13 40 -13 40 -14 -45z m1199 -460 c10
-5 54 -54 99 -107 l81 -98 90 -34 c58 -21 95 -41 102 -54 7 -13 9 -55 5 -115
-6 -103 -18 -127 -67 -134 -23 -3 -25 0 -22 37 3 39 -31 115 -45 101 -3 -3
-11 1 -17 10 -7 8 -32 17 -56 19 -37 4 -41 3 -20 -5 21 -8 19 -9 -14 -5 -22 2
-45 0 -52 -6 -8 -7 -12 -6 -11 3 1 41 -4 48 -33 48 l-30 0 -2 -72 c-1 -40 -3
-84 -4 -98 -1 -14 -3 -30 -3 -36 -1 -8 -64 -13 -193 -18 -106 -4 -208 -9 -225
-13 l-33 -5 2 44 c2 29 -4 55 -16 72 -20 32 -80 60 -110 53 -12 -3 -32 -8 -45
-11 -48 -11 -91 -75 -91 -137 0 -23 -5 -29 -21 -29 -58 0 -78 47 -33 82 31 25
30 68 -3 83 -16 7 -23 18 -23 37 0 24 4 28 30 28 34 0 70 30 70 58 0 23 -39
45 -71 40 -15 -2 -24 2 -23 10 1 6 2 18 3 26 1 10 20 17 59 21 85 11 123 53
88 100 -11 15 -25 18 -75 16 -36 -1 -61 2 -61 8 0 28 53 39 250 55 113 10 248
21 300 25 140 12 199 12 220 1z m-647 -130 c8 -29 -8 -42 -54 -45 -24 -1 -101
-6 -171 -10 -127 -8 -128 -8 -128 14 0 12 6 24 14 27 8 3 79 11 157 17 79 7
151 13 161 14 9 1 18 -7 21 -17z m-693 -20 c47 -25 45 -143 -3 -174 -85 -56
-169 -5 -154 92 12 71 96 115 157 82z m-242 -22 c15 -15 15 -53 1 -80 -9 -16
-6 -27 15 -56 l26 -37 -32 -7 c-28 -6 -37 -3 -55 18 l-23 25 0 -25 c0 -22 -4
-26 -31 -26 l-30 0 2 83 c2 108 8 117 67 117 27 0 53 -5 60 -12z m-207 -32 c8
-18 7 -30 -4 -52 -14 -27 -13 -31 9 -64 32 -46 30 -52 -13 -48 -28 2 -41 9
-50 28 l-13 25 0 -27 c0 -16 -3 -28 -7 -28 -5 0 -18 -3 -30 -6 -23 -6 -23 -5
-23 88 0 52 3 98 7 101 3 4 30 7 60 7 46 0 55 -3 64 -24z m-191 -9 c0 -19 -8
-26 -37 -34 l-38 -10 33 -2 c27 -1 32 -5 32 -26 0 -20 -5 -25 -24 -25 -14 0
-28 -4 -31 -10 -4 -6 8 -10 29 -10 31 0 36 -3 36 -24 0 -27 -21 -36 -87 -36
l-43 0 0 64 c0 35 3 77 6 94 7 32 18 37 92 41 27 1 32 -2 32 -22z m-186 -25
c-1 -15 -2 -28 -3 -30 -1 -1 -9 2 -20 7 -25 14 -17 61 8 54 12 -3 17 -13 15
-31z m-64 10 c0 -10 -7 -27 -15 -38 -20 -26 -19 -73 1 -81 10 -3 30 -1 45 4
28 11 29 10 29 -17 0 -32 -14 -40 -71 -40 -54 0 -79 27 -79 86 0 37 5 51 29
75 33 33 61 38 61 11z m-901 -29 c-8 -9 -14 -26 -15 -37 0 -12 -1 -54 -2 -94
-2 -73 -2 -73 -29 -70 l-26 3 2 89 c3 101 13 126 55 126 25 0 27 -2 15 -17z
m469 -9 c2 -16 -5 -23 -30 -31 l-33 -11 28 -1 c23 -1 28 -5 25 -23 -2 -15 -11
-24 -25 -26 -33 -5 -28 -24 5 -20 23 3 27 -1 30 -24 3 -25 2 -26 -58 -30 l-61
-3 3 90 3 90 40 6 c58 9 70 6 73 -17z m112 -40 l0 -65 28 3 c23 3 27 -1 30
-24 3 -28 3 -28 -57 -28 l-61 0 0 68 c0 91 7 112 36 112 23 0 24 -3 24 -66z
m-418 -46 c19 -61 23 -85 15 -90 -22 -14 -45 -8 -50 12 -7 26 -44 26 -52 1 -6
-21 -42 -35 -51 -20 -3 5 7 37 21 71 15 35 31 73 36 86 5 14 17 22 32 22 20 0
26 -10 49 -82z m2242 66 c9 -3 13 -10 10 -15 -3 -5 1 -9 8 -9 7 0 3 -7 -9 -15
-14 -10 -57 -18 -118 -22 l-97 -6 4 29 c3 28 6 29 63 35 93 9 122 9 139 3z
m-2542 -29 c8 -19 8 -31 -1 -51 -10 -22 -8 -32 8 -60 11 -19 17 -34 13 -34 -4
0 -17 -3 -29 -6 -16 -5 -25 1 -37 23 l-15 28 -1 -27 c0 -23 -4 -28 -25 -28
-23 0 -25 4 -25 44 0 24 3 64 6 90 l7 46 44 0 c37 0 45 -4 55 -25z m-154 -7
c-2 -16 -12 -25 -33 -29 -22 -5 -24 -7 -8 -8 12 0 24 -5 27 -10 10 -16 -5 -41
-25 -41 -10 0 -19 -5 -19 -11 0 -6 12 -9 28 -7 23 3 27 -1 27 -22 0 -23 -4
-25 -58 -28 l-58 -3 7 83 c4 46 11 86 15 89 5 3 30 6 55 8 42 2 45 0 42 -21z
m-180 -10 c15 -15 16 -50 1 -65 -8 -8 -6 -19 5 -41 9 -17 16 -36 16 -42 0 -16
-50 -12 -56 5 -4 8 -10 15 -15 15 -5 0 -9 -7 -9 -15 0 -9 -9 -15 -24 -15 -23
0 -23 2 -19 73 3 39 6 78 8 85 5 16 77 16 93 0z m-164 -20 c40 -57 2 -151 -62
-151 -40 0 -58 16 -66 58 -7 35 3 64 32 98 22 25 77 22 96 -5z m-159 -13 c0
-13 -8 -21 -22 -23 -19 -3 -22 -10 -25 -60 -3 -53 -5 -57 -30 -60 l-26 -3 5
60 c5 57 4 61 -16 61 -14 0 -21 6 -21 19 0 24 19 30 85 28 43 -2 50 -5 50 -22z
m-175 -70 c0 -82 -1 -85 -23 -85 -14 0 -29 11 -39 28 l-17 27 -1 -27 c0 -16
-2 -28 -4 -28 -2 0 -12 -3 -21 -7 -16 -5 -17 2 -13 70 4 94 16 110 53 71 15
-16 25 -22 23 -14 -2 9 3 14 11 12 11 -2 12 0 3 11 -13 15 -6 27 15 27 10 0
13 -21 13 -85z m-164 41 c-3 -11 -6 -47 -6 -78 0 -56 -1 -58 -26 -58 l-27 0 7
77 c8 90 10 93 37 86 15 -4 19 -11 15 -27z m-86 -1 c0 -18 -5 -25 -20 -25 -15
0 -20 -7 -20 -29 0 -57 -12 -91 -31 -91 -16 0 -19 8 -19 60 0 47 -3 60 -15 60
-8 0 -15 9 -15 19 0 16 8 21 43 24 23 2 50 4 60 5 12 1 17 -5 17 -23z m4538
-11 c56 -12 82 -91 46 -142 -19 -27 -74 -57 -84 -45 -4 4 -20 46 -35 93 -19
58 -24 85 -16 88 6 2 9 7 7 11 -5 7 35 5 82 -5z m-745 -21 c-7 -2 -19 -2 -25
0 -7 3 -2 5 12 5 14 0 19 -2 13 -5z m-748 -13 c-18 -8 -268 -25 -1123 -76
-226 -14 -276 -14 -261 0 2 2 193 16 424 31 231 14 501 32 600 39 215 16 389
19 360 6z m793 -2 c-2 -7 3 -12 10 -10 8 1 11 -2 8 -7 -4 -5 -2 -12 4 -16 5
-3 10 -25 10 -49 0 -54 -39 -95 -98 -103 -36 -5 -45 -2 -73 26 -27 28 -31 37
-26 68 4 19 13 43 22 53 8 9 12 20 8 25 -5 4 -2 5 5 1 7 -4 18 -3 25 2 7 6 33
12 57 15 25 2 46 4 48 5 1 1 1 -4 0 -10z m-248 -22 c0 -28 -16 -36 -71 -36
-26 0 -42 5 -45 15 -11 27 16 45 67 45 45 0 49 -2 49 -24z m-2162 -49 c7 -34
-7 -67 -28 -67 -15 0 -20 7 -20 29 0 16 3 37 6 46 8 21 38 15 42 -8z m67 -11
c1 -30 -20 -59 -38 -53 -19 6 -19 27 0 28 10 0 13 3 6 6 -7 2 -13 16 -13 30 0
19 4 24 22 21 16 -2 22 -10 23 -32z m63 -3 c-2 -30 -7 -38 -23 -38 -13 0 -21
8 -23 23 -5 34 5 52 28 52 18 0 21 -5 18 -37z m-493 17 c13 21 24 10 15 -16
-14 -35 -13 -44 6 -44 13 0 14 3 5 13 -14 18 10 53 31 45 22 -9 12 -78 -12
-78 -10 0 -31 -3 -48 -6 -29 -6 -30 -5 -34 35 -2 23 0 41 5 41 4 0 5 6 1 13
-6 9 -4 9 8 -1 11 -9 18 -10 23 -2z m205 -2 c0 -7 -4 -20 -10 -28 -6 -9 -5
-17 2 -21 15 -10 0 -29 -22 -29 -22 0 -27 12 -22 56 3 28 8 34 28 34 13 0 24
-6 24 -12z m88 -25 c-4 -42 -28 -59 -28 -20 0 14 -3 32 -6 41 -4 12 0 16 15
16 18 0 21 -5 19 -37z m-151 11 c10 -27 -14 -64 -42 -64 -25 0 -26 5 -16 73 2
14 52 7 58 -9z m-189 -22 c4 -28 -14 -52 -39 -52 -16 0 -19 8 -19 41 0 38 1
40 28 37 19 -2 28 -9 30 -26z m-163 -21 c-6 -4 -111 -14 -235 -20 -124 -7
-333 -19 -465 -26 -132 -8 -243 -15 -247 -15 -5 0 -8 4 -8 9 0 10 78 16 505
41 352 21 463 23 450 11z m1679 -37 c4 -10 -1 -25 -10 -35 -16 -18 -16 -19 0
-19 9 0 14 -4 11 -10 -9 -15 -45 -12 -45 4 0 7 7 19 15 26 8 7 15 16 15 21 0
5 -7 6 -15 3 -8 -4 -15 -2 -15 4 0 9 15 19 31 21 4 1 10 -6 13 -15z m116 6 c0
-5 -8 -10 -17 -10 -17 -1 -17 -1 0 -11 23 -14 22 -36 -4 -49 -28 -15 -38 -4
-13 15 17 13 17 14 2 15 -10 0 -18 8 -19 18 0 10 -6 5 -15 -15 -14 -33 -34
-52 -34 -33 0 5 6 20 13 31 10 17 10 23 0 26 -30 11 -9 23 37 23 28 0 50 -4
50 -10z m-595 -10 c3 -5 25 -10 48 -10 37 -1 40 -2 25 -14 -10 -7 -18 -25 -18
-40 0 -16 -4 -25 -10 -21 -6 3 -7 17 -4 29 4 16 0 25 -11 30 -24 9 -42 -13
-37 -46 4 -27 3 -28 -38 -28 -42 0 -42 0 -36 30 3 17 1 30 -4 30 -14 0 -12 24
2 38 15 15 74 16 83 2z m316 3 c0 -5 2 -20 4 -35 5 -35 -18 -56 -41 -37 -13
10 -17 10 -25 -2 -6 -10 -9 -10 -9 -1 0 6 -7 12 -15 12 -19 0 -19 5 1 35 21
33 34 32 35 -2 2 -28 2 -28 6 -3 5 24 19 40 36 40 4 0 7 -3 8 -7z m40 -6 c-1
-4 -1 -23 -1 -44 0 -48 -14 -33 -17 18 -1 24 2 39 8 37 6 -2 10 -7 10 -11z
m59 -27 c0 -22 -4 -40 -10 -40 -5 0 -10 11 -10 24 0 13 -3 31 -6 40 -4 11 -1
16 10 16 12 0 16 -10 16 -40z m-273 -6 c-5 -34 -3 -36 19 -31 13 2 24 0 24 -4
0 -5 -10 -10 -22 -10 -85 -5 -83 -5 -83 21 0 19 5 25 23 24 15 0 22 5 22 18 0
10 5 18 11 18 6 0 9 -14 6 -36z m-1130 -9 c44 -31 6 -107 -51 -101 -17 2 -30
6 -28 10 1 3 2 20 2 36 0 27 29 70 48 70 4 0 17 -7 29 -15z m373 -10 c0 -7 -7
-18 -15 -25 -13 -11 -13 -15 -3 -21 9 -6 5 -9 -12 -10 -14 -1 -44 -3 -67 -4
-24 -2 -43 1 -43 6 0 5 5 9 11 9 8 0 8 5 -1 15 -10 12 -10 15 1 16 10 0 11 2
2 6 -20 8 -15 23 7 23 16 0 20 -7 20 -31 0 -27 2 -30 15 -19 17 14 21 45 5 35
-5 -3 -10 -1 -10 4 0 6 9 11 20 11 22 0 25 -12 10 -41 -13 -23 -3 -25 22 -2
19 17 25 39 8 28 -11 -7 -14 8 -4 18 9 9 34 -4 34 -18z m117 9 c3 -8 0 -21 -7
-29 -9 -11 -9 -15 -1 -15 6 0 14 13 17 29 5 26 10 29 45 29 46 1 57 -12 33
-39 -16 -18 -16 -19 1 -19 10 0 15 -3 11 -7 -12 -13 -169 -13 -193 -1 -25 13
-32 34 -8 24 10 -3 15 1 15 13 0 25 6 29 46 29 21 0 38 -6 41 -14z m-317 -34
c0 -22 -4 -40 -9 -40 -9 0 -20 67 -12 75 13 14 21 1 21 -35z m-40 19 c0 -6 -4
-7 -10 -4 -5 3 -10 1 -10 -4 0 -6 5 -11 10 -11 11 0 14 -40 3 -41 -5 0 -25 -2
-45 -4 -21 -2 -38 0 -38 5 0 6 7 10 16 10 14 0 14 3 4 15 -7 8 -9 15 -5 15 4
0 2 6 -4 14 -10 12 -5 14 33 14 26 0 46 -4 46 -9z m80 -23 c0 -11 -19 -15 -25
-6 -3 5 1 10 9 10 9 0 16 -2 16 -4z m-1254 -21 c4 -8 3 -31 0 -50 -5 -26 -13
-36 -32 -41 -45 -11 -70 37 -44 87 13 23 68 26 76 4z m167 -7 c51 2 94 8 95
13 2 5 8 9 13 9 6 0 8 -4 5 -9 -4 -5 3 -7 14 -4 15 4 20 0 20 -16 0 -26 16
-28 23 -2 4 16 16 20 77 23 75 3 96 -6 84 -36 -8 -21 -30 -20 -43 2 -10 16
-10 15 -12 -3 -1 -17 -2 -16 -9 5 -8 24 -8 24 -9 3 -1 -13 -7 -23 -13 -24 -7
0 -43 -2 -80 -5 -65 -4 -68 -3 -69 18 l-2 23 -4 -23 c-4 -18 -11 -22 -36 -22
-18 1 -67 -1 -109 -4 l-78 -6 0 31 c0 24 4 30 15 25 10 -3 15 1 16 12 1 14 2
14 5 2 4 -13 20 -15 97 -12z m3260 5 c-13 -2 -35 -2 -50 0 -16 2 -5 4 22 4 28
0 40 -2 28 -4z m-114 -7 c-2 -2 -67 -6 -144 -8 -77 -3 -117 -2 -90 2 53 7 241
13 234 6z m494 -133 c-7 -2 -21 -2 -30 0 -10 3 -4 5 12 5 17 0 24 -2 18 -5z
m143 -21 c16 -5 45 -17 64 -27 25 -13 30 -19 19 -25 -15 -9 -155 -22 -474 -45
-115 -9 -265 -20 -333 -25 -68 -6 -167 -10 -221 -10 -88 0 -99 2 -97 17 1 17
74 59 84 48 3 -3 13 2 23 11 47 43 827 89 935 56z m54 -146 c7 -18 15 -23 32
-20 21 4 21 4 3 -5 -11 -5 -32 -10 -47 -10 -16 -1 -28 -7 -28 -14 0 -19 -53
-38 -87 -31 -17 3 -33 1 -37 -4 -3 -6 -23 -8 -45 -5 -22 3 -41 1 -45 -5 -4 -7
-17 -7 -38 -1 -24 7 -36 5 -49 -7 -11 -10 -19 -12 -24 -5 -8 13 -52 15 -59 2
-3 -5 -24 -7 -46 -4 -29 4 -40 2 -40 -8 0 -10 -3 -10 -12 -1 -17 17 -48 15
-70 -5 -11 -9 -18 -11 -18 -5 0 16 -57 15 -63 0 -3 -8 -6 -6 -6 5 -1 25 -21
21 -21 -4 0 -14 -5 -19 -15 -16 -8 4 -17 1 -21 -5 -5 -7 -11 -5 -20 7 -11 14
-22 16 -72 10 -45 -5 -62 -3 -73 8 -8 8 -32 18 -54 23 -52 13 -58 38 -13 53
18 5 195 22 393 36 198 13 380 26 405 28 139 10 160 8 170 -17z m-2416 -77
c10 -50 -3 -109 -24 -109 -10 0 -25 -3 -34 -6 -12 -5 -16 0 -17 17 l0 24 -10
-24 c-7 -17 -15 -22 -29 -18 -11 3 -20 1 -20 -5 0 -5 -5 -6 -11 -3 -6 4 -8 14
-5 24 5 14 4 13 -8 -1 -7 -10 -22 -18 -34 -18 -11 0 -23 -6 -25 -12 -3 -7 -6
-1 -6 15 -1 15 -5 27 -11 27 -5 0 -7 -6 -5 -13 3 -7 -9 -16 -30 -23 -24 -8
-35 -8 -35 -1 0 7 -4 7 -12 -1 -8 -8 -15 -9 -25 -1 -9 8 -17 8 -27 0 -12 -10
-15 -8 -18 11 -2 19 -9 23 -38 23 -41 1 -60 10 -60 31 0 8 -10 14 -24 14 -14
0 -28 5 -31 10 -9 14 38 30 125 41 176 22 230 26 316 28 l92 1 6 -31z m156 -3
c7 -16 3 -26 -16 -42 -14 -11 -26 -30 -27 -42 -1 -12 -6 -21 -12 -19 -5 2 -9
11 -7 21 2 9 -4 16 -12 16 -20 0 -44 42 -27 48 6 2 11 10 11 18 0 18 37 33 63
26 10 -3 22 -14 27 -26z m70 -28 c0 -4 -4 -8 -8 -8 -5 0 -13 -12 -19 -27 l-11
-28 -1 37 c-1 31 2 37 19 35 11 -1 20 -5 20 -9z m30 -68 c0 -6 -11 -10 -25
-10 -27 0 -28 1 -19 24 5 12 10 13 25 5 10 -5 19 -14 19 -19z m-189 -3 c-10
-9 -11 -8 -5 6 3 10 9 15 12 12 3 -3 0 -11 -7 -18z m-1803 -14 c-16 -2 -40 -2
-55 0 -16 2 -3 4 27 4 30 0 43 -2 28 -4z m149 -10 c-20 -2 -52 -2 -70 0 -17 2
0 4 38 4 39 0 53 -2 32 -4z m106 -10 c-7 -2 -21 -2 -30 0 -10 3 -4 5 12 5 17
0 24 -2 18 -5z m4217 -185 l0 -28 -76 0 c-43 0 -73 4 -70 9 4 5 1 11 -6 13
-24 8 15 33 57 36 22 2 41 7 43 12 2 4 14 3 27 -4 18 -8 25 -19 25 -38z m168
5 c-2 -14 -15 -19 -56 -21 -47 -3 -52 -2 -52 17 0 19 6 21 56 21 47 0 55 -3
52 -17z m82 -3 c0 -11 -4 -20 -9 -20 -11 0 -22 26 -14 34 12 12 23 5 23 -14z
m-1267 -3 c3 -8 1 -20 -4 -28 -6 -10 -9 -7 -9 14 0 29 5 35 13 14z m-783 -42
c0 -14 -4 -25 -10 -25 -5 0 -10 11 -10 25 0 14 5 25 10 25 6 0 10 -11 10 -25z
m708 -2 c-3 -15 -17 -18 -91 -21 -48 -1 -87 0 -87 3 0 24 31 34 103 35 69 0
78 -2 75 -17z m-2101 -65 c-3 -7 -5 -2 -5 12 0 14 2 19 5 13 2 -7 2 -19 0 -25z
m3191 0 c2 -10 -7 -18 -23 -22 -30 -8 -65 0 -65 15 0 5 -10 10 -22 10 -29 2
49 14 82 13 14 0 26 -7 28 -16z m-4235 -158 c-3 -12 -8 -19 -11 -16 -5 6 5 36
12 36 2 0 2 -9 -1 -20z m77 5 c0 -9 -6 -12 -15 -9 -8 4 -15 10 -15 15 0 5 7 9
15 9 8 0 15 -7 15 -15z m79 -17 c-1 -18 -5 -44 -9 -58 -8 -24 -8 -24 -9 7 -1
36 -17 53 -24 26 -3 -10 -5 -1 -6 20 -1 33 2 37 24 37 22 0 25 -4 24 -32z
m3585 -453 c10 -38 63 -59 180 -70 28 -3 66 -10 85 -16 32 -11 33 -13 16 -25
-18 -13 -18 -14 3 -14 12 0 22 -4 22 -10 0 -5 -11 -10 -25 -10 -14 0 -25 4
-25 9 0 14 -29 22 -95 28 -33 3 -65 9 -72 15 -6 5 -39 9 -72 10 l-61 2 0 53
c0 45 3 53 19 53 12 0 21 -9 25 -25z m-87 -174 c-1 -24 2 -35 11 -33 9 1 11
-7 7 -30 -7 -40 -15 -49 -15 -17 0 19 -2 21 -10 9 -6 -8 -9 -33 -8 -55 2 -36
0 -40 -22 -43 -24 -4 -25 -3 -5 12 11 9 13 14 5 11 -13 -5 -14 13 -9 137 8
178 18 209 36 114 6 -37 11 -85 10 -105z m478 29 c3 -5 1 -10 -4 -10 -6 0 -11
5 -11 10 0 6 2 10 4 10 3 0 8 -4 11 -10z m-29 -17 c7 -10 13 -22 13 -28 0 -5
-4 -2 -10 7 -5 9 -15 16 -22 14 -6 -1 -9 -1 -4 1 4 3 5 9 1 14 -10 16 9 9 22
-8z m-416 -158 c0 -24 -1 -24 -20 -8 -11 10 -20 21 -20 25 0 5 9 8 20 8 15 0
20 -7 20 -25z m55 -57 c-2 -27 -7 -33 -26 -35 -15 -1 -17 0 -6 3 10 3 17 15
17 29 0 14 -7 25 -17 28 -12 3 -9 5 8 6 24 1 26 -2 24 -31z m-2541 -1448 c2
-3 -11 -6 -30 -6 -19 0 -34 3 -34 7 0 7 56 7 64 -1z"/>
<path d="M4550 3953 c-35 -7 -40 -19 -40 -97 l0 -69 53 7 c28 3 84 6 122 6 89
0 102 8 82 46 -9 16 -33 46 -54 67 -33 31 -48 38 -89 41 -27 3 -60 2 -74 -1z"/>
<path d="M3271 3806 c-7 -8 -11 -30 -9 -48 4 -43 38 -46 52 -5 16 44 -17 84
-43 53z"/>
<path d="M3045 3790 c-3 -5 -1 -10 4 -10 6 0 11 5 11 10 0 6 -2 10 -4 10 -3 0
-8 -4 -11 -10z"/>
<path d="M2830 3769 c0 -5 5 -7 10 -4 6 3 10 8 10 11 0 2 -4 4 -10 4 -5 0 -10
-5 -10 -11z"/>
<path d="M857 3633 c-4 -3 -7 -21 -7 -40 0 -40 26 -46 36 -8 10 39 -8 69 -29
48z"/>
<path d="M2366 3323 c-6 -14 -5 -15 5 -6 7 7 10 15 7 18 -3 3 -9 -2 -12 -12z"/>
<path d="M2320 3320 c0 -5 5 -10 11 -10 5 0 7 5 4 10 -3 6 -8 10 -11 10 -2 0
-4 -4 -4 -10z"/>
<path d="M2498 3333 c7 -3 16 -2 19 1 4 3 -2 6 -13 5 -11 0 -14 -3 -6 -6z"/>
<path d="M1367 3325 c3 -9 8 -13 11 -11 3 3 12 0 20 -7 13 -10 15 -9 9 6 -4
10 -7 21 -7 23 0 2 -9 4 -20 4 -13 0 -18 -5 -13 -15z"/>
<path d="M1349 3293 c13 -25 35 -30 47 -11 5 7 3 8 -5 4 -7 -5 -21 0 -33 11
-21 18 -21 18 -9 -4z"/>
<path d="M1947 3346 c-2 -6 -2 -17 0 -24 4 -10 9 -8 19 5 7 10 14 21 14 24 0
10 -29 6 -33 -5z"/>
<path d="M1850 3330 c0 -11 2 -20 5 -20 2 0 9 9 15 20 9 16 8 20 -5 20 -8 0
-15 -9 -15 -20z"/>
<path d="M1490 3311 c0 -12 6 -21 15 -21 8 0 15 3 15 6 0 3 -7 12 -15 20 -13
14 -15 13 -15 -5z"/>
<path d="M305 3279 c-4 -6 -4 -13 -1 -16 3 -4 6 -1 6 5 0 6 8 13 18 15 15 4
15 5 0 6 -9 0 -20 -4 -23 -10z"/>
<path d="M340 3241 c0 -8 -8 -11 -20 -8 -11 3 -20 1 -20 -4 0 -13 37 -11 45 2
4 6 4 13 1 16 -3 4 -6 1 -6 -6z"/>
<path d="M841 3274 c0 -11 3 -14 6 -6 3 7 2 16 -1 19 -3 4 -6 -2 -5 -13z"/>
<path d="M715 3270 c3 -5 8 -10 11 -10 2 0 4 5 4 10 0 6 -5 10 -11 10 -5 0 -7
-4 -4 -10z"/>
<path d="M515 3260 c3 -5 8 -10 11 -10 2 0 4 5 4 10 0 6 -5 10 -11 10 -5 0 -7
-4 -4 -10z"/>
<path d="M1595 2810 c3 -5 8 -10 11 -10 2 0 4 5 4 10 0 6 -5 10 -11 10 -5 0
-7 -4 -4 -10z"/>
<path d="M3352 4495 c0 -16 2 -22 5 -12 2 9 2 23 0 30 -3 6 -5 -1 -5 -18z"/>
<path d="M1 4505 c0 -5 6 -21 14 -35 8 -14 14 -20 14 -15 0 6 -6 21 -14 35 -8
14 -14 21 -14 15z"/>
<path d="M1177 4499 c7 -7 15 -10 18 -7 3 3 -2 9 -12 12 -14 6 -15 5 -6 -5z"/>
<path d="M1170 4445 c13 -14 26 -25 28 -25 3 0 -5 11 -18 25 -13 14 -26 25
-28 25 -3 0 5 -11 18 -25z"/>
<path d="M2483 4463 c-18 -2 -33 -9 -33 -15 0 -12 59 -3 74 12 6 6 6 9 1 8 -6
0 -25 -3 -42 -5z"/>
<path d="M2701 4447 c-6 -8 -8 -17 -4 -20 12 -13 28 -7 41 13 11 17 10 20 -7
20 -10 0 -24 -6 -30 -13z"/>
<path d="M3360 4446 c0 -8 4 -17 9 -20 5 -4 7 3 4 14 -6 23 -13 26 -13 6z"/>
<path d="M0 4423 c0 -7 9 -13 19 -13 11 0 23 -9 26 -21 4 -11 9 -19 11 -16 2
2 -1 17 -6 33 -11 30 -50 43 -50 17z"/>
<path d="M3380 4406 c0 -2 8 -10 18 -17 15 -13 16 -12 3 4 -13 16 -21 21 -21
13z"/>
<path d="M0 4391 c0 -6 4 -13 10 -16 6 -3 7 1 4 9 -7 18 -14 21 -14 7z"/>
<path d="M946 4383 c-9 -23 19 -52 36 -35 9 9 9 12 -1 12 -7 0 -10 4 -7 9 3 5
0 14 -8 20 -11 9 -15 8 -20 -6z"/>
<path d="M2750 4396 c0 -2 8 -10 18 -17 15 -13 16 -12 3 4 -13 16 -21 21 -21
13z"/>
<path d="M2700 4366 c0 -21 33 -52 38 -37 2 7 -5 21 -17 32 -16 15 -21 16 -21
5z"/>
<path d="M70 4324 c0 -6 7 -19 16 -30 14 -18 14 -18 3 6 -14 31 -19 36 -19 24z"/>
<path d="M117 4235 c9 -19 18 -33 21 -31 4 5 -26 66 -33 66 -3 0 3 -16 12 -35z"/>
<path d="M949 4153 c-13 -16 -12 -17 4 -4 9 7 17 15 17 17 0 8 -8 3 -21 -13z"/>
<path d="M418 4123 c7 -3 16 -2 19 1 4 3 -2 6 -13 5 -11 0 -14 -3 -6 -6z"/>
<path d="M930 4127 c0 -3 11 -17 25 -31 14 -14 25 -22 25 -17 0 4 -11 18 -25
31 -14 13 -25 21 -25 17z"/>
<path d="M594 4048 c8 -52 41 -92 56 -68 27 42 -1 110 -45 110 -15 0 -17 -6
-11 -42z"/>
<path d="M222 4044 c10 -10 20 -16 22 -13 3 3 -5 11 -17 18 -21 13 -21 12 -5
-5z"/>
<path d="M267 4019 c7 -7 15 -10 18 -7 3 3 -2 9 -12 12 -14 6 -15 5 -6 -5z"/>
<path d="M376 4002 c-5 -18 -5 -36 -2 -39 7 -7 19 43 13 59 -2 7 -7 -2 -11
-20z"/>
<path d="M348 3943 c7 -3 16 -2 19 1 4 3 -2 6 -13 5 -11 0 -14 -3 -6 -6z"/>
<path d="M406 3823 c-6 -14 -5 -15 5 -6 7 7 10 15 7 18 -3 3 -9 -2 -12 -12z"/>
<path d="M430 3810 c0 -5 5 -10 11 -10 5 0 7 5 4 10 -3 6 -8 10 -11 10 -2 0
-4 -4 -4 -10z"/>
</g>
</svg>
