<?xml version="1.0" standalone="no"?>
<!DOCTYPE svg PUBLIC "-//W3C//DTD SVG 20010904//EN"
 "http://www.w3.org/TR/2001/REC-SVG-20010904/DTD/svg10.dtd">
<svg version="1.0" xmlns="http://www.w3.org/2000/svg"
 width="343.000000pt" height="457.000000pt" viewBox="0 0 343.000000 457.000000"
 preserveAspectRatio="xMidYMid meet">

<g transform="translate(0.000000,457.000000) scale(0.100000,-0.100000)"
fill="#000000" stroke="none">
<path d="M0 3290 l0 -1280 28 -1 c136 -4 162 -9 162 -31 0 -6 -31 -8 -90 -5
-49 3 -92 2 -95 -3 -9 -15 20 -27 75 -29 30 -1 58 -7 62 -14 11 -18 0 -21 -19
-6 -9 8 -14 9 -10 2 5 -8 -7 -11 -45 -10 -36 1 -55 7 -60 17 -4 8 -7 -251 -7
-577 0 -455 3 -593 12 -596 9 -4 9 -6 0 -6 -9 -1 -12 -86 -12 -338 0 -186 3
-333 5 -326 3 7 12 9 20 6 8 -3 14 0 14 6 0 6 9 11 21 11 23 0 52 -24 41 -34
-3 -4 2 -4 12 0 12 5 23 2 30 -7 11 -13 30 -26 86 -56 19 -10 85 -13 292 -12
147 1 266 5 263 9 -4 7 53 40 69 40 18 0 1 -20 -26 -31 -31 -13 -24 -14 86
-17 89 -2 121 1 128 10 6 11 8 11 8 0 0 -10 30 -12 130 -11 71 0 132 5 136 10
3 5 -2 6 -10 3 -9 -3 -16 -1 -16 5 0 6 -6 11 -13 11 -7 0 -23 9 -35 20 -20 19
-22 19 -22 3 0 -16 -1 -16 -16 -1 -9 9 -14 24 -11 33 6 13 11 14 29 4 23 -12
23 -12 4 10 -18 20 -43 30 -32 12 3 -4 -3 -16 -14 -26 -14 -12 -20 -14 -20 -5
0 10 -3 10 -15 0 -12 -10 -16 -9 -21 4 -9 23 1 30 25 16 17 -9 21 -8 21 5 0 8
-9 15 -20 15 -11 0 -20 4 -20 10 0 5 -4 9 -9 7 -5 -1 -9 3 -10 8 0 6 12 9 27
8 27 -2 27 -2 -3 7 -16 5 -32 6 -35 2 -7 -10 -134 -72 -138 -68 -6 6 58 65 78
71 21 7 56 62 46 72 -3 3 -8 -2 -12 -11 -9 -23 -27 -20 -21 4 3 11 1 20 -4 20
-5 0 -9 -5 -9 -10 0 -6 -6 -5 -14 2 -12 11 -11 14 3 19 13 5 11 9 -12 20 -19
9 -31 9 -38 2 -12 -12 -49 -5 -49 9 0 5 4 7 8 4 4 -2 14 -1 21 4 10 6 9 9 -7
14 -11 4 -23 14 -27 24 -5 13 -8 14 -14 3 -7 -11 -10 -9 -15 7 -4 11 -18 23
-31 26 -14 4 -25 12 -25 20 0 9 -11 12 -37 9 -27 -2 -34 0 -23 6 11 8 2 16
-40 35 -64 30 -52 34 19 7 45 -17 51 -17 75 -2 27 16 37 47 12 38 -28 -11 -25
7 4 24 33 21 39 39 13 39 -14 0 -15 -2 -5 -9 24 -15 -10 -19 -38 -4 -16 8 -19
13 -9 13 9 0 22 11 29 25 14 27 33 25 23 -3 -6 -14 -4 -15 9 -4 12 10 21 9 44
-3 35 -18 45 -19 41 -3 -1 7 8 13 20 14 14 1 20 -3 16 -12 -3 -8 0 -14 6 -14
6 0 11 5 11 10 0 6 4 10 10 10 5 0 7 -7 3 -16 -5 -13 -2 -15 18 -9 58 19 89
12 89 -20 0 -5 -5 -3 -10 5 -8 12 -10 11 -10 -7 0 -13 8 -24 19 -28 10 -3 22
-17 25 -30 4 -14 13 -25 22 -25 8 0 13 4 10 8 -3 5 1 9 8 9 7 0 11 -8 9 -17
-3 -10 6 -23 22 -34 20 -13 24 -22 19 -38 -5 -17 -3 -20 10 -15 12 5 16 0 16
-17 0 -14 -6 -27 -13 -30 -6 -3 -1 -3 13 -1 14 2 42 7 62 10 21 3 38 10 38 16
0 6 5 7 10 4 13 -8 -6 -35 -25 -35 -17 0 -48 -37 -52 -60 -2 -13 3 -20 12 -20
9 0 33 -11 55 -25 22 -14 44 -25 49 -25 5 0 11 -7 15 -15 3 -10 -1 -15 -13
-15 -11 0 -21 5 -23 11 -2 7 -9 5 -17 -5 -11 -14 -11 -16 3 -16 22 0 20 -9 -6
-31 -11 -11 -16 -19 -10 -19 7 0 21 9 33 21 11 11 23 18 26 15 3 -3 -5 -14
-18 -25 l-24 -20 25 6 c23 6 24 5 10 -12 -14 -17 -13 -18 7 -13 20 5 22 3 17
-17 -5 -20 -1 -23 31 -29 24 -5 42 -3 53 6 12 10 14 10 8 1 -5 -10 10 -13 68
-13 50 0 76 4 79 13 3 9 7 9 19 0 19 -16 1113 -19 1103 -3 -4 7 3 7 20 0 15
-6 148 -10 316 -10 l289 0 0 315 c0 275 -2 316 -15 322 -9 3 -18 3 -21 0 -3
-3 -8 -48 -11 -101 -3 -53 -10 -96 -16 -96 -6 0 -7 44 -5 113 l5 113 -58 -2
c-52 -1 -60 2 -79 28 -20 28 -54 40 -45 16 5 -13 -55 -22 -65 -9 -12 14 -47
28 -70 27 -24 -1 -25 -3 -28 -89 -2 -54 -7 -85 -13 -82 -5 4 -7 11 -4 16 4 5
1 9 -6 9 -9 0 -10 22 -5 88 6 80 5 91 -14 112 -11 13 -23 20 -26 17 -4 -4 4
-16 17 -28 l24 -21 -25 7 c-30 8 -50 9 -70 4 -9 -2 -15 3 -15 13 0 9 -4 20 -8
24 -4 4 -7 2 -7 -4 0 -7 -11 -9 -31 -5 -25 5 -31 2 -36 -16 -7 -27 -23 -17
-23 15 0 16 -5 24 -12 21 -7 -2 -23 0 -36 4 -31 12 -34 0 -41 -136 -2 -32 -4
-36 -11 -20 -5 11 -7 34 -4 50 13 92 12 134 -2 128 -8 -3 -21 0 -28 7 -11 8
-20 8 -35 1 -28 -15 -34 -14 -28 8 2 10 1 25 -4 32 -6 10 -9 7 -9 -10 0 -19
-3 -21 -15 -11 -8 7 -26 9 -43 5 -21 -4 -31 -2 -35 9 -4 11 -1 13 11 10 15 -5
15 -4 -1 6 -9 6 -15 15 -12 20 3 6 -4 5 -17 0 -13 -6 -31 -13 -40 -16 -14 -5
-18 -19 -19 -68 -1 -33 -5 -72 -10 -86 -5 -16 -7 11 -3 72 4 84 3 98 -10 98
-9 0 -16 6 -16 13 0 8 -2 9 -8 1 -4 -6 -17 -14 -29 -18 -32 -10 -30 11 2 26
28 12 35 31 8 21 -11 -4 -14 -3 -9 5 5 8 2 10 -9 5 -13 -5 -14 -7 -3 -14 8 -6
-2 -9 -29 -9 -23 0 -45 -5 -49 -12 -5 -7 -11 -5 -21 7 -8 12 -26 19 -48 19
-39 0 -46 11 -15 21 11 4 17 11 14 17 -4 6 1 8 15 3 13 -4 28 -1 38 6 25 21
60 21 139 -1 41 -11 85 -20 99 -20 14 0 25 -5 25 -10 0 -6 -6 -10 -12 -9 -7 1
-20 1 -28 0 -13 -1 -13 -2 0 -11 9 -6 10 -10 3 -10 -6 0 -19 -3 -29 -7 -12 -5
-15 -3 -9 6 6 10 3 11 -15 1 -20 -11 -21 -14 -7 -21 11 -7 34 0 76 21 52 27
64 29 83 19 20 -11 41 -15 96 -21 6 -1 12 -5 12 -10 0 -5 4 -7 9 -4 8 5 54 -2
126 -18 53 -12 202 -49 215 -53 23 -8 71 -15 108 -16 21 0 28 -3 20 -9 -9 -5
-6 -8 10 -8 15 0 22 6 22 19 0 26 24 30 89 13 29 -7 55 -11 58 -8 2 2 -21 10
-52 17 -30 7 -54 15 -53 19 4 8 80 75 127 110 71 53 101 90 101 125 0 21 -6
38 -16 43 -15 8 -16 25 -11 143 12 286 17 818 7 824 -14 8 -13 58 1 72 7 7 13
73 16 172 l5 160 -84 -6 c-59 -4 -87 -2 -92 6 -5 8 18 11 83 11 l91 0 -2 288
c0 158 -3 272 -5 255 -4 -28 -8 -33 -31 -33 -15 0 -78 -3 -139 -7 l-113 -6 0
27 c0 36 -41 76 -79 76 -42 0 -91 -44 -91 -81 0 -30 -17 -38 -38 -17 -17 17
-15 25 8 31 24 6 27 39 5 57 -21 17 -19 30 5 30 26 0 46 36 29 56 -6 8 -20 14
-30 14 -11 0 -19 7 -19 15 0 10 10 15 33 15 41 0 70 20 66 46 -3 15 -14 20
-47 22 -43 3 -56 16 -24 26 29 9 443 38 458 32 10 -4 14 2 14 19 0 14 -6 25
-12 25 -13 0 -218 -19 -271 -24 -15 -2 -31 2 -35 8 -4 7 -20 18 -37 27 -16 8
-50 27 -73 43 -36 25 -43 34 -39 55 2 14 1 40 -3 56 -4 17 -8 22 -9 12 0 -10
-5 -16 -9 -13 -4 2 -6 -11 -4 -30 5 -37 1 -41 -20 -21 -7 6 -31 24 -54 38 -34
23 -48 26 -87 22 -30 -4 -52 -1 -62 7 -13 11 -14 10 -9 -4 3 -9 0 -24 -7 -33
-13 -15 -10 -16 29 -9 24 3 46 7 50 7 23 4 42 -2 37 -11 -3 -5 1 -10 9 -10 8
0 26 -10 40 -22 40 -37 55 -48 66 -48 5 0 10 -8 11 -17 0 -12 2 -13 6 -5 4 10
7 10 17 -2 6 -8 28 -23 49 -34 21 -11 35 -22 30 -25 -4 -3 -55 -8 -113 -11
-58 -4 -121 -9 -140 -11 -19 -2 -68 -7 -107 -10 l-73 -7 0 36 c0 32 3 36 25
36 30 0 39 17 27 50 -7 19 -10 20 -15 7 -4 -10 -2 -17 4 -17 6 0 7 -5 4 -11
-4 -6 -10 -8 -13 -5 -3 4 -21 -10 -39 -31 -25 -27 -31 -38 -21 -45 7 -4 10 -8
6 -9 -13 -2 -22 -5 -38 -12 -8 -3 -46 -8 -85 -11 -38 -2 -149 -11 -245 -20
-96 -9 -278 -25 -404 -35 -141 -12 -231 -23 -235 -30 -5 -8 -15 -5 -31 9 -13
11 -18 20 -11 20 7 0 19 17 28 38 8 20 20 40 25 43 6 4 7 12 2 20 -12 20 -5
51 14 65 20 14 10 29 -13 20 -8 -3 -18 -19 -21 -36 -8 -35 -31 -40 -44 -7 -6
15 -9 17 -9 5 -1 -9 -4 -24 -7 -32 -5 -12 -2 -15 10 -10 12 5 15 2 9 -12 -5
-13 -3 -15 7 -9 9 6 11 4 6 -4 -6 -9 -12 -9 -25 3 -22 20 -35 20 -50 2 -7 -8
-29 -17 -50 -21 -26 -4 -45 -16 -60 -36 -12 -16 -27 -27 -33 -23 -6 4 -8 3 -5
-3 4 -6 1 -17 -6 -26 -9 -13 -41 -19 -142 -26 -71 -5 -137 -9 -145 -9 -19 -1
-241 -20 -295 -26 -22 -3 -61 -5 -86 -5 l-46 -1 -9 -97 -9 -98 -34 3 c-27 3
-33 1 -28 -12 6 -15 -12 -21 -61 -19 -7 1 -11 -2 -8 -5 10 -9 -33 -34 -46 -26
-6 4 -8 3 -5 -4 4 -6 -20 -25 -56 -46 -35 -19 -70 -43 -78 -52 -14 -17 64 23
156 81 69 43 78 45 110 29 15 -8 31 -11 34 -8 3 4 0 9 -7 11 -13 5 -7 23 9 23
5 0 9 -25 9 -55 0 -49 2 -55 21 -55 16 0 19 -4 14 -20 -4 -11 -2 -20 4 -20 6
0 11 7 11 15 0 11 12 15 43 16 23 0 51 2 62 4 32 6 192 -13 215 -25 20 -11 21
-12 4 -24 -11 -8 -14 -18 -9 -26 6 -10 13 -7 30 14 l21 27 55 -17 c30 -9 61
-18 69 -21 13 -4 -53 -26 -142 -47 -31 -7 -38 -26 -9 -26 16 0 19 -10 23 -77
3 -43 2 -120 -1 -172 l-6 -95 56 -57 c30 -31 65 -61 76 -68 26 -13 32 0 44 94
l7 60 0 -65 c0 -95 1 -110 11 -110 4 0 6 12 3 27 -3 18 1 30 13 40 26 18 35
16 35 -8 0 -20 4 -20 57 -14 64 7 72 14 74 65 1 24 4 14 11 -30 5 -36 6 -96 3
-135 -8 -88 4 -80 15 12 l9 68 -4 -75 c-3 -41 -8 -86 -12 -99 -6 -23 -7 -23
-14 -5 -4 11 -7 -7 -7 -44 1 -34 -2 -65 -5 -68 -3 -3 -19 -3 -36 1 -28 6 -30
10 -33 58 -3 45 -6 52 -25 55 -18 3 -23 -2 -23 -17 0 -12 -3 -21 -7 -21 -5 0
-50 43 -102 95 -52 52 -97 95 -101 95 -3 0 -37 29 -74 64 l-69 64 12 108 c7
72 16 113 27 125 28 31 11 49 -48 49 -81 0 -799 57 -806 64 -1 2 0 10 3 18 3
8 28 19 57 24 31 5 54 15 56 24 4 13 3 13 -10 2 -10 -8 -19 -9 -22 -3 -3 5 0
12 6 14 7 3 -4 6 -24 6 -28 1 -38 6 -43 22 -9 26 3 130 17 146 6 8 4 19 -6 35
-15 24 -29 112 -28 188 1 61 6 80 23 91 8 5 9 9 3 9 -12 0 -3 89 16 175 7 28
16 75 20 105 5 30 11 64 13 75 3 11 8 42 11 68 4 27 14 51 21 53 8 3 11 12 8
20 -6 17 16 155 28 169 4 6 10 27 12 46 5 48 17 67 29 45 5 -9 13 -14 17 -11
18 11 34 -26 28 -66 -4 -33 -2 -39 9 -35 9 4 19 -4 26 -19 6 -14 15 -25 20
-25 10 0 2 16 -21 43 -15 18 -14 21 12 43 16 13 37 24 48 24 23 0 24 9 4 36
-20 30 -8 36 21 11 14 -12 27 -37 30 -58 5 -31 11 -39 35 -44 18 -4 26 -11 23
-20 -3 -7 -1 -16 5 -20 7 -4 11 6 11 26 l0 32 25 -23 c14 -13 25 -21 25 -17 0
9 -46 52 -58 54 -6 2 -9 -4 -6 -12 7 -18 -17 -20 -34 -3 -7 7 -12 21 -12 31 0
16 3 17 15 7 10 -9 15 -9 15 -1 0 6 5 11 11 11 5 0 7 -6 3 -12 -5 -9 -2 -9 9
1 13 10 17 10 17 1 0 -9 3 -10 14 -1 7 6 21 9 30 5 12 -4 15 -2 10 9 -8 21 14
31 33 16 8 -7 25 -18 37 -24 11 -6 22 -21 22 -33 1 -12 4 -25 7 -29 9 -8 -12
-45 -23 -38 -4 3 -6 -5 -2 -17 4 -16 7 -18 10 -8 3 8 9 21 15 28 15 20 56 -23
52 -55 -2 -20 20 -83 29 -83 1 0 1 15 -1 33 -2 17 0 26 3 20 9 -20 24 -15 17
5 -3 9 -19 34 -35 55 -17 21 -27 41 -23 45 4 4 15 -4 24 -18 9 -14 26 -35 39
-48 12 -13 19 -28 16 -34 -4 -6 -2 -8 4 -4 11 7 202 -191 202 -210 0 -6 10
-19 22 -30 23 -19 23 -19 7 1 -9 11 -18 25 -20 31 -7 20 -63 85 -130 150 -51
49 -65 70 -62 87 3 15 -3 26 -19 36 l-23 14 20 -23 c14 -16 16 -22 5 -18 -8 2
-32 29 -52 58 -36 50 -48 77 -30 67 4 -3 8 11 9 30 2 46 20 68 41 51 13 -11
14 -11 7 1 -6 11 -4 13 8 8 19 -7 44 18 27 28 -5 3 -10 2 -10 -2 0 -5 -9 -9
-20 -10 -11 -1 -20 4 -20 12 0 17 70 31 80 15 4 -7 8 0 8 15 0 16 -4 22 -8 15
-5 -9 -9 -9 -14 -1 -4 6 -2 12 3 12 20 3 26 4 36 11 15 9 51 -24 47 -44 -2
-12 2 -15 17 -11 20 5 20 4 5 -27 -18 -36 -12 -49 12 -29 15 12 16 11 10 -9
-5 -15 -3 -24 7 -28 9 -3 26 -22 40 -42 14 -20 39 -52 56 -71 17 -19 31 -40
31 -47 0 -6 7 -18 17 -25 15 -13 15 -12 2 8 -16 26 -6 41 16 23 12 -10 19 -10
27 -2 18 18 28 14 28 -10 0 -21 0 -21 15 -2 14 18 14 18 15 -10 0 -21 -4 -27
-15 -22 -8 3 -15 2 -15 -2 0 -12 44 -49 67 -56 18 -6 23 -3 23 12 0 10 7 19
15 19 12 0 12 -3 2 -16 -10 -12 -9 -14 6 -8 13 5 21 0 29 -18 6 -14 15 -25 20
-25 10 0 2 16 -21 43 -14 17 -14 20 1 31 10 7 16 16 13 19 -3 4 -2 4 3 1 4 -3
8 -10 8 -15 1 -5 2 -12 3 -15 0 -4 8 -1 16 6 20 16 43 -6 37 -37 -2 -13 0 -23
6 -23 6 0 8 9 5 20 -4 17 -2 19 13 13 17 -6 18 -5 4 13 -8 10 -19 23 -25 27
-6 5 -4 7 6 4 16 -5 45 29 29 35 -5 2 -12 28 -15 58 l-6 55 27 -30 26 -30 -26
37 c-34 48 -33 51 9 31 23 -11 32 -20 25 -28 -5 -6 -7 -24 -5 -40 1 -18 -5
-41 -16 -57 -25 -34 -25 -34 13 -69 25 -22 28 -29 15 -29 -10 0 -15 -5 -12
-11 4 -6 14 -8 22 -4 9 3 24 -2 34 -11 14 -13 19 -14 19 -4 0 7 3 11 6 7 3 -3
-5 -21 -19 -39 -29 -39 -40 -68 -27 -68 6 0 10 5 10 12 0 9 3 9 12 0 9 -9 8
-15 -8 -27 -10 -8 -25 -15 -32 -15 -8 0 -12 -6 -9 -12 2 -7 12 -12 21 -10 15
3 16 0 6 -17 -6 -12 -7 -21 -1 -21 11 0 21 24 21 51 0 18 16 23 67 22 6 0 9 6
6 14 -5 13 -2 13 14 5 23 -13 34 -7 26 15 -4 10 -8 11 -13 3 -11 -18 -39 16
-33 40 6 22 23 17 23 -6 0 -8 4 -13 9 -9 5 3 17 -5 25 -17 17 -24 21 -42 8
-34 -4 2 -19 -4 -32 -15 -22 -17 -23 -19 -5 -16 11 1 25 6 32 10 6 4 14 3 18
-2 7 -12 35 -3 35 10 0 5 -6 9 -14 9 -7 0 -16 11 -18 25 -8 41 19 30 44 -17
21 -41 22 -42 28 -18 4 16 8 21 13 13 4 -7 15 -9 23 -6 14 5 14 2 -1 -27 -15
-28 -15 -32 -2 -27 9 3 18 -1 21 -10 5 -12 9 -13 21 -3 11 9 15 9 15 1 0 -7 4
-9 10 -6 5 3 10 -2 10 -12 1 -29 40 23 40 53 0 27 3 28 31 14 15 -9 19 -7 19
6 0 9 8 23 18 30 14 10 15 15 5 25 -15 15 -17 33 -4 25 5 -4 7 3 4 14 -3 11 0
20 6 20 6 0 12 -6 13 -12 0 -7 2 -17 3 -23 2 -5 3 -17 4 -25 1 -12 4 -12 17 2
15 15 15 18 -2 42 -11 14 -24 26 -31 26 -7 0 -22 13 -34 30 -28 38 -48 45 -66
23 -8 -10 -11 -12 -8 -5 4 8 2 12 -7 10 -18 -4 -66 34 -60 50 2 6 10 12 18 12
15 0 19 12 7 24 -4 4 -15 -3 -24 -15 -9 -12 -21 -19 -28 -15 -20 13 -12 36 17
48 41 17 54 18 48 3 -2 -7 1 -21 8 -31 12 -16 14 -15 21 14 4 20 11 30 18 25
7 -4 8 0 4 11 -4 11 -1 19 11 24 25 10 21 30 -13 68 -28 32 -51 40 -25 9 18
-22 4 -19 -30 7 -17 12 -30 31 -30 42 0 20 2 20 21 -4 13 -16 22 -21 25 -13 3
7 12 9 20 6 10 -4 13 1 11 16 -4 23 -17 41 -17 22 0 -7 -4 -10 -8 -7 -5 3 -8
15 -7 28 1 13 -2 28 -6 34 -5 6 0 20 12 33 20 21 22 21 40 5 25 -22 25 -10 0
15 -12 12 -21 15 -23 9 -3 -7 -15 -8 -32 -4 -26 6 -28 10 -22 39 4 18 16 41
27 52 l20 20 6 -24 6 -24 18 24 c10 13 19 18 19 11 0 -24 34 -52 50 -42 25 16
32 11 28 -20 -1 -16 2 -30 7 -30 6 -1 18 -9 29 -18 18 -16 18 -15 14 26 -3 34
0 43 14 48 19 6 25 24 8 24 -5 0 -10 4 -10 9 0 4 11 6 24 4 21 -4 24 -2 19 16
-4 15 -1 21 12 21 28 0 11 25 -20 28 -25 3 -27 1 -21 -22 5 -19 2 -26 -8 -26
-26 0 -37 25 -24 51 12 23 20 25 73 17 15 -2 20 3 20 25 1 20 -3 26 -13 22
-10 -4 -12 0 -7 12 14 36 33 108 32 126 0 10 -8 17 -19 17 -21 0 -23 -11 -6
-28 8 -8 9 -12 1 -12 -6 0 -14 6 -16 13 -4 8 -8 9 -14 1 -4 -6 -15 -14 -23
-17 -8 -3 3 -6 25 -7 22 -1 32 -4 23 -7 -11 -3 -18 -14 -18 -28 0 -18 -4 -23
-15 -18 -9 3 -14 8 -11 10 3 3 0 11 -7 18 -9 9 -16 9 -30 1 -14 -9 -20 -8 -27
4 -11 17 13 35 33 25 6 -4 2 2 -10 13 -12 11 -20 21 -18 24 2 2 -5 4 -15 4
-11 0 -20 -4 -20 -9 0 -5 -9 -5 -20 -2 -16 5 -20 2 -20 -14 0 -12 5 -21 10
-21 6 0 10 4 10 9 0 5 9 11 21 14 15 4 19 2 15 -10 -3 -8 -6 -18 -6 -23 0 -4
-8 -11 -17 -15 -15 -5 -16 -4 -5 6 23 24 12 32 -13 9 -26 -25 -29 -22 -25 31
1 30 -27 36 -47 10 -11 -14 -12 -14 -13 2 0 9 -4 17 -10 17 -5 0 -7 -6 -4 -14
3 -7 -6 -26 -20 -41 -26 -28 -35 -52 -16 -40 6 3 10 -1 10 -9 0 -20 -14 -21
-29 -2 -9 10 -8 16 4 26 17 14 20 56 6 65 -6 3 -14 -3 -20 -12 -9 -16 -10 -16
-11 5 0 12 -5 22 -11 22 -5 0 -8 -4 -5 -9 3 -5 -1 -15 -10 -22 -13 -10 -17
-10 -24 1 -5 8 -6 18 -4 22 3 4 -2 8 -10 8 -9 0 -16 -7 -16 -17 0 -20 -61 -76
-71 -66 -3 5 -9 20 -13 34 -6 25 -4 27 27 24 24 -2 34 1 34 12 0 17 -67 16
-79 -2 -5 -6 -8 -6 -8 3 0 6 -4 12 -10 12 -5 0 -10 -6 -10 -13 0 -7 -9 -18
-20 -25 -18 -11 -20 -10 -20 13 0 14 -4 25 -10 25 -5 0 -10 -9 -10 -20 0 -11
-4 -20 -10 -20 -5 0 -10 9 -10 20 0 17 -7 20 -44 20 -37 0 -45 -4 -51 -22 l-7
-23 -8 25 c-4 14 -8 19 -9 13 -1 -7 -8 -13 -17 -13 -8 0 -13 4 -10 9 4 5 -59
10 -149 10 l-155 2 20 -38 c11 -21 20 -45 19 -53 0 -10 -2 -11 -6 -2 -7 19
-23 14 -17 -5 4 -14 3 -15 -4 -5 -5 8 -12 13 -16 13 -20 -3 -26 1 -26 14 0 8
5 15 10 15 6 0 10 -5 10 -11 0 -6 7 -4 15 5 20 20 19 26 -5 21 -12 -2 -20 1
-19 8 4 37 3 37 -196 37 -131 0 -195 -3 -195 -11 0 -5 -4 -7 -10 -4 -5 3 -7 0
-5 -8 3 -7 -3 -22 -15 -32 -11 -10 -20 -14 -21 -9 -1 5 -4 -2 -8 -16 -6 -22
-9 -19 -20 28 -7 28 -17 52 -21 52 -4 0 -2 -21 6 -47 19 -62 18 -65 -16 -104
-16 -19 -30 -37 -30 -41 0 -5 -4 -8 -10 -8 -5 0 -10 11 -10 25 0 14 4 25 9 25
5 0 4 13 -2 30 -13 35 -4 48 20 29 16 -12 16 -11 -1 8 -10 12 -22 37 -26 55
-6 24 -8 27 -9 11 -1 -24 -21 -33 -21 -9 0 8 -7 17 -16 20 -9 3 -112 6 -230 6
l-214 0 0 -1280z m1029 1239 c3 -12 1 -12 -14 1 -17 14 -18 13 -12 -9 4 -17 3
-21 -5 -13 -13 13 -2 45 14 40 6 -2 14 -11 17 -19z m436 1 c13 -6 15 -9 5 -9
-8 0 -22 4 -30 9 -18 12 -2 12 25 0z m458 -18 c-6 -24 -24 -25 -31 -1 -3 11
-2 11 6 1 7 -11 11 -8 15 9 4 13 8 21 11 18 3 -3 3 -15 -1 -27z m-1472 -55
c11 -40 5 -77 -13 -77 -6 0 -6 -6 2 -15 8 -9 8 -15 2 -15 -6 0 -18 24 -28 53
-9 28 -21 57 -25 63 -10 13 -1 45 15 56 14 10 34 -17 47 -65z m809 69 c0 -3
-4 -8 -10 -11 -5 -3 -10 -1 -10 4 0 6 5 11 10 11 6 0 10 -2 10 -4z m110 0 c0
-3 -4 -8 -10 -11 -5 -3 -10 -1 -10 4 0 6 5 11 10 11 6 0 10 -2 10 -4z m424
-12 c9 -24 7 -28 -9 -14 -17 14 -20 30 -6 30 5 0 12 -7 15 -16z m-1031 -31
c-8 -21 -22 -5 -16 18 4 15 8 17 13 8 5 -7 6 -18 3 -26z m216 20 c0 -11 -3
-13 -6 -5 -9 22 -20 13 -17 -14 2 -20 0 -24 -9 -15 -17 17 -31 13 -17 -4 11
-13 10 -14 -4 -9 -9 3 -16 12 -16 20 0 8 0 17 0 22 0 4 4 7 9 7 5 0 13 3 17 8
14 14 44 7 43 -10z m-339 -3 c0 -5 -5 -10 -11 -10 -5 0 -7 5 -4 10 3 6 8 10
11 10 2 0 4 -4 4 -10z m1082 -8 c-7 -2 -12 -9 -12 -16 0 -6 -10 -20 -22 -30
-19 -16 -20 -17 -15 -1 4 9 7 21 7 26 0 6 4 8 9 4 5 -3 12 4 16 15 4 12 11 17
18 13 8 -5 8 -8 -1 -11z m34 3 c-3 -9 1 -18 9 -21 8 -3 11 -12 8 -21 -4 -9 -2
-14 3 -10 6 3 16 1 24 -4 13 -8 11 -13 -9 -29 -18 -16 -20 -20 -7 -20 10 0 15
-4 11 -9 -3 -5 -1 -12 4 -16 12 -7 3 -35 -10 -35 -5 0 -9 11 -9 25 0 31 -23
33 -44 3 -11 -15 -16 -17 -16 -8 0 17 19 50 20 35 0 -5 5 -2 11 8 13 22 2 37
-12 17 -7 -11 -8 -3 -4 25 7 48 14 75 22 75 3 0 2 -7 -1 -15z m124 5 c0 -5 -4
-10 -10 -10 -5 0 -10 5 -10 10 0 6 5 10 10 10 6 0 10 -4 10 -10z m-432 -24
c26 -9 28 -21 5 -35 -10 -6 -14 -11 -10 -11 5 0 5 -5 2 -10 -3 -6 -18 3 -32
20 -21 25 -23 33 -12 46 7 8 15 11 18 6 3 -5 16 -12 29 -16z m696 9 c-4 -8 -8
-15 -10 -15 -2 0 -4 7 -4 15 0 8 4 15 10 15 5 0 7 -7 4 -15z m-1406 -33 c-5
-2 1 -15 12 -29 24 -31 25 -43 4 -43 -9 0 -14 6 -11 13 3 8 0 14 -6 15 -46 4
-57 9 -67 31 -12 25 -12 26 9 7 18 -17 21 -17 21 -3 0 11 5 14 18 10 14 -5 15
-3 5 8 -20 21 -15 31 5 12 10 -10 14 -20 10 -21z m602 22 c0 -8 -5 -12 -10 -9
-6 4 -8 11 -5 16 9 14 15 11 15 -7z m-94 -11 c16 -21 18 -33 5 -33 -5 0 -16
11 -25 25 -19 29 -1 36 20 8z m348 -15 c6 -5 1 -8 -11 -8 -13 0 -23 6 -23 13
0 20 14 31 19 15 2 -7 9 -16 15 -20z m286 17 c0 -8 -4 -15 -10 -15 -5 0 -10 7
-10 15 0 8 5 15 10 15 6 0 10 -7 10 -15z m103 -8 c-1 -12 4 -17 14 -13 9 4 13
1 11 -6 -8 -23 -24 -18 -47 13 l-23 31 24 -4 c15 -2 22 -9 21 -21z m47 13 c0
-5 -7 -10 -16 -10 -8 0 -12 5 -9 10 3 6 10 10 16 10 5 0 9 -4 9 -10z m-1377
-28 c23 -20 22 -39 -4 -53 -20 -10 -21 -9 -17 14 3 16 0 28 -8 31 -8 3 -14 13
-14 21 0 17 12 13 43 -13z m1251 12 c3 -8 2 -12 -4 -9 -6 3 -10 10 -10 16 0
14 7 11 14 -7z m-1513 -44 c12 -26 14 -42 7 -46 -5 -4 -15 0 -20 7 -7 10 -11
11 -14 2 -3 -7 -11 -10 -19 -7 -11 5 -11 13 3 49 9 25 18 42 21 40 2 -3 12
-23 22 -45z m719 46 c0 -3 -4 -8 -10 -11 -5 -3 -10 -1 -10 4 0 6 5 11 10 11 6
0 10 -2 10 -4z m-243 -38 c-3 -7 -5 -2 -5 12 0 14 2 19 5 13 2 -7 2 -19 0 -25z
m93 2 c-12 -8 -10 -10 9 -10 19 0 22 -3 14 -11 -8 -8 -17 -7 -35 5 -12 9 -22
19 -21 23 3 13 28 22 38 12 6 -6 5 -13 -5 -19z m41 21 c7 11 9 10 9 -4 0 -20
-22 -19 -26 1 -2 9 -1 9 3 1 4 -8 8 -7 14 2z m74 -1 c3 -5 1 -10 -4 -10 -6 0
-11 5 -11 10 0 6 2 10 4 10 3 0 8 -4 11 -10z m85 1 c0 -5 3 -18 7 -28 6 -16 5
-16 -10 -4 -19 15 -23 41 -7 41 6 0 10 -4 10 -9z m464 -23 c-3 -45 -3 -45 -15
-24 -9 14 -8 20 2 27 8 5 10 9 6 9 -5 0 -5 5 -2 10 10 16 12 12 9 -22z m-497
-14 c-9 -9 -28 6 -21 18 4 6 10 6 17 -1 6 -6 8 -13 4 -17z m353 16 c0 -5 -5
-10 -11 -10 -5 0 -7 5 -4 10 3 6 8 10 11 10 2 0 4 -4 4 -10z m365 0 c3 -5 1
-10 -4 -10 -6 0 -11 5 -11 10 0 6 2 10 4 10 3 0 8 -4 11 -10z m92 4 c-3 -3
-12 -4 -19 -1 -8 3 -5 6 6 6 11 1 17 -2 13 -5z m-1022 -13 c3 -5 1 -12 -5 -16
-5 -3 -10 1 -10 9 0 18 6 21 15 7z m786 -1 c19 11 29 -3 10 -14 -4 -3 -6 -17
-3 -31 5 -28 -9 -33 -28 -10 -9 10 -9 15 -1 15 6 0 11 5 11 11 0 5 -4 7 -10 4
-6 -3 -10 4 -9 17 0 13 3 17 6 11 3 -9 10 -10 24 -3z m-470 -17 c11 -13 11
-15 1 -9 -9 5 -13 3 -11 -5 4 -35 -2 -43 -15 -19 -8 16 -9 29 -3 38 12 15 12
15 28 -5z m429 2 c0 -8 -4 -15 -10 -15 -5 0 -7 7 -4 15 4 8 8 15 10 15 2 0 4
-7 4 -15z m393 -7 c9 -31 2 -33 -17 -3 -13 20 -14 25 -2 25 7 0 16 -10 19 -22z
m-1354 -16 c-6 -3 -5 -9 2 -18 7 -8 9 -17 6 -20 -10 -10 -27 34 -21 51 5 13 8
14 15 3 5 -7 4 -14 -2 -16z m631 18 c0 -5 -4 -10 -10 -10 -5 0 -10 5 -10 10 0
6 5 10 10 10 6 0 10 -4 10 -10z m46 -5 c16 -12 16 -14 3 -15 -9 0 -22 7 -29
15 -16 19 0 19 26 0z m459 -4 c-3 -6 -11 -11 -16 -11 -5 0 -4 6 3 14 14 16 24
13 13 -3z m-1300 -63 c-5 -4 0 -8 12 -8 16 0 25 8 29 25 12 48 21 33 38 -62 2
-12 6 -26 9 -30 3 -5 2 -15 -3 -23 -8 -13 -12 -12 -27 3 -11 10 -13 17 -5 17
7 0 12 6 12 14 0 17 -39 48 -51 40 -5 -3 -18 10 -29 28 -18 30 -18 33 -2 51
16 19 17 18 22 -14 3 -19 1 -37 -5 -41z m345 57 c0 -8 -4 -15 -10 -15 -5 0
-10 7 -10 15 0 8 5 15 10 15 6 0 10 -7 10 -15z m989 -17 c-1 -18 -2 -19 -6 -5
-2 9 -9 14 -15 11 -7 -4 -8 -2 -4 4 12 20 26 13 25 -10z m-1395 -21 c-3 -9
-11 -17 -16 -17 -6 0 -5 6 2 15 6 8 8 20 4 27 -5 10 -4 10 5 2 6 -6 9 -18 5
-27z m781 23 c3 -5 1 -10 -4 -10 -6 0 -11 5 -11 10 0 6 2 10 4 10 3 0 8 -4 11
-10z m660 0 c3 -5 1 -10 -4 -10 -6 0 -11 5 -11 10 0 6 2 10 4 10 3 0 8 -4 11
-10z m-1537 -15 c2 -2 -4 -10 -12 -18 -9 -9 -17 -26 -19 -39 -2 -13 -12 -24
-23 -26 -14 -2 -16 -1 -5 6 9 7 10 12 2 16 -12 8 -15 58 -5 69 6 6 53 -1 62
-8z m1219 -12 c-3 -3 -11 -2 -17 2 -9 6 -9 10 1 16 14 8 27 -7 16 -18z m-1189
-13 c-1 -16 -7 -30 -12 -30 -5 0 -2 -6 8 -13 16 -12 16 -14 -4 -40 -12 -15
-26 -25 -31 -22 -12 8 -12 52 1 60 6 3 10 15 10 26 0 10 5 19 10 19 6 0 10 7
10 15 0 8 2 15 5 15 3 0 4 -13 3 -30z m480 -39 c-2 -28 -3 -29 -20 -14 -18 16
-25 39 -9 29 5 -3 11 1 15 9 3 8 1 15 -4 15 -6 0 -10 8 -10 17 0 15 3 14 15
-4 9 -12 14 -36 13 -52z m102 49 c0 -11 -7 -20 -15 -20 -18 0 -19 12 -3 28 16
16 18 15 18 -8z m540 16 c0 -3 -4 -8 -10 -11 -5 -3 -10 -1 -10 4 0 6 5 11 10
11 6 0 10 -2 10 -4z m-690 -21 c0 -8 -4 -15 -10 -15 -5 0 -7 7 -4 15 4 8 8 15
10 15 2 0 4 -7 4 -15z m174 0 c3 -8 1 -15 -4 -15 -6 0 -10 7 -10 15 0 8 2 15
4 15 2 0 6 -7 10 -15z m103 -7 c-3 -8 -6 -5 -6 6 -1 11 2 17 5 13 3 -3 4 -12
1 -19z m233 7 c-7 -9 -15 -13 -19 -10 -3 3 1 10 9 15 21 14 24 12 10 -5z
m-868 -27 c-6 -6 -12 -6 -17 3 -5 8 -4 10 3 5 7 -4 12 0 13 11 0 12 2 13 6 5
3 -8 1 -18 -5 -24z m258 -1 c0 -5 -10 -6 -22 -2 -20 5 -21 4 -5 -5 9 -6 17
-19 17 -28 0 -13 2 -14 9 -4 6 10 10 7 15 -13 7 -28 0 -49 -15 -40 -5 3 -6 -2
-2 -11 5 -12 3 -15 -6 -9 -7 4 -11 18 -8 31 2 13 0 21 -4 18 -5 -3 -9 6 -9 21
0 14 -7 28 -15 31 -8 4 -15 10 -15 16 0 5 4 7 9 4 5 -3 14 1 21 10 11 12 15
12 21 2 5 -7 9 -17 9 -21z m330 -6 c0 -6 5 -11 10 -11 6 0 10 -5 10 -10 0 -7
-6 -7 -20 0 -12 7 -20 7 -20 1 0 -5 9 -13 20 -16 24 -7 26 -33 5 -61 -11 -15
-15 -16 -15 -4 -1 8 -4 24 -6 35 -2 11 -7 40 -10 64 -5 40 -4 43 10 28 9 -8
16 -20 16 -26z m467 17 c-3 -8 -6 -5 -6 6 -1 11 2 17 5 13 3 -3 4 -12 1 -19z
m-153 -46 c-4 -4 -9 -1 -11 6 -3 6 -11 12 -19 12 -12 0 -13 4 -3 22 12 21 12
21 26 -6 8 -15 11 -31 7 -34z m206 43 c0 -8 -7 -15 -15 -15 -16 0 -20 12 -8
23 11 12 23 8 23 -8z m50 -5 c0 -11 -4 -20 -10 -20 -5 0 -10 9 -10 20 0 11 5
20 10 20 6 0 10 -9 10 -20z m76 -7 c-10 -10 -19 5 -10 18 6 11 8 11 12 0 2 -7
1 -15 -2 -18z m-546 -16 c0 -5 -4 -5 -10 -2 -5 3 -10 14 -10 23 0 15 2 15 10
2 5 -8 10 -19 10 -23z m44 -1 c-7 -17 -28 -18 -22 -1 2 6 7 9 12 7 5 -2 5 5 2
15 -5 13 -4 15 4 7 6 -6 8 -18 4 -28z m-234 14 c0 -5 -5 -10 -11 -10 -5 0 -7
5 -4 10 3 6 8 10 11 10 2 0 4 -4 4 -10z m40 0 c0 -5 -6 -10 -12 -10 -9 0 -9
-3 1 -9 8 -5 16 -18 17 -28 2 -10 5 -31 8 -47 7 -34 7 -34 -27 17 -22 32 -24
42 -15 63 11 24 28 33 28 14z m670 0 c0 -5 -5 -10 -11 -10 -5 0 -7 5 -4 10 3
6 8 10 11 10 2 0 4 -4 4 -10z m-1133 -20 c-1 -13 -8 -20 -21 -20 -18 0 -19 1
-1 20 10 11 19 20 21 20 1 0 2 -9 1 -20z m1470 -2 c-3 -8 -6 -5 -6 6 -1 11 2
17 5 13 3 -3 4 -12 1 -19z m-1071 -75 c-6 -6 -19 24 -30 67 -3 14 4 5 15 -18
11 -24 18 -46 15 -49z m187 81 c6 -6 -16 -34 -27 -34 -3 0 -6 9 -6 20 0 19 20
27 33 14z m127 -1 c0 -17 -19 -37 -27 -29 -4 5 -2 11 5 13 6 3 10 9 6 14 -3 5
0 9 5 9 6 0 11 -3 11 -7z m242 -24 c17 -29 17 -30 0 -27 -9 2 -17 8 -17 15 0
6 -3 15 -7 19 -5 4 -8 11 -8 16 0 17 16 7 32 -23z m58 21 c0 -5 -5 -10 -11
-10 -5 0 -7 5 -4 10 3 6 8 10 11 10 2 0 4 -4 4 -10z m-716 -13 c11 -10 10 -15
-2 -27 -14 -13 -15 -12 -9 3 3 9 2 17 -3 17 -6 0 -10 5 -10 10 0 14 9 13 24
-3z m70 -27 c7 -24 6 -24 -8 -6 -9 11 -16 27 -16 35 0 21 16 2 24 -29z m390
-19 c-8 -10 -24 14 -24 37 l1 27 13 -30 c7 -16 12 -32 10 -34z m296 43 c0 -2
-7 -4 -15 -4 -8 0 -15 4 -15 10 0 5 7 7 15 4 8 -4 15 -8 15 -10z m-1115 -4 c3
-5 1 -10 -4 -10 -6 0 -11 5 -11 10 0 6 2 10 4 10 3 0 8 -4 11 -10z m167 -12
c-7 -7 -12 -8 -12 -2 0 14 12 26 19 19 2 -3 -1 -11 -7 -17z m1039 12 c5 0 9
-4 9 -10 0 -16 -26 -12 -41 7 -12 15 -12 16 4 10 10 -4 23 -7 28 -7z m85 -6
c-3 -22 -10 -23 -35 -5 l-23 18 30 0 c19 0 29 -5 28 -13z m47 3 c2 -7 -4 -23
-14 -35 -19 -24 -59 -38 -59 -20 0 5 7 8 15 5 17 -7 24 2 27 37 2 27 22 35 31
13z m-1406 -61 c-2 -36 -9 -71 -16 -80 -11 -13 -9 -13 13 -3 14 7 26 16 26 20
0 5 -4 5 -10 2 -12 -7 -12 -3 -4 19 8 21 30 20 39 -1 7 -20 7 -23 0 -23 -10 1
-35 -28 -35 -39 0 -6 5 -11 10 -11 6 0 10 6 10 14 0 20 37 27 45 8 3 -8 0 -19
-7 -24 -10 -6 -8 -8 5 -8 9 0 17 5 17 10 0 19 37 10 60 -15 17 -18 19 -25 9
-26 -8 0 -23 -2 -34 -4 -11 -3 -25 2 -31 11 -10 12 -13 11 -18 -11 -8 -30 -21
-32 -36 -5 -6 11 -16 20 -22 20 -6 0 -16 7 -22 15 -15 21 -53 27 -60 9 -5 -12
-11 -11 -35 7 -17 12 -27 27 -24 33 3 6 0 5 -8 -2 -12 -11 -11 -15 4 -23 18
-11 24 -59 7 -59 -5 0 -10 5 -10 10 0 6 -6 10 -14 10 -7 0 -19 6 -25 14 -9 11
-8 15 5 20 13 5 14 9 4 21 -10 12 -9 15 6 16 11 0 14 3 7 6 -7 2 -13 10 -13
16 1 20 47 70 58 63 6 -3 8 2 5 13 -3 10 1 22 8 27 9 5 11 2 6 -9 -3 -8 1 -21
8 -27 15 -13 10 -34 -5 -25 -5 3 -7 -4 -5 -16 5 -25 15 -38 15 -20 0 18 46 82
53 74 4 -3 7 3 7 15 0 12 2 22 5 22 2 0 3 -29 2 -64z m373 53 c0 -5 5 -7 12
-3 7 4 8 3 4 -4 -4 -6 -13 -9 -21 -5 -17 6 -20 23 -5 23 6 0 10 -5 10 -11z
m-493 -29 c-11 -19 -27 -27 -27 -14 0 15 22 44 30 39 6 -4 5 -14 -3 -25z
m1073 19 c0 -5 -4 -9 -9 -9 -5 0 -8 -6 -7 -12 0 -7 -3 -14 -9 -15 -5 -2 -10 1
-10 6 0 5 -3 13 -7 17 -14 14 -8 22 17 22 14 0 25 -4 25 -9z m-816 -13 c11 4
13 0 9 -15 -3 -12 -12 -21 -19 -21 -8 0 -17 -7 -20 -15 -8 -20 15 -47 34 -40
8 3 21 -3 29 -12 10 -13 10 -9 -2 15 -16 32 -12 78 5 67 5 -3 7 -12 3 -21 -3
-8 -2 -14 3 -13 20 3 28 -2 15 -10 -9 -6 -11 -16 -7 -27 7 -17 9 -15 20 11 14
34 23 25 32 -33 4 -27 3 -42 -4 -42 -5 0 -8 -9 -5 -20 4 -14 0 -20 -12 -20
-11 0 -15 5 -11 15 3 10 -1 15 -11 15 -25 0 -91 49 -106 79 -7 15 -12 44 -9
64 4 32 7 35 22 27 10 -6 25 -7 34 -4z m438 -41 c-10 -20 -16 -13 -26 30 l-7
30 21 -21 c17 -17 20 -26 12 -39z m465 33 c-3 -8 -6 -5 -6 6 -1 11 2 17 5 13
3 -3 4 -12 1 -19z m118 12 c-3 -5 -12 -10 -18 -10 -7 0 -6 4 3 10 19 12 23 12
15 0z m95 0 c0 -5 -4 -10 -10 -10 -5 0 -10 5 -10 10 0 6 5 10 10 10 6 0 10 -4
10 -10z m-1185 -10 c3 -5 1 -10 -4 -10 -6 0 -11 5 -11 10 0 6 2 10 4 10 3 0 8
-4 11 -10z m215 -9 c0 -17 -28 -57 -35 -49 -9 11 -14 59 -6 54 5 -4 12 -2 16
4 10 17 25 11 25 -9z m75 9 c3 -5 1 -10 -4 -10 -6 0 -11 5 -11 10 0 6 2 10 4
10 3 0 8 -4 11 -10z m78 -16 c-4 -14 -43 -9 -43 6 0 5 10 8 23 6 12 -1 21 -7
20 -12z m252 -1 c-2 -10 -4 -22 -4 -28 -2 -14 -21 17 -21 33 0 6 6 12 14 12 8
0 13 -8 11 -17z m-475 -8 c0 -8 -2 -15 -4 -15 -2 0 -6 7 -10 15 -3 8 -1 15 4
15 6 0 10 -7 10 -15z m293 -35 c-6 -6 -33 30 -33 43 0 5 9 -1 19 -14 11 -13
17 -26 14 -29z m745 39 c-2 -6 7 -15 20 -20 18 -7 22 -5 22 12 0 12 4 17 11
13 6 -3 8 -17 5 -29 -5 -19 0 -26 24 -37 38 -16 39 -26 1 -20 -24 3 -29 0 -35
-22 -8 -31 -21 -33 -36 -6 -6 11 -17 20 -25 20 -8 0 -15 6 -15 14 0 7 -7 19
-15 26 -12 10 -15 10 -15 -4 0 -18 -2 -19 -24 -10 -9 3 -16 12 -16 20 0 16 48
16 69 0 12 -9 12 -7 2 12 -7 13 -10 26 -7 30 3 3 6 0 6 -6 0 -7 5 -12 10 -12
6 0 9 3 9 8 -2 12 1 22 6 22 3 0 4 -5 3 -11z m32 7 c0 -3 -4 -8 -10 -11 -5 -3
-10 -1 -10 4 0 6 5 11 10 11 6 0 10 -2 10 -4z m-530 -48 c0 -16 -3 -18 -14 -9
-8 6 -16 20 -19 31 -4 17 -2 18 14 9 10 -5 19 -19 19 -31z m310 21 c0 -6 -4
-7 -10 -4 -5 3 -10 11 -10 16 0 6 5 7 10 4 6 -3 10 -11 10 -16z m81 8 c-1 -12
-15 -9 -19 4 -3 6 1 10 8 8 6 -3 11 -8 11 -12z m44 -5 c-3 -3 -11 0 -18 7 -9
10 -8 11 6 5 10 -3 15 -9 12 -12z m-830 -2 c3 -5 1 -10 -4 -10 -6 0 -11 5 -11
10 0 6 2 10 4 10 3 0 8 -4 11 -10z m493 -19 c-6 -2 -4 -7 3 -12 11 -7 11 -9
-2 -9 -11 0 -16 8 -16 24 0 19 2 22 12 13 8 -7 9 -13 3 -16z m62 14 c0 -8 -2
-15 -4 -15 -2 0 -6 7 -10 15 -3 8 -1 15 4 15 6 0 10 -7 10 -15z m464 -7 c-3
-4 -1 -8 5 -8 5 0 13 5 16 10 3 6 16 10 28 9 l22 0 -22 -9 c-27 -11 -28 -18
-6 -49 16 -24 16 -24 -10 -19 -26 5 -37 -5 -17 -17 5 -3 7 -12 4 -20 -12 -30
-26 -1 -20 42 3 25 2 43 -1 39 -7 -7 -33 12 -33 25 0 4 9 7 19 6 11 0 17 -5
15 -9z m-1053 -48 c16 0 10 -20 -8 -27 -10 -4 -23 -14 -30 -22 -10 -14 -13
-12 -22 12 -14 36 -14 47 0 47 5 0 7 5 3 11 -4 8 0 9 15 4 16 -5 21 -2 22 12
1 10 4 6 6 -9 2 -16 9 -28 14 -28z m665 36 c19 -19 18 -26 -5 -26 -10 0 -21 9
-24 20 -6 23 8 26 29 6z m-357 -48 c10 -28 9 -30 -13 -22 -17 7 -23 44 -6 44
6 0 14 -10 19 -22z m241 12 c0 -5 -5 -10 -11 -10 -5 0 -7 5 -4 10 3 6 8 10 11
10 2 0 4 -4 4 -10z m50 -20 c0 -11 -4 -20 -9 -20 -5 0 -7 9 -4 20 3 11 7 20 9
20 2 0 4 -9 4 -20z m204 -26 c3 -9 6 -24 6 -35 0 -10 7 -19 15 -19 9 0 15 -9
15 -24 0 -13 3 -32 7 -42 5 -15 2 -16 -23 -10 -52 13 -135 56 -129 66 4 6 11
8 16 5 5 -4 9 6 9 22 l0 28 19 -23 c16 -22 19 -23 33 -8 9 9 14 24 11 36 -6
24 12 27 21 4z m23 -6 c-3 -8 -6 -5 -6 6 -1 11 2 17 5 13 3 -3 4 -12 1 -19z
m-514 -37 c3 -16 3 -40 -1 -55 l-7 -27 -18 31 c-10 16 -15 30 -10 30 4 0 2 4
-5 9 -10 6 -11 13 -1 34 14 32 34 22 42 -22z m597 16 c0 -4 5 -5 12 -1 7 4 8
3 4 -5 -4 -6 -12 -9 -17 -6 -5 4 -9 -5 -9 -19 0 -32 -3 -32 -34 -1 -19 19 -26
42 -17 62 3 5 61 -23 61 -30z m-505 13 c3 -5 2 -10 -4 -10 -5 0 -13 5 -16 10
-3 6 -2 10 4 10 5 0 13 -4 16 -10z m272 -29 c-1 -12 -6 -17 -16 -13 -9 4 -11
7 -4 9 7 3 9 11 6 20 -4 10 -2 14 5 9 6 -3 10 -15 9 -25z m371 -5 c-1 -19 -5
-33 -8 -31 -11 7 -10 65 1 65 5 0 9 -15 7 -34z m-1093 -17 c9 -16 11 -29 6
-29 -5 0 -14 12 -19 28 -6 15 -11 21 -11 14 -1 -7 -5 -11 -11 -7 -5 3 -7 12
-4 20 8 19 20 11 39 -26z m28 28 c3 -8 2 -19 -3 -26 -5 -10 -9 -8 -14 4 -3 9
-6 21 -6 26 0 14 17 11 23 -4z m-339 -12 c-6 -16 -24 -21 -24 -7 0 11 11 22
21 22 5 0 6 -7 3 -15z m976 -13 c0 -15 -2 -15 -10 -2 -13 20 -13 33 0 25 6 -3
10 -14 10 -23z m-1035 -31 c3 -5 1 -12 -5 -16 -5 -3 -10 1 -10 9 0 18 6 21 15
7z m1094 -66 c-2 -82 -7 -87 -26 -22 -10 33 -12 35 -8 10 5 -37 -16 -47 -34
-16 -7 14 -9 13 -8 -9 2 -21 6 -25 25 -22 12 3 22 0 22 -4 0 -5 -12 -9 -27 -8
-21 1 -28 7 -35 34 -5 17 -12 32 -17 32 -4 0 -8 13 -7 30 1 32 23 49 33 24 3
-8 11 -13 19 -10 7 3 15 0 18 -7 2 -7 5 -3 5 9 1 24 9 34 28 34 10 0 13 -18
12 -75z m201 33 c0 -14 -18 -9 -24 8 -11 28 -6 39 9 20 8 -11 15 -23 15 -28z
m156 -15 c-5 -63 -5 -63 -15 -63 -15 0 -68 49 -53 50 6 0 12 7 12 15 0 8 6 15
14 15 7 0 19 7 26 15 18 22 19 20 16 -32z m130 25 c13 -16 14 -19 2 -10 -13
10 -17 10 -20 0 -3 -7 -7 -3 -10 10 -8 28 4 28 28 0z m-375 -20 c1 -7 2 -22 2
-33 0 -17 6 -21 28 -19 19 1 29 -3 29 -12 0 -8 -9 -14 -19 -14 -11 0 -23 -5
-26 -10 -12 -19 -33 8 -27 35 2 14 -1 31 -7 38 -6 8 -8 17 -4 20 10 11 23 8
24 -5z m105 -30 c-9 -5 -16 -16 -16 -23 0 -8 -4 -15 -10 -15 -11 0 -13 20 -4
43 3 9 13 13 26 9 18 -4 18 -6 4 -14z m-526 -18 c0 -5 -2 -10 -4 -10 -3 0 -8
5 -11 10 -3 6 -1 10 4 10 6 0 11 -4 11 -10z m675 -62 c54 -49 56 -53 38 -66
-16 -13 -16 -14 0 -9 9 4 17 2 17 -3 0 -6 -13 -10 -30 -10 -24 0 -31 5 -37 28
-4 15 -6 36 -5 47 2 15 1 17 -7 6 -11 -17 -41 -8 -41 12 0 8 -7 20 -15 27 -8
7 -15 19 -15 27 0 20 27 4 95 -59z m-88 7 c0 -8 -7 -15 -15 -15 -12 0 -12 3
-2 15 7 8 13 15 15 15 1 0 2 -7 2 -15z m-133 -31 c3 -8 2 -12 -4 -9 -6 3 -10
10 -10 16 0 14 7 11 14 -7z m161 -4 c7 -12 -3 -50 -14 -50 -4 0 -8 14 -9 30
-2 29 11 40 23 20z m195 -45 c-7 -9 -15 -13 -19 -10 -3 3 1 10 9 15 21 14 24
12 10 -5z m-72 -49 c7 -4 20 -2 30 5 15 11 15 11 4 -1 -15 -17 -82 -20 -82 -4
0 12 29 12 48 0z m-248 -6 c0 -5 -4 -10 -10 -10 -5 0 -10 5 -10 10 0 6 5 10
10 10 6 0 10 -4 10 -10z m320 -20 c-20 -13 -40 -13 -40 0 0 6 12 10 28 10 21
0 24 -2 12 -10z m-416 -335 c-4 -8 -8 -15 -10 -15 -2 0 -4 7 -4 15 0 8 4 15
10 15 5 0 7 -7 4 -15z m-70 -33 c-9 -34 -20 -42 -66 -42 -29 0 -36 3 -32 15 4
8 13 15 21 15 9 0 13 6 10 14 -6 15 5 20 51 24 20 2 22 -1 16 -26z m1566 -1
c0 -16 -11 -19 -112 -26 -85 -6 -98 -5 -98 8 0 18 28 23 138 25 39 1 72 -2 72
-7z m-421 -32 c16 -46 14 -57 -14 -75 -32 -21 -39 -14 -24 19 6 14 8 38 5 53
-7 27 -7 27 -22 6 -10 -15 -13 -33 -8 -57 7 -39 0 -43 -28 -18 -39 35 -6 103
51 103 24 0 31 -6 40 -31z m-1110 0 c-16 -10 -23 -4 -14 10 3 6 11 8 17 5 6
-4 5 -9 -3 -15z m950 7 c9 -11 9 -20 2 -34 -7 -14 -6 -25 5 -41 14 -19 14 -22
-2 -28 -10 -4 -22 0 -29 10 -15 21 -25 22 -25 2 0 -8 -7 -15 -15 -15 -11 0
-15 13 -15 53 0 30 3 57 7 60 12 12 60 7 72 -7z m-134 -41 c0 -22 3 -45 8 -51
14 -22 -21 -23 -37 -1 l-15 22 0 -22 c-1 -14 -7 -23 -16 -23 -11 0 -15 13 -15
53 0 63 4 69 45 65 28 -3 30 -6 30 -43z m-115 20 c0 -9 -10 -15 -22 -16 -17
-1 -19 -2 -5 -6 21 -5 23 -33 2 -33 -8 0 -15 -4 -15 -10 0 -5 9 -10 20 -10 27
0 25 -16 -2 -24 -54 -14 -59 -10 -53 46 8 65 10 68 46 68 19 0 29 -5 29 -15z
m-112 -12 c2 -9 -7 -13 -27 -13 -28 0 -31 -3 -31 -31 0 -28 2 -31 25 -25 31 8
36 -19 5 -29 -30 -9 -57 3 -64 28 -9 34 -7 42 15 66 22 24 69 26 77 4z m-594
-15 c-4 -7 -8 -24 -9 -38 -3 -71 -6 -80 -20 -80 -13 0 -15 9 -10 53 9 69 12
77 30 77 10 0 13 -5 9 -12z m356 -27 c0 -31 4 -40 21 -44 32 -8 13 -27 -28
-27 -32 0 -35 2 -29 23 3 12 6 37 6 55 0 22 5 32 15 32 11 0 15 -11 15 -39z
m-70 20 c0 -5 -10 -12 -22 -16 -20 -6 -20 -8 -5 -12 21 -6 23 -23 2 -23 -8 0
-15 -4 -15 -10 0 -5 9 -10 20 -10 24 0 27 -15 4 -24 -44 -17 -54 -8 -54 49 l0
55 35 0 c19 0 35 -4 35 -9z m-188 -51 c15 -48 15 -50 -2 -50 -10 0 -21 6 -24
13 -3 8 -9 7 -20 -7 -8 -10 -19 -16 -24 -15 -13 5 28 109 42 109 7 0 19 -22
28 -50z m1396 28 c-5 -15 -128 -24 -128 -10 0 18 15 22 73 22 42 0 58 -3 55
-12z m-1668 -8 c0 -6 -10 -15 -22 -20 -18 -7 -19 -9 -5 -9 21 -1 23 -21 2 -21
-8 0 -15 -4 -15 -10 0 -5 9 -10 20 -10 30 0 24 -17 -7 -23 -39 -8 -47 4 -39
57 7 43 9 46 37 46 16 0 29 -5 29 -10z m93 -2 c2 -7 0 -21 -4 -30 -6 -10 -5
-19 1 -23 14 -8 13 -35 -1 -35 -7 0 -18 8 -25 18 -13 16 -13 16 -14 0 0 -10
-4 -18 -10 -18 -5 0 -10 23 -10 50 0 49 1 50 29 50 16 0 31 -6 34 -12z m-296
-34 c8 -22 -5 -61 -23 -68 -44 -17 -73 47 -38 85 13 14 21 16 36 8 10 -6 22
-17 25 -25z m91 24 c7 -7 8 -17 2 -28 -5 -9 -5 -22 1 -31 13 -20 11 -29 -6
-29 -8 0 -15 6 -16 13 0 10 -2 10 -6 0 -9 -24 -33 -14 -33 15 0 64 26 92 58
60z m-198 -9 c0 -6 -7 -17 -15 -25 -8 -9 -15 -26 -15 -40 0 -13 -4 -24 -10
-24 -5 0 -10 16 -10 35 0 19 -4 35 -10 35 -17 0 -11 18 8 23 32 9 52 7 52 -4z
m-102 -46 c-3 -52 -19 -65 -36 -31 l-11 23 0 -22 c-2 -44 -21 -23 -21 22 0 48
13 58 36 28 12 -17 13 -16 14 5 0 12 5 22 11 22 6 0 9 -19 7 -47z m-165 20
c-8 -3 -13 -22 -13 -44 0 -21 -4 -39 -10 -39 -5 0 -10 16 -10 35 0 19 -4 35
-10 35 -23 0 -8 19 18 22 29 4 45 -2 25 -9z m67 -5 c0 -34 -11 -68 -21 -68
-10 0 -12 73 -2 83 13 14 23 7 23 -15z m1793 -15 c-7 -2 -19 -2 -25 0 -7 3 -2
5 12 5 14 0 19 -2 13 -5z m-298 -24 c-132 -9 -265 -17 -295 -17 -30 1 44 9
165 18 121 10 254 17 295 17 41 0 -33 -8 -165 -18z m653 4 c2 -9 -8 -13 -32
-13 -37 0 -49 15 -18 23 26 7 45 3 50 -10z m170 -23 c2 -12 -2 -34 -9 -47 -11
-20 -19 -23 -53 -21 -39 3 -41 5 -44 40 -3 31 1 39 24 51 37 19 78 8 82 -23z
m-1468 -15 c0 -14 -4 -25 -10 -25 -5 0 -10 11 -10 25 0 14 5 25 10 25 6 0 10
-11 10 -25z m40 0 c0 -26 -14 -33 -25 -15 -9 14 1 40 15 40 5 0 10 -11 10 -25z
m-182 -10 c-1 -14 -6 -25 -10 -25 -4 0 -8 11 -8 25 0 14 4 25 10 25 5 0 9 -11
8 -25z m62 5 c0 -11 -4 -20 -10 -20 -5 0 -10 9 -10 20 0 11 5 20 10 20 6 0 10
-9 10 -20z m40 1 c0 -27 -17 -35 -23 -11 -5 19 0 30 15 30 4 0 8 -9 8 -19z
m290 13 c-59 -8 -140 -8 -140 -1 0 4 37 6 83 6 45 -1 71 -3 57 -5z m-542 -26
c-5 -32 -28 -35 -28 -4 0 17 5 26 16 26 10 0 14 -7 12 -22z m34 -3 c-5 -28
-22 -24 -22 6 0 10 6 19 14 19 9 0 12 -8 8 -25z m35 5 c1 -11 -2 -20 -5 -20
-4 0 -8 9 -9 20 -1 11 2 20 5 20 4 0 8 -9 9 -20z m48 0 c0 -8 -8 -16 -17 -18
-13 -2 -18 3 -18 18 0 15 5 20 18 18 9 -2 17 -10 17 -18z m-352 -17 c-7 -2
-19 -2 -25 0 -7 3 -2 5 12 5 14 0 19 -2 13 -5z m1167 -12 c0 -18 -12 -41 -22
-41 -6 0 -5 6 2 15 6 8 9 19 5 25 -3 5 -1 10 4 10 6 0 11 -4 11 -9z m68 -17
c1 -13 -3 -24 -9 -24 -5 0 -8 4 -4 9 10 17 -16 23 -28 7 -10 -14 -12 -13 -12
8 0 20 5 24 25 24 20 -1 26 -7 28 -24z m-367 -5 c-2 -8 -4 -20 -4 -26 0 -16
-47 -17 -47 -2 0 5 6 7 13 3 7 -5 7 -1 -2 10 -12 14 -12 19 -2 26 20 12 47 5
42 -11z m199 -4 c0 -23 -3 -25 -27 -19 -16 4 -30 8 -32 10 -6 5 10 24 20 24 6
0 8 -4 5 -9 -3 -5 0 -11 8 -14 10 -4 12 0 9 14 -3 10 0 19 6 19 6 0 11 -11 11
-25z m30 5 c0 -11 -2 -20 -4 -20 -2 0 -6 9 -9 20 -3 11 -1 20 4 20 5 0 9 -9 9
-20z m27 -12 c-3 -7 -5 -2 -5 12 0 14 2 19 5 13 2 -7 2 -19 0 -25z m-214 2
c-3 -11 -7 -20 -8 -20 -1 0 -5 9 -8 20 -3 12 0 20 8 20 8 0 11 -8 8 -20z m50
1 c3 -14 -1 -18 -19 -18 -28 0 -31 12 -6 26 9 6 18 11 18 11 1 0 4 -8 7 -19z
m-427 -38 c-2 -3 -9 -2 -15 2 -8 4 -7 13 1 28 l13 22 3 -23 c2 -13 1 -26 -2
-29z m62 36 c-2 -6 3 -14 11 -17 10 -3 12 0 8 12 -4 9 -2 16 3 16 12 0 13 -21
2 -35 -11 -15 -32 -17 -48 -4 -11 9 -14 8 -14 -1 0 -8 -2 -11 -5 -8 -3 3 -3
13 1 22 6 15 7 15 20 -1 12 -17 13 -16 7 5 -3 13 -1 22 6 22 6 0 10 -5 9 -11z
m-315 -11 c7 -21 -12 -48 -34 -48 -16 0 -19 5 -15 28 2 15 5 28 5 30 3 8 40 0
44 -10z m157 -4 c0 -8 5 -12 10 -9 6 4 8 11 5 16 -4 5 -1 9 5 9 7 0 9 -7 6
-16 -3 -9 -6 -19 -6 -23 0 -4 -8 -7 -18 -7 -12 0 -18 8 -18 23 0 13 4 23 8 23
4 0 8 -7 8 -16z m56 0 c-3 -9 -6 -18 -6 -20 0 -2 -5 -4 -11 -4 -8 0 -9 4 0 13
6 8 8 17 4 20 -3 4 -1 7 6 7 8 0 11 -6 7 -16z m-148 -25 c-3 -8 -7 -3 -11 10
-4 17 -3 21 5 13 5 -5 8 -16 6 -23z m23 8 c-10 -9 -11 -8 -5 6 3 10 9 15 12
12 3 -3 0 -11 -7 -18z m94 -73 c-19 -7 -358 -84 -372 -84 -10 0 -13 10 -11 38
l3 37 130 5 c176 8 262 9 250 4z m-628 -20 c-3 -3 -12 -4 -19 -1 -8 3 -5 6 6
6 11 1 17 -2 13 -5z m58 -4 c-3 -5 -10 -10 -16 -10 -5 0 -9 5 -9 10 0 6 7 10
16 10 8 0 12 -4 9 -10z m90 -10 c22 -24 15 -35 -17 -24 -29 10 -34 11 -54 13
-13 1 -14 4 -4 16 17 21 54 19 75 -5z m67 -16 l-4 -36 -24 28 c-30 38 -30 44
4 44 26 0 28 -2 24 -36z m585 14 c39 -14 45 -33 8 -26 -14 3 -25 1 -25 -3 0
-5 9 -9 19 -9 14 0 18 -5 14 -20 -6 -22 12 -28 20 -7 3 6 6 0 6 -14 1 -17 -6
-28 -21 -35 -13 -6 -17 -9 -10 -7 6 1 12 -2 12 -7 0 -6 -11 -10 -25 -10 -21 0
-25 -5 -25 -27 -1 -16 -5 -75 -10 -133 -7 -75 -6 -106 1 -109 7 -2 6 -7 -2
-12 -11 -7 -10 -9 4 -9 14 0 17 9 18 48 0 26 3 41 6 33 5 -11 7 -11 15 0 6 9
11 10 14 3 3 -7 26 -8 71 -2 46 5 69 4 74 -3 3 -6 11 2 17 19 8 23 7 32 -1 36
-7 2 -2 5 11 5 15 1 21 -3 16 -11 -5 -7 -2 -9 9 -5 8 3 43 9 76 13 34 3 61 12
62 18 0 6 4 2 9 -9 6 -17 9 -13 15 20 14 76 24 72 25 -11 0 -77 2 -86 40 -150
29 -51 40 -80 40 -111 0 -23 5 -45 11 -49 8 -4 9 0 4 15 -3 11 -3 30 0 41 12
38 25 9 25 -54 0 -54 -3 -64 -19 -69 -21 -5 -33 -51 -21 -81 10 -23 8 -25 14
30 1 6 9 19 19 28 16 17 17 16 17 -2 0 -11 -6 -23 -12 -26 -10 -5 -10 -7 0
-12 13 -6 17 -44 4 -44 -13 0 -24 -200 -13 -214 10 -11 -4 -265 -15 -275 -7
-7 -9 130 -5 254 3 78 -1 145 -8 145 -5 0 -12 -62 -15 -137 -10 -206 -25 -274
-21 -93 3 134 3 139 -6 60 -5 -47 -15 -138 -21 -203 -11 -118 -11 -118 -39
-124 -15 -3 -30 -11 -33 -19 -4 -11 -48 -14 -235 -14 -126 0 -236 -3 -245 -6
-39 -15 2 -39 86 -49 38 -5 76 -2 124 10 58 14 76 14 114 4 25 -7 70 -13 100
-14 94 -3 106 -5 126 -21 18 -14 18 -15 -6 -10 -14 3 -19 3 -12 0 6 -3 12 -12
12 -21 0 -12 9 -14 50 -8 58 8 110 -10 110 -37 0 -10 7 -18 16 -18 8 0 13 -4
10 -8 -3 -5 1 -9 9 -9 8 0 12 4 9 8 -7 12 38 15 79 6 23 -6 37 -15 37 -25 0
-8 -3 -12 -7 -9 -3 4 -12 2 -19 -4 -8 -7 -14 -7 -19 1 -3 5 -24 10 -46 10 -36
0 -39 -2 -25 -15 8 -8 19 -15 25 -15 6 0 11 -4 11 -10 0 -5 -7 -10 -15 -10 -8
0 -15 5 -15 11 0 7 -9 9 -21 6 -14 -4 -19 -2 -15 8 2 7 -2 16 -10 19 -10 4
-13 2 -8 -7 6 -9 5 -9 -7 0 -21 17 -94 7 -150 -22 -26 -13 -80 -31 -121 -40
-84 -20 -83 -19 -125 -44 -20 -13 -43 -18 -64 -16 -69 9 -10 -16 97 -41 122
-28 137 -32 144 -34 3 -1 12 -3 20 -4 82 -11 142 -36 88 -36 -27 -1 -61 -24
-50 -35 4 -4 -3 -5 -14 -1 -12 4 -34 2 -49 -4 -32 -12 -38 -9 -29 14 3 9 11
13 18 9 8 -4 8 -3 0 7 -7 7 -21 9 -34 5 -16 -5 -19 -9 -10 -15 7 -4 -5 -8 -29
-8 -39 -1 -55 11 -28 21 6 3 -9 3 -35 0 -31 -4 -48 -2 -48 5 0 6 6 13 13 16 6
3 -12 3 -40 0 -33 -3 -53 -1 -53 6 0 5 7 10 15 10 8 0 15 4 15 9 0 4 -20 4
-44 -2 -48 -11 -55 -24 -57 -111 l-1 -41 -8 39 c-4 22 -4 53 1 69 5 17 6 34 3
39 -3 4 10 15 28 23 l33 14 -32 1 c-18 0 -33 -3 -33 -7 0 -5 -17 -9 -38 -10
-30 -1 -34 0 -18 9 10 5 46 18 80 28 88 26 28 23 -77 -4 -48 -12 -90 -20 -93
-17 -3 3 30 18 73 32 43 15 68 28 55 28 -13 1 -32 -4 -43 -10 -22 -12 -55 -21
-81 -22 -10 -1 -18 -4 -18 -7 0 -3 -11 -5 -25 -5 -14 0 -25 3 -25 8 0 4 9 7
20 7 11 0 20 5 20 11 0 13 -78 2 -97 -13 -9 -8 -13 -6 -13 4 0 10 24 21 77 33
43 10 73 20 67 22 -6 2 -50 -6 -98 -17 -99 -23 -136 -25 -91 -6 27 12 22 13
-63 12 -94 -1 -120 8 -57 20 19 3 35 10 35 14 0 4 10 5 23 3 12 -2 33 1 47 6
23 10 23 11 -7 5 -17 -3 -34 -1 -37 4 -6 9 13 18 64 31 16 4 24 13 22 24 -2
11 4 17 16 17 11 0 31 6 45 13 24 13 24 13 6 29 -19 15 -19 16 12 28 l31 13
-24 13 c-21 12 -22 13 -3 15 17 1 16 2 -4 8 -22 6 -21 8 20 21 46 14 73 30 51
30 -7 0 -12 5 -12 10 0 6 6 10 14 10 16 0 29 42 16 50 -6 3 -9 35 -7 71 2 60
1 64 -21 67 -19 3 -21 6 -11 18 9 11 15 12 26 2 12 -10 14 -4 11 40 -2 33 -8
52 -15 52 -7 0 -13 11 -13 24 0 13 -3 32 -7 42 -5 13 -3 16 10 11 10 -4 17 0
20 11 3 12 5 9 6 -7 1 -16 -3 -22 -13 -18 -10 4 -13 1 -10 -9 15 -50 15 -49
24 -34 8 13 15 120 7 120 -1 0 -17 -4 -35 -9 -26 -8 -32 -7 -32 6 0 13 -2 14
-17 2 -14 -12 -16 -12 -8 0 6 11 4 13 -9 8 -9 -4 -38 -2 -64 3 l-47 11 12 162
c11 149 39 332 52 349 3 4 5 -7 4 -25 -1 -18 -2 -32 -3 -32 -1 0 -4 -21 -6
-47 l-4 -48 42 2 c24 1 37 3 30 6 -24 8 9 32 44 32 28 0 34 -4 34 -22 1 -48
21 11 26 74 5 80 14 88 14 13 0 -139 13 -6 36 358 6 107 7 108 71 85z m323
-58 l25 -8 -25 0 c-14 0 -36 4 -50 8 l-25 8 25 0 c14 0 36 -4 50 -8z m-1934
-29 c-4 -6 -14 -7 -23 -4 -15 6 -14 7 3 13 22 9 29 6 20 -9z m1684 10 c0 -5 8
-11 18 -13 12 -3 9 -6 -10 -10 -23 -4 -28 -2 -28 13 0 11 5 19 10 19 6 0 10
-4 10 -9z m43 -38 c-7 -2 -19 -2 -25 0 -7 3 -2 5 12 5 14 0 19 -2 13 -5z
m1316 -48 c3 -16 1 -17 -11 -7 -11 9 -19 8 -36 -3 -11 -9 -23 -11 -26 -7 -7
11 -96 15 -96 4 0 -13 -24 -10 -38 5 -11 11 -4 13 40 14 29 1 67 5 83 9 48 13
79 7 84 -15z m-1362 -21 c-3 -3 -12 -4 -19 -1 -8 3 -5 6 6 6 11 1 17 -2 13 -5z
m-1742 -14 c3 -5 1 -10 -4 -10 -6 0 -11 5 -11 10 0 6 2 10 4 10 3 0 8 -4 11
-10z m1848 -5 c0 -6 -7 -11 -16 -11 -16 -2 -16 -1 -1 3 14 4 15 7 3 15 -11 7
-11 9 -1 6 8 -2 14 -8 15 -13z m-1791 -35 c3 -20 0 -30 -9 -30 -8 0 -13 13
-13 36 0 41 16 38 22 -6z m2791 31 c4 -1 7 -6 7 -12 0 -5 -5 -7 -11 -3 -8 4
-9 -1 -5 -17 7 -24 7 -24 -10 -4 -16 20 -16 20 -11 -2 3 -16 1 -23 -9 -23 -7
0 -11 6 -8 13 3 8 -2 20 -11 27 -20 16 -2 31 30 25 11 -2 23 -4 28 -4z m-2733
-16 c10 -13 15 -13 21 -3 5 8 11 4 18 -15 6 -16 11 -33 11 -38 0 -16 -28 -10
-34 8 -6 15 -8 15 -16 3 -12 -19 -18 -12 -25 28 -6 34 5 41 25 17z m2490 11
c0 -2 -7 -7 -16 -10 -8 -3 -12 -2 -9 4 6 10 25 14 25 6z m-2623 -38 c-3 -7 -5
-2 -5 12 0 14 2 19 5 13 2 -7 2 -19 0 -25z m1920 26 c-3 -3 -12 -4 -19 -1 -8
3 -5 6 6 6 11 1 17 -2 13 -5z m1178 -6 c34 -15 32 -28 -6 -28 -16 0 -28 -4
-25 -8 2 -4 1 -14 -4 -22 -8 -12 -14 -10 -36 11 -29 30 -25 56 6 39 25 -13 30
-13 30 5 0 18 2 18 35 3z m-2846 -8 c10 0 11 -3 2 -14 -6 -7 -9 -21 -5 -30 4
-11 1 -16 -10 -16 -10 0 -16 8 -16 21 0 12 -8 28 -17 36 -17 13 -16 14 7 9 14
-3 31 -6 39 -6z m1734 3 c-7 -2 -19 -2 -25 0 -7 3 -2 5 12 5 14 0 19 -2 13 -5z
m-66 -9 c-3 -3 -12 -4 -19 -1 -8 3 -5 6 6 6 11 1 17 -2 13 -5z m-1585 -21 c27
-24 23 -53 -7 -53 -26 0 -50 32 -41 56 7 19 25 18 48 -3z m1668 13 c0 -2 -9
-6 -20 -9 -11 -3 -20 -1 -20 4 0 5 9 9 20 9 11 0 20 -2 20 -4z m22 -18 c-5 -5
-18 -8 -28 -5 -15 4 -14 5 4 6 15 1 21 5 16 13 -5 7 -3 8 5 3 8 -5 9 -11 3
-17z m932 13 c3 -5 -3 -11 -14 -14 -20 -5 -35 5 -23 17 9 9 31 7 37 -3z
m-2529 -39 c12 -28 35 -29 28 -2 -4 15 0 20 15 20 12 0 24 -4 27 -10 3 -5 0
-10 -7 -10 -9 0 -9 -3 2 -10 8 -5 11 -10 5 -10 -12 0 16 -20 28 -20 5 0 5 9 2
20 -5 15 -2 20 13 20 20 0 46 -23 37 -32 -3 -3 1 -11 10 -18 18 -15 21 1 5 31
-8 13 -7 19 0 19 6 0 18 -16 26 -35 8 -20 19 -33 25 -29 6 3 8 12 5 20 -9 23
21 16 38 -8 18 -26 22 -58 5 -41 -5 5 -22 8 -36 5 l-26 -5 28 -11 27 -11 -51
-27 c-44 -22 -57 -25 -84 -16 -18 5 -74 21 -125 36 -51 14 -91 30 -89 36 8 23
88 28 179 11 131 -24 118 -12 -17 15 -63 13 -119 26 -124 29 -5 3 -6 20 -4 38
4 27 8 31 27 24 11 -4 25 -18 31 -29z m1518 31 c-7 -2 -21 -2 -30 0 -10 3 -4
5 12 5 17 0 24 -2 18 -5z m14 -19 c-3 -3 -12 -4 -19 -1 -8 3 -5 6 6 6 11 1 17
-2 13 -5z m888 -24 c3 -5 1 -10 -4 -10 -6 0 -11 5 -11 10 0 6 2 10 4 10 3 0 8
-4 11 -10z m-2107 -55 c-3 -3 -9 2 -12 12 -6 14 -5 15 5 6 7 -7 10 -15 7 -18z
m1887 15 c-3 -5 -31 -10 -61 -10 -34 0 -53 4 -49 10 3 6 31 10 61 10 34 0 53
-4 49 -10z m-1097 -97 c-21 -2 -55 -2 -75 0 -21 2 -4 4 37 4 41 0 58 -2 38 -4z
m-1530 -10 c-11 -3 -18 -17 -21 -41 l-4 -37 -1 43 c-2 38 0 42 21 41 16 -1 17
-3 5 -6z m464 -8 c154 -23 154 -24 137 -40 -13 -13 -36 -11 -179 13 -164 27
-169 29 -73 41 7 0 59 -6 115 -14z m2203 -214 c-4 -127 -11 -245 -16 -263 -10
-37 -3 340 7 435 13 113 16 53 9 -172z m-2618 213 c-3 -3 -12 -4 -19 -1 -8 3
-5 6 6 6 11 1 17 -2 13 -5z m1486 -21 c-7 -2 -19 -2 -25 0 -7 3 -2 5 12 5 14
0 19 -2 13 -5z m-1140 -21 c15 -7 16 -9 2 -29 -19 -27 -61 -37 -97 -22 -25 10
-31 10 -39 -2 -12 -19 -12 3 1 35 9 24 15 26 62 25 29 0 61 -4 71 -7z m2397
-32 c0 -22 -5 -40 -10 -40 -7 0 -8 13 -4 36 5 29 4 36 -7 32 -8 -2 -15 -19
-17 -36 -4 -44 -22 -41 -22 4 0 21 -4 33 -10 29 -5 -3 -10 -1 -10 4 0 6 18 11
40 11 l40 0 0 -40z m-2770 26 c0 -3 -4 -8 -10 -11 -5 -3 -10 -1 -10 4 0 6 5
11 10 11 6 0 10 -2 10 -4z m1410 -6 c0 -5 -5 -10 -11 -10 -5 0 -7 5 -4 10 3 6
8 10 11 10 2 0 4 -4 4 -10z m1420 -31 c0 -17 -4 -28 -10 -24 -5 3 -7 12 -3 20
3 8 0 15 -6 15 -6 0 -11 -9 -11 -20 0 -11 -4 -20 -10 -20 -5 0 -10 14 -10 30
0 25 4 30 25 30 21 0 25 -5 25 -31z m28 1 c-1 -16 -4 -27 -8 -25 -10 6 -9 55
1 55 4 0 7 -13 7 -30z m70 4 c2 -11 -4 -27 -14 -34 -14 -12 -18 -12 -30 4 -10
14 -10 24 -3 38 13 24 43 19 47 -8z m-2908 7 c0 -5 12 -14 28 -19 24 -9 24
-11 5 -11 -12 -1 -29 -11 -37 -23 -9 -12 -16 -18 -16 -14 0 5 7 18 17 28 16
18 10 23 -25 19 -6 -1 -20 3 -30 9 -14 8 -12 9 11 4 17 -4 27 -2 27 5 0 6 5
11 10 11 6 0 10 -4 10 -9z m2944 1 c-7 -4 -14 -16 -17 -27 -4 -15 -5 -14 -6 8
-1 20 4 27 17 27 11 0 13 -3 6 -8z m66 -13 c0 -5 -7 -9 -15 -9 -9 0 -12 6 -9
15 6 15 24 11 24 -6z m22 -4 c-2 -14 -6 -25 -8 -25 -2 0 -4 11 -4 25 0 14 4
25 9 25 4 0 6 -11 3 -25z m35 -22 c-3 -10 -5 -2 -5 17 0 19 2 27 5 18 2 -10 2
-26 0 -35z m63 32 c0 -8 -5 -15 -11 -15 -5 0 -8 4 -4 9 3 5 -3 12 -12 14 -14
4 -13 5 5 6 13 1 22 -5 22 -14z m-533 -42 c-3 -10 -5 -2 -5 17 0 19 2 27 5 18
2 -10 2 -26 0 -35z m376 27 c3 -11 1 -20 -4 -20 -5 0 -9 9 -9 20 0 11 2 20 4
20 2 0 6 -9 9 -20z m121 -16 c3 -8 2 -12 -4 -9 -6 3 -10 10 -10 16 0 14 7 11
14 -7z m-3011 -1 c-7 -2 -13 -14 -13 -25 0 -17 -2 -18 -15 -8 -18 15 -3 40 24
39 10 0 11 -2 4 -6z m3047 -3 c0 -5 -4 -10 -10 -10 -5 0 -10 5 -10 10 0 6 5
10 10 10 6 0 10 -4 10 -10z m-2984 -16 c-9 -8 -16 -29 -16 -45 0 -31 16 -40
22 -11 3 15 5 15 15 -4 11 -19 9 -21 -32 -21 -39 -1 -42 1 -30 14 8 8 15 20
14 26 0 9 -2 8 -6 0 -8 -22 -21 -14 -19 12 0 16 6 23 14 20 6 -2 12 0 12 4 0
5 -6 12 -12 14 -7 3 2 6 20 6 30 1 32 0 18 -15z m54 -11 c0 29 54 23 68 -8 7
-14 12 -32 12 -39 0 -25 29 -41 50 -28 16 10 18 9 14 -3 -6 -16 -39 -21 -48
-7 -3 5 -25 7 -50 5 -26 -2 -47 1 -52 8 -4 8 0 9 15 4 16 -5 21 -2 21 12 1 17
1 17 11 1 5 -10 15 -18 21 -18 7 0 6 5 -2 15 -6 8 -9 18 -6 24 10 16 -5 41
-25 41 -10 0 -18 -3 -18 -7 1 -5 1 -19 -1 -33 -1 -23 -2 -23 -9 -5 l-8 20 -5
-20 c-5 -16 -6 -15 -7 7 0 14 -4 35 -7 45 -3 10 2 7 10 -7 12 -19 15 -21 16
-7z m-35 -2 c3 -5 1 -12 -5 -16 -5 -3 -10 1 -10 9 0 18 6 21 15 7z m170 -1 c3
-6 -1 -7 -9 -4 -18 7 -21 14 -7 14 6 0 13 -4 16 -10z m-98 -22 c-3 -8 -6 -5
-6 6 -1 11 2 17 5 13 3 -3 4 -12 1 -19z m-233 -28 c-6 -5 -24 21 -24 34 0 6 6
1 14 -10 8 -10 12 -21 10 -24z m47 25 c19 6 21 5 13 -5 -15 -15 -46 -9 -51 10
-4 12 -3 12 5 1 6 -8 18 -11 33 -6z m2680 6 c-33 -9 -38 -28 -9 -34 l23 -4
-22 -8 c-28 -9 -30 -25 -3 -25 11 0 20 -4 20 -10 0 -5 -13 -10 -30 -10 -29 0
-30 1 -30 50 l0 50 38 -1 c31 -1 33 -2 13 -8z m72 -84 c15 -3 12 -5 -10 -6
-32 -1 -33 0 -33 42 0 59 14 70 18 14 3 -38 7 -46 25 -50z m124 72 c-35 -20
-9 -90 28 -75 9 3 13 2 10 -4 -19 -31 -80 17 -70 53 8 24 35 50 44 41 3 -3 -2
-10 -12 -15z m50 5 c-3 -3 -12 -4 -19 -1 -8 3 -5 6 6 6 11 1 17 -2 13 -5z m66
-1 c-27 -5 -31 -32 -5 -34 16 -1 16 -2 0 -6 -26 -7 -22 -41 5 -46 19 -4 18 -4
-5 -6 -27 -1 -28 1 -28 49 0 48 1 50 28 49 23 -2 24 -2 5 -6z m107 -8 c10 -12
10 -18 1 -29 -9 -11 -10 -20 -1 -38 l11 -23 -20 23 c-24 27 -27 27 -34 0 -10
-38 -17 -14 -11 35 7 50 29 63 54 32z m63 -15 c-4 -15 0 -20 16 -20 23 0 29
25 9 33 -8 3 -6 6 5 6 18 1 24 -33 7 -44 -6 -4 -4 -16 6 -33 l16 -27 -24 28
c-29 33 -35 34 -41 5 -2 -13 -5 -2 -6 25 0 26 3 47 8 47 5 0 7 -9 4 -20z
m-3138 0 c4 -6 -7 -10 -27 -9 -31 1 -32 1 -8 9 14 4 26 8 27 9 1 1 5 -3 8 -9z
m247 1 c8 11 9 11 6 1 -4 -16 -22 -18 -25 -2 -1 7 0 6 4 -1 4 -8 8 -7 15 2z
m611 -12 c10 -6 14 -15 11 -21 -4 -6 -3 -8 3 -5 14 9 46 -29 50 -59 3 -19 -1
-24 -19 -25 l-23 -2 23 -4 c12 -2 22 -11 22 -19 0 -15 -16 -19 -24 -5 -3 5
-15 11 -27 14 -15 4 -19 2 -15 -9 5 -12 0 -11 -25 3 -21 12 -26 19 -15 21 24
5 13 46 -13 50 -22 3 -22 4 -4 18 17 13 16 14 -7 13 -44 -3 -58 1 -64 18 -4 9
-1 20 6 25 15 10 94 1 121 -13z m-566 -11 c-3 -8 -6 -5 -6 6 -1 11 2 17 5 13
3 -3 4 -12 1 -19z m-397 -13 c5 -14 6 -34 2 -45 -8 -21 -8 -21 -30 -2 -26 23
-27 30 -5 54 21 23 22 23 33 -7z m71 5 c6 -56 3 -65 -21 -65 -19 0 -26 6 -28
23 -2 13 -1 30 2 38 6 16 45 19 47 4z m49 -35 c0 -24 -5 -35 -15 -35 -15 0
-22 50 -8 63 15 15 23 5 23 -28z m90 -10 c0 -34 -13 -47 -23 -22 -5 13 9 57
18 57 3 0 5 -16 5 -35z m57 0 c-4 -35 -8 -40 -29 -33 -8 3 -7 10 2 27 7 15 8
21 1 17 -6 -4 -11 0 -11 8 0 9 9 16 20 16 17 0 20 -5 17 -35z m51 27 c9 -6 10
-16 1 -40 -6 -18 -15 -32 -20 -32 -11 0 -11 3 1 34 6 17 6 26 0 26 -6 0 -10 5
-10 10 0 12 10 13 28 2z m62 -12 c0 -5 -5 -10 -12 -10 -9 0 -9 -3 0 -12 19
-19 14 -38 -10 -38 -19 0 -20 2 -8 11 11 8 12 12 3 16 -21 8 -15 43 7 43 11 0
20 -4 20 -10z m-220 -20 c0 -5 -7 -10 -15 -10 -8 0 -15 5 -15 10 0 6 7 10 15
10 8 0 15 -4 15 -10z m2130 1 c0 -5 -7 -11 -15 -15 -22 -8 -18 -29 10 -60 14
-15 25 -22 25 -15 0 7 3 10 6 6 3 -3 1 -13 -4 -23 -9 -16 -10 -15 -16 4 -10
31 -36 28 -36 -3 0 -16 6 -25 15 -25 18 0 19 -12 3 -28 -7 -7 -8 -12 -2 -12 5
0 2 -5 -6 -10 -13 -8 -12 -10 3 -10 9 0 17 -4 17 -10 0 -5 -10 -10 -23 -10
-32 0 -52 40 -52 104 0 70 20 116 51 116 13 0 24 -4 24 -9z m-1190 -72 c0 -4
-9 -7 -20 -6 -14 1 -20 8 -20 26 0 23 1 24 20 6 11 -10 20 -22 20 -26z m-215
20 c-4 -5 -1 -9 4 -9 6 0 11 -4 11 -10 0 -5 -11 -10 -25 -10 -31 0 -36 35 -5
37 11 1 18 -2 15 -8z m432 -41 c-3 -7 -5 -2 -5 12 0 14 2 19 5 13 2 -7 2 -19
0 -25z m-1117 -39 c0 -5 -9 -9 -20 -9 -19 0 -26 11 -14 23 8 8 34 -3 34 -14z
m63 -4 c-5 -14 -33 -16 -33 -3 0 5 -4 6 -10 3 -5 -3 -10 -1 -10 5 0 5 13 9 29
8 17 -1 27 -7 24 -13z m83 3 c3 -4 12 -4 19 -2 7 3 16 1 19 -4 3 -5 -21 -10
-54 -11 -48 -1 -59 1 -54 13 5 14 56 17 70 4z m89 3 c-3 -5 -1 -12 4 -15 5 -4
12 -2 15 2 5 9 42 8 85 -2 50 -12 33 -18 -37 -13 -41 3 -76 8 -79 11 -5 5 5
26 13 26 3 0 3 -4 -1 -9z m179 -12 c-4 -8 1 -9 16 -4 28 9 110 -3 110 -16 0
-10 -128 -4 -138 6 -5 4 7 25 14 25 3 0 2 -5 -2 -11z m-444 -37 c14 -2 46 -3
73 -2 27 1 47 -3 47 -9 0 -18 -157 -14 -163 3 -6 16 4 30 12 19 3 -5 17 -9 31
-11z m180 -14 c0 -16 -3 -19 -11 -11 -6 6 -8 16 -5 22 11 17 16 13 16 -11z
m80 1 c3 0 13 -1 23 0 9 1 17 -1 17 -6 0 -4 -25 -9 -55 -10 -39 -1 -55 2 -55
12 0 11 44 14 70 4z m183 -6 c-5 -14 -4 -16 8 -7 19 14 91 12 96 -3 4 -10 -12
-13 -56 -13 -44 0 -61 4 -61 13 0 12 9 27 16 27 2 0 0 -8 -3 -17z m-73 -5 c0
-12 -48 -10 -55 2 -4 6 5 10 24 8 17 -1 31 -6 31 -10z m40 2 c0 -5 -4 -10 -10
-10 -5 0 -10 5 -10 10 0 6 5 10 10 10 6 0 10 -4 10 -10z m930 -30 c0 -5 -5
-10 -11 -10 -5 0 -7 5 -4 10 3 6 8 10 11 10 2 0 4 -4 4 -10z m734 -154 c-6
-112 -9 -130 -24 -121 -12 7 -9 88 5 98 6 4 5 10 -3 15 -9 6 -12 23 -8 53 2
24 5 55 6 69 1 24 1 24 15 6 11 -14 13 -42 9 -120z m494 119 c3 -3 -7 -5 -21
-5 -15 0 -27 4 -27 9 0 10 38 7 48 -4z m-268 -74 c0 -16 7 -34 15 -41 14 -12
15 -9 10 18 -4 24 -2 32 10 32 17 0 17 -1 17 -122 1 -79 3 -88 19 -88 11 0 19
-7 19 -15 0 -11 -11 -15 -37 -16 -21 0 -32 -3 -26 -6 14 -5 8 -48 -10 -70 -6
-9 -5 -13 4 -13 8 0 4 -8 -9 -20 -12 -11 -35 -20 -53 -20 -38 0 -110 19 -124
33 -7 7 -3 8 9 3 11 -4 41 -9 68 -11 55 -6 50 -17 53 120 3 120 16 245 26 245
5 0 9 -13 9 -29z m-1107 -8 c-7 -2 -19 -2 -25 0 -7 3 -2 5 12 5 14 0 19 -2 13
-5z m154 -45 c-3 -8 -6 -5 -6 6 -1 11 2 17 5 13 3 -3 4 -12 1 -19z m-172 -28
c3 -5 -1 -21 -10 -34 -10 -15 -14 -33 -10 -46 9 -29 22 -25 29 10 3 17 11 30
17 30 14 0 3 -70 -13 -85 -8 -7 -9 -6 -3 3 4 9 2 12 -7 10 -24 -5 -57 38 -52
69 8 43 34 67 49 43z m-1145 -102 c0 -10 3 -9 9 1 7 11 11 9 21 -9 10 -20 10
-21 -8 -16 -19 6 -72 -26 -72 -45 0 -5 9 0 20 11 13 13 26 17 37 12 15 -6 13
-8 -9 -10 -16 -2 -28 -8 -28 -14 0 -6 -7 -16 -16 -23 -14 -9 -14 -16 -5 -34
11 -20 13 -20 28 -6 8 9 22 14 29 11 13 -5 19 11 15 42 -2 17 14 15 29 -3 18
-22 -2 -62 -36 -75 -20 -8 -32 -7 -50 5 -13 8 -29 13 -36 12 -7 -2 -10 -2 -5
0 13 8 7 23 -10 23 -15 0 -14 2 3 15 17 13 17 14 2 15 -11 0 -15 5 -12 15 4 8
11 12 17 8 6 -4 8 0 4 11 -5 11 2 25 20 42 28 26 53 32 53 12z m2843 -55 c-7
-2 -19 -2 -25 0 -7 3 -2 5 12 5 14 0 19 -2 13 -5z m-2743 -57 c-6 -16 -15 -24
-21 -20 -7 4 -9 0 -5 -14 5 -14 -2 -27 -24 -46 -32 -27 -69 -32 -105 -15 -15
7 -10 8 22 5 23 -2 42 -1 41 2 -1 4 12 22 30 41 18 18 32 41 33 50 0 12 2 11
8 -4 7 -17 9 -15 16 15 4 19 10 30 12 24 2 -6 -1 -23 -7 -38z m1977 18 c-3 -3
-12 -4 -19 -1 -8 3 -5 6 6 6 11 1 17 -2 13 -5z m-2107 -14 c0 -5 -5 -10 -11
-10 -5 0 -7 5 -4 10 3 6 8 10 11 10 2 0 4 -4 4 -10z m1956 0 c32 -6 74 -13 92
-16 18 -3 30 -9 27 -14 -6 -10 -33 -7 -125 16 -100 24 -97 31 6 14z m197 3
c-7 -2 -19 -2 -25 0 -7 3 -2 5 12 5 14 0 19 -2 13 -5z m562 -33 c-3 -5 -12
-10 -18 -10 -7 0 -6 4 3 10 19 12 23 12 15 0z m-938 -16 c-3 -3 -12 -4 -19 -1
-8 3 -5 6 6 6 11 1 17 -2 13 -5z m253 -14 c0 -5 -4 -10 -10 -10 -5 0 -10 5
-10 10 0 6 5 10 10 10 6 0 10 -4 10 -10z m382 -42 c-6 -6 -12 -6 -16 1 -4 6
-2 11 3 11 6 0 12 10 12 23 2 22 2 22 6 -2 3 -13 0 -28 -5 -33z m278 48 c0 -3
-4 -8 -10 -11 -5 -3 -10 -1 -10 4 0 6 5 11 10 11 6 0 10 -2 10 -4z m-310 -37
c0 -23 -6 -24 -26 -4 -14 13 -14 15 1 15 10 0 13 5 9 12 -4 7 -3 8 4 4 7 -4
12 -16 12 -27z m119 5 c-15 -18 -22 -13 -13 10 3 9 10 13 16 10 5 -3 4 -12 -3
-20z m195 0 c30 -5 36 -10 36 -31 0 -24 -2 -25 -40 -19 -22 3 -40 2 -40 -2 0
-5 -10 -8 -22 -7 -19 1 -22 7 -19 31 3 31 18 47 38 39 6 -2 28 -7 47 -11z
m-533 -19 c0 -5 -5 -11 -13 -13 -9 -2 -8 0 2 8 12 9 8 10 -19 5 -24 -5 -32 -4
-26 5 8 13 55 10 56 -5z m299 -6 c-7 -11 -14 -18 -17 -15 -8 8 5 36 17 36 7 0
7 -6 0 -21z m73 0 c-4 -15 -8 -17 -14 -8 -8 14 -3 29 11 29 4 0 6 -9 3 -21z
m219 -14 c-2 -14 -6 -25 -8 -25 -2 0 -4 11 -4 25 0 14 4 25 9 25 4 0 6 -11 3
-25z m90 -11 c-5 -28 -22 -43 -22 -20 0 18 -11 21 -27 5 -7 -7 -12 -4 -16 11
-5 19 -2 21 21 16 15 -3 21 -3 14 0 -18 8 -5 23 16 17 14 -3 18 -11 14 -29z
m48 11 c0 -1 -7 -8 -15 -15 -13 -10 -15 -9 -15 8 0 15 5 20 15 16 8 -4 15 -7
15 -9z m-492 -18 c8 -6 12 -5 12 4 0 9 3 10 8 4 4 -6 17 -10 30 -9 12 1 22 -2
22 -6 0 -5 101 -28 155 -35 6 -1 19 -5 30 -9 60 -24 76 -28 82 -23 3 4 -5 11
-18 16 -30 12 51 5 123 -11 26 -5 52 -7 57 -4 6 4 21 4 35 0 20 -5 24 -10 17
-22 -7 -12 -3 -21 11 -34 12 -10 16 -18 10 -18 -6 0 -14 5 -17 10 -3 6 -11 10
-16 10 -6 0 -7 -4 -4 -10 3 -5 -1 -10 -10 -10 -30 0 -105 22 -105 31 0 5 -14
7 -30 4 -17 -3 -39 -1 -49 5 -11 5 -40 11 -65 12 -25 2 -46 6 -46 11 0 4 -7 7
-15 7 -8 0 -15 -4 -15 -10 0 -5 -5 -10 -11 -10 -5 0 -7 5 -3 11 5 8 -13 10
-65 6 -58 -5 -73 -4 -77 8 -4 8 -15 15 -25 15 -10 0 -19 5 -19 11 0 5 -5 7
-11 4 -15 -10 -61 4 -54 15 4 6 -6 10 -22 10 -20 0 -24 3 -14 9 8 5 21 7 30 5
9 -2 3 2 -14 10 -30 15 -29 15 20 9 28 -3 56 -10 63 -16z m-1495 6 c-7 -2 -19
-2 -25 0 -7 3 -2 5 12 5 14 0 19 -2 13 -5z m324 1 c-3 -3 -12 -4 -19 -1 -8 3
-5 6 6 6 11 1 17 -2 13 -5z m-400 -20 c-3 -3 -12 -4 -19 -1 -8 3 -5 6 6 6 11
1 17 -2 13 -5z m313 -4 c-34 -11 -60 -11 -35 0 11 5 29 8 40 8 16 0 15 -2 -5
-8z m1880 0 c0 -5 -2 -10 -4 -10 -3 0 -8 5 -11 10 -3 6 -1 10 4 10 6 0 11 -4
11 -10z m37 -12 c-3 -8 -6 -5 -6 6 -1 11 2 17 5 13 3 -3 4 -12 1 -19z m-2402
2 c3 -5 -1 -10 -9 -10 -9 0 -16 5 -16 10 0 6 4 10 9 10 6 0 13 -4 16 -10z
m119 -1 c-4 -7 0 -9 12 -5 11 3 26 1 34 -4 27 -17 3 -20 -49 -7 -52 13 -59 27
-14 27 15 0 22 -4 17 -11z m2189 -19 c-5 -17 -8 -18 -21 -8 -13 12 -13 13 2
16 9 2 13 8 10 14 -4 6 -2 8 4 5 5 -4 8 -16 5 -27z m-1894 16 c-2 -2 -24 -6
-49 -10 -31 -4 -40 -3 -30 4 13 9 89 15 79 6z m91 -16 c12 -7 12 -12 2 -22 -9
-9 -12 -9 -12 5 0 17 -11 22 -23 10 -4 -3 -2 -12 3 -18 8 -9 -2 -17 -39 -29
-27 -9 -59 -16 -70 -16 -11 0 -22 -4 -25 -9 -4 -5 13 -7 36 -5 l43 4 -39 -10
c-22 -6 -44 -9 -50 -7 -6 2 -17 -3 -24 -12 -12 -14 -13 -14 -8 3 5 16 2 18
-29 14 -51 -6 -43 8 13 20 l47 11 -65 -4 -65 -4 45 14 45 14 -55 -5 c-30 -3
-70 -9 -87 -14 -18 -5 -33 -5 -33 0 0 9 27 15 107 25 30 4 54 12 57 21 3 8 13
14 23 13 16 0 16 -1 -2 -9 -17 -7 -17 -9 -3 -9 11 -1 15 -6 12 -16 -7 -18 7
-20 24 -3 6 6 15 8 19 4 4 -4 1 -12 -7 -17 -11 -8 -5 -9 20 -4 19 3 50 9 68
12 17 3 32 10 32 14 0 5 -12 7 -27 4 l-28 -5 28 11 c15 6 25 15 21 20 -7 12
27 11 46 -1z m1148 1 c9 -5 32 -11 50 -14 19 -3 36 -8 40 -11 10 -11 -34 -6
-81 8 -25 7 -48 11 -51 8 -4 -3 -6 0 -6 6 0 14 25 16 48 3z m-1391 -17 c-3 -3
-12 -4 -19 -1 -8 3 -5 6 6 6 11 1 17 -2 13 -5z m-1012 -49 c44 -13 73 -24 64
-24 -20 -1 -149 38 -149 44 0 6 -8 8 85 -20z m945 -5 c0 -5 -5 -10 -11 -10 -5
0 -7 5 -4 10 3 6 8 10 11 10 2 0 4 -4 4 -10z m1105 0 c3 -5 -1 -10 -9 -10 -9
0 -16 5 -16 10 0 6 4 10 9 10 6 0 13 -4 16 -10z m257 -7 c-10 -4 -10 -8 -1
-19 10 -12 9 -13 -5 -8 -24 9 -18 35 8 33 6 0 5 -3 -2 -6z m804 -8 c16 -8 22
-15 14 -15 -8 1 -24 7 -34 15 -25 19 -16 19 20 0z m-2939 -24 c24 -14 7 -13
-45 2 -23 7 -40 16 -37 19 7 7 55 -5 82 -21z m480 23 c-3 -3 -12 -4 -19 -1 -8
3 -5 6 6 6 11 1 17 -2 13 -5z m-87 -14 c0 -5 -6 -10 -14 -10 -8 0 -18 5 -21
10 -3 6 3 10 14 10 12 0 21 -4 21 -10z m296 -88 c-12 -11 -15 5 -8 44 l7 39 3
-39 c2 -21 1 -41 -2 -44z m2241 72 c-3 -3 -12 -4 -19 -1 -8 3 -5 6 6 6 11 1
17 -2 13 -5z m-3032 -14 c-3 -5 -15 -10 -26 -10 -11 0 -17 5 -14 10 3 6 15 10
26 10 11 0 17 -4 14 -10z m595 0 c11 -7 5 -8 -20 -4 -43 8 -51 14 -19 14 13 0
31 -5 39 -10z m137 -22 c-3 -7 -5 -2 -5 12 0 14 2 19 5 13 2 -7 2 -19 0 -25z
m-511 12 c14 0 23 -4 20 -9 -4 -5 -3 -11 1 -14 5 -2 2 -2 -5 0 -8 1 -25 3 -38
3 -14 0 -23 4 -20 9 4 5 3 11 -1 14 -5 2 -2 2 5 0 8 -1 25 -3 38 -3z m631 -27
c-3 -10 -5 -4 -5 12 0 17 2 24 5 18 2 -7 2 -21 0 -30z m-187 11 l25 -15 -25 7
c-14 3 -32 10 -40 15 -13 7 -13 8 0 8 8 0 26 -6 40 -15z m239 -68 c-9 -8 -10
-7 -5 7 3 10 7 33 8 50 1 28 2 28 5 -7 3 -22 -1 -43 -8 -50z m1404 65 c8 -8 7
-11 -5 -11 -9 0 -19 6 -22 13 -5 9 -7 9 -12 -1 -6 -13 -24 -7 -24 8 0 12 49 5
63 -9z m-1933 -1 c0 -5 -7 -10 -15 -10 -8 0 -15 5 -15 10 0 6 7 10 15 10 8 0
15 -4 15 -10z m90 -5 c0 -8 -7 -15 -15 -15 -26 0 -18 20 13 29 1 1 2 -6 2 -14z
m-313 -1 c-3 -3 -12 -4 -19 -1 -8 3 -5 6 6 6 11 1 17 -2 13 -5z m825 -34 c-2
-22 -6 -40 -8 -40 -2 0 -4 18 -4 40 0 22 3 40 8 40 4 0 6 -18 4 -40z m-667 20
c8 -13 -5 -13 -25 0 -13 8 -13 10 2 10 9 0 20 -4 23 -10z m2492 3 c-11 -11 13
-32 30 -26 13 5 13 3 2 -16 -9 -13 -15 -17 -17 -9 -2 7 -16 23 -30 35 l-27 23
24 0 c13 0 21 -3 18 -7z m-2754 -10 c-7 -2 -21 -2 -30 0 -10 3 -4 5 12 5 17 0
24 -2 18 -5z m1054 -40 c-3 -10 -5 -2 -5 17 0 19 2 27 5 18 2 -10 2 -26 0 -35z
m-847 27 c0 -5 -4 -10 -10 -10 -5 0 -10 5 -10 10 0 6 5 10 10 10 6 0 10 -4 10
-10z m307 4 c-3 -3 -12 -4 -19 -1 -8 3 -5 6 6 6 11 1 17 -2 13 -5z m-80 -18
c-15 -12 -13 -15 29 -26 43 -12 45 -14 23 -22 -13 -5 -27 -14 -31 -21 -5 -8
-8 -6 -8 7 0 12 -5 16 -15 12 -8 -3 -15 -1 -15 4 0 6 6 10 13 11 6 0 1 5 -12
10 -14 5 -43 8 -65 6 -23 -3 -33 -2 -23 0 9 2 17 9 17 15 0 6 10 8 23 5 12 -4
29 -2 37 3 8 5 22 10 30 10 12 -1 12 -3 -3 -14z m550 -33 c-3 -10 -5 -4 -5 12
0 17 2 24 5 18 2 -7 2 -21 0 -30z m130 -15 c-2 -13 -4 -5 -4 17 -1 22 1 32 4
23 2 -10 2 -28 0 -40z m69 -36 c-12 -11 -15 5 -8 44 l7 39 3 -39 c2 -21 1 -41
-2 -44z m-889 52 c-3 -3 -12 -4 -19 -1 -8 3 -5 6 6 6 11 1 17 -2 13 -5z m962
-46 c0 -35 -2 -39 -9 -21 -8 19 -3 63 6 63 2 0 4 -19 3 -42z m-582 18 c-3 -7
1 -26 9 -41 15 -28 11 -46 -5 -29 -16 16 -25 84 -11 84 7 0 10 -6 7 -14z m653
-26 c0 -22 -3 -40 -8 -40 -4 0 -6 18 -4 40 2 22 6 40 8 40 2 0 4 -18 4 -40z
m-1000 20 c0 -4 -16 -11 -35 -17 -19 -6 -33 -7 -29 -2 3 5 0 9 -5 9 -6 0 -11
4 -11 10 0 5 18 9 40 8 22 -1 40 -4 40 -8z m46 -27 c-11 -11 -17 4 -9 23 7 18
8 18 11 1 2 -10 1 -21 -2 -24z m474 -12 c97 -26 199 -63 150 -55 -19 4 -69 17
-110 30 -41 13 -99 31 -128 41 -29 9 -55 20 -58 25 -3 5 12 2 33 -6 21 -9 72
-24 113 -35z m-337 32 c-7 -2 -19 -2 -25 0 -7 3 -2 5 12 5 14 0 19 -2 13 -5z
m1038 -63 c-6 -44 -9 -53 -10 -29 -1 37 9 102 15 96 2 -1 -1 -32 -5 -67z
m-951 44 c-87 -23 -110 -25 -50 -4 30 10 66 19 80 19 14 -1 0 -7 -30 -15z
m797 -46 c-2 -13 -4 -3 -4 22 0 25 2 35 4 23 2 -13 2 -33 0 -45z m-1551 27
c-9 -9 -16 -13 -16 -8 0 12 22 34 28 28 2 -2 -3 -11 -12 -20z m600 -20 c-11
-8 -27 -15 -35 -15 -11 0 -10 4 5 15 10 8 26 14 34 14 11 0 10 -3 -4 -14z
m2014 0 c0 -8 -4 -15 -9 -15 -13 0 -22 16 -14 24 11 11 23 6 23 -9z m60 -6 c0
-6 -4 -7 -10 -4 -5 3 -10 11 -10 16 0 6 5 7 10 4 6 -3 10 -11 10 -16z m-813
-26 c-3 -10 -5 -4 -5 12 0 17 2 24 5 18 2 -7 2 -21 0 -30z m-80 -20 c-3 -10
-5 -4 -5 12 0 17 2 24 5 18 2 -7 2 -21 0 -30z m-522 -4 c5 -5 -5 -4 -23 2 -17
6 -32 13 -32 16 0 7 43 -8 55 -18z m852 -16 c-3 -10 -5 -4 -5 12 0 17 2 24 5
18 2 -7 2 -21 0 -30z m-1112 -1 c-6 -7 -45 9 -45 18 0 4 11 3 24 -3 14 -7 23
-13 21 -15z m942 -24 c-2 -13 -4 -5 -4 17 -1 22 1 32 4 23 2 -10 2 -28 0 -40z
m79 -46 c-11 -10 -12 3 -7 53 l6 50 3 -49 c2 -26 1 -51 -2 -54z m-1926 78 c0
-5 -12 -10 -27 -9 l-28 1 25 8 c14 4 26 8 28 9 1 1 2 -3 2 -9z m1267 -14 c67
-23 151 -49 265 -81 32 -9 61 -21 64 -27 5 -8 1 -9 -12 -4 -10 4 -55 19 -99
32 -44 13 -121 37 -171 54 -51 16 -99 30 -107 30 -9 0 -19 5 -22 10 -9 15 7
12 82 -14z m1598 -4 c-3 -3 -11 0 -18 7 -9 10 -8 11 6 5 10 -3 15 -9 12 -12z
m-1850 -30 c-3 -3 -11 0 -18 7 -9 10 -8 11 6 5 10 -3 15 -9 12 -12z m1275 -68
c0 -41 -4 -73 -9 -70 -4 3 -7 20 -6 38 1 18 2 50 3 71 3 66 12 39 12 -39z
m-1200 56 c8 -5 11 -10 5 -10 -5 0 -17 5 -25 10 -8 5 -10 10 -5 10 6 0 17 -5
25 -10z m917 -37 c-3 -10 -5 -4 -5 12 0 17 2 24 5 18 2 -7 2 -21 0 -30z m393
-7 c0 -56 -10 -106 -21 -106 -10 0 -12 58 -3 113 9 51 24 47 24 -7z m-2405 24
c-3 -5 -13 -10 -21 -10 -8 0 -12 5 -9 10 3 6 13 10 21 10 8 0 12 -4 9 -10z
m2102 -37 c-3 -10 -5 -2 -5 17 0 19 2 27 5 18 2 -10 2 -26 0 -35z m-2032 -23
c3 -5 1 -10 -4 -10 -6 0 -11 5 -11 10 0 6 2 10 4 10 3 0 8 -4 11 -10z m1655
-10 c20 -6 21 -8 5 -8 -11 0 -29 3 -40 8 -25 11 1 11 35 0z m878 -55 c-1 -36
-6 -65 -10 -65 -5 0 -8 29 -8 65 0 39 4 65 11 65 6 0 9 -24 7 -65z m103 -41
l-8 -69 -1 90 c-1 60 2 83 8 69 5 -12 5 -53 1 -90z m-2806 86 c8 -13 -5 -13
-25 0 -13 8 -13 10 2 10 9 0 20 -4 23 -10z m150 0 c3 -6 -4 -10 -17 -10 -18 0
-20 2 -8 10 19 12 18 12 25 0z m1752 -16 c-3 -3 -12 -4 -19 -1 -8 3 -5 6 6 6
11 1 17 -2 13 -5z m-1254 -35 c-6 -6 -10 -17 -7 -23 3 -7 -9 -11 -31 -12 -45
-1 -44 9 3 29 47 19 48 19 35 6z m505 -23 c12 -2 28 -8 34 -14 7 -7 19 -12 27
-12 11 0 12 -3 4 -11 -8 -8 -17 -7 -34 2 -13 6 -30 13 -39 14 -23 2 -67 22
-74 34 -4 6 5 6 26 -1 18 -6 43 -11 56 -12z m559 8 c-3 -3 -12 -4 -19 -1 -8 3
-5 6 6 6 11 1 17 -2 13 -5z m1333 -74 c0 -40 -4 -70 -10 -70 -5 0 -10 15 -10
33 0 37 11 107 16 107 2 0 4 -31 4 -70z m-2510 45 c-46 -18 -64 -17 -25 0 17
8 37 14 45 14 8 0 -1 -7 -20 -14z m-183 -1 c-3 -3 -12 -4 -19 -1 -8 3 -5 6 6
6 11 1 17 -2 13 -5z m373 -15 c0 -5 -9 -9 -20 -9 -19 0 -26 11 -14 23 8 8 34
-3 34 -14z m375 3 c-3 -3 -11 0 -18 7 -9 10 -8 11 6 5 10 -3 15 -9 12 -12z
m-835 -2 c12 -8 11 -10 -7 -10 -13 0 -23 5 -23 10 0 13 11 13 30 0z m2900 -55
c0 -22 -5 -47 -10 -55 -7 -10 -10 6 -10 55 0 49 3 65 10 55 5 -8 10 -33 10
-55z m-2510 45 c0 -5 -5 -10 -11 -10 -5 0 -7 5 -4 10 3 6 8 10 11 10 2 0 4 -4
4 -10z m-100 -12 c0 -12 -38 -10 -45 2 -4 6 5 9 19 8 15 -1 26 -6 26 -10z
m2120 2 c13 -9 13 -10 0 -9 -8 0 -24 4 -35 9 l-20 9 20 0 c11 0 27 -4 35 -9z
m-1940 -12 c0 -10 -57 -10 -63 0 -3 4 10 7 29 7 19 0 34 -3 34 -7z m-350 -16
c0 -4 20 -13 45 -20 25 -7 45 -16 45 -21 0 -6 -12 -3 -27 5 -16 7 -36 14 -45
14 -9 0 -20 5 -24 11 -3 6 -17 9 -30 6 -13 -2 -21 0 -18 4 7 11 54 12 54 1z
m1957 2 c-3 -3 -12 -4 -19 -1 -8 3 -5 6 6 6 11 1 17 -2 13 -5z m543 -34 c13
-9 13 -10 0 -10 -8 0 -22 5 -30 10 -13 9 -13 10 0 10 8 0 22 -5 30 -10z
m-1790 -39 c0 -6 -4 -13 -10 -16 -5 -3 -10 1 -10 9 0 9 5 16 10 16 6 0 10 -4
10 -9z m-1140 -21 c0 -5 -4 -10 -9 -10 -6 0 -13 5 -16 10 -3 6 1 10 9 10 9 0
16 -4 16 -10z m115 -10 c-3 -5 -14 -10 -23 -9 -14 0 -13 2 3 9 27 11 27 11 20
0z m2252 4 c-3 -3 -12 -4 -19 -1 -8 3 -5 6 6 6 11 1 17 -2 13 -5z m-2337 -39
c-7 -8 -16 -12 -21 -9 -5 3 -18 0 -29 -6 -11 -6 -20 -8 -20 -5 0 6 59 34 74
35 5 0 3 -7 -4 -15z m2196 -30 c10 -8 14 -15 8 -15 -5 0 -19 7 -30 15 -10 8
-14 15 -8 15 5 0 19 -7 30 -15z m-836 -39 c0 -3 -4 -8 -10 -11 -5 -3 -10 -1
-10 4 0 6 5 11 10 11 6 0 10 -2 10 -4z m580 -11 c9 -10 9 -15 1 -15 -6 0 -11
4 -11 9 0 5 -8 12 -17 14 -15 4 -15 5 -2 6 9 0 22 -6 29 -14z m-1360 1 c0 -2
-7 -7 -16 -10 -8 -3 -12 -2 -9 4 6 10 25 14 25 6z m1420 -32 c0 -2 -9 0 -20 6
-11 6 -20 13 -20 16 0 2 9 0 20 -6 11 -6 20 -13 20 -16z m-1490 7 c0 -8 -54
-32 -69 -31 -4 1 46 30 67 39 1 1 2 -3 2 -8z m-400 -16 c0 -8 -7 -15 -16 -15
-14 0 -14 3 -4 15 7 8 14 15 16 15 2 0 4 -7 4 -15z m1785 5 c3 -5 1 -10 -4
-10 -6 0 -11 5 -11 10 0 6 2 10 4 10 3 0 8 -4 11 -10z m-535 -4 c0 -11 -19
-15 -25 -6 -3 5 1 10 9 10 9 0 16 -2 16 -4z m728 -6 c15 0 21 -4 16 -12 -4 -7
-3 -8 5 -4 6 4 27 2 46 -5 33 -12 33 -13 14 -27 -17 -12 -23 -12 -44 2 -13 9
-31 16 -40 16 -9 0 -13 4 -10 10 3 6 -1 7 -9 4 -9 -3 -23 2 -33 12 -17 17 -17
17 7 11 14 -4 35 -7 48 -7z m-1478 -4 c0 -3 -4 -8 -10 -11 -5 -3 -10 -1 -10 4
0 6 5 11 10 11 6 0 10 -2 10 -4z m-185 -15 c-5 -9 -109 -51 -123 -51 -8 1 109
58 121 59 5 1 6 -3 2 -8z m120 -21 c-3 -5 -11 -10 -16 -10 -6 0 -7 5 -4 10 3
6 11 10 16 10 6 0 7 -4 4 -10z m1680 -39 c3 -5 -8 -4 -24 2 -17 6 -28 15 -25
19 6 9 39 -6 49 -21z m-1940 -1 c-3 -5 -11 -10 -16 -10 -6 0 -7 5 -4 10 3 6
11 10 16 10 6 0 7 -4 4 -10z m1455 0 c0 -13 -11 -13 -30 0 -12 8 -11 10 8 10
12 0 22 -4 22 -10z m-912 -38 c2 -14 -2 -22 -11 -22 -25 0 -47 12 -41 21 3 5
10 7 15 4 5 -4 9 1 9 10 0 24 24 12 28 -13z m1022 -14 c0 -4 -12 -8 -26 -8
-14 0 -23 4 -19 9 6 11 45 10 45 -1z m-163 -14 c-3 -3 -12 -4 -19 -1 -8 3 -5
6 6 6 11 1 17 -2 13 -5z m86 -1 c-7 -2 -21 -2 -30 0 -10 3 -4 5 12 5 17 0 24
-2 18 -5z m684 1 c-3 -3 -12 -4 -19 -1 -8 3 -5 6 6 6 11 1 17 -2 13 -5z
m-1037 -8 c0 -11 -19 -15 -25 -6 -3 5 1 10 9 10 9 0 16 -2 16 -4z m697 -12
c-3 -3 -12 -4 -19 -1 -8 3 -5 6 6 6 11 1 17 -2 13 -5z m-1097 -14 c0 -5 -4
-10 -10 -10 -5 0 -10 5 -10 10 0 6 5 10 10 10 6 0 10 -4 10 -10z m450 0 c13
-9 13 -11 0 -19 -9 -7 -17 -6 -21 0 -3 6 -10 10 -15 9 -5 -1 -10 3 -12 9 -5
14 28 14 48 1z m270 -15 c-7 -8 -16 -15 -21 -15 -5 0 -6 7 -3 15 4 8 13 15 21
15 13 0 13 -3 3 -15z m-240 -15 c0 -5 -5 -10 -11 -10 -5 0 -7 5 -4 10 3 6 8
10 11 10 2 0 4 -4 4 -10z m90 -19 c0 -5 -7 -14 -15 -21 -12 -10 -19 -10 -27
-2 -9 9 -8 12 5 12 9 0 17 5 17 10 0 6 5 10 10 10 6 0 10 -4 10 -9z m92 -15
c2 -14 -4 -19 -25 -22 l-28 -3 23 24 c26 27 25 27 30 1z m48 14 c0 -5 -5 -10
-11 -10 -5 0 -7 5 -4 10 3 6 8 10 11 10 2 0 4 -4 4 -10z m-630 -28 c-8 -3 -20
-9 -27 -14 -8 -6 -10 -4 -6 10 3 14 11 18 26 14 15 -4 17 -7 7 -10z m510 4 c0
-2 -7 -7 -16 -10 -8 -3 -12 -2 -9 4 6 10 25 14 25 6z m-425 -26 c3 -5 2 -10
-4 -10 -5 0 -13 5 -16 10 -3 6 -2 10 4 10 5 0 13 -4 16 -10z m-348 -6 c-3 -3
-12 -4 -19 -1 -8 3 -5 6 6 6 11 1 17 -2 13 -5z"/>
<path d="M330 4107 c0 -18 37 -19 44 -1 4 10 -2 14 -19 14 -14 0 -25 -6 -25
-13z"/>
<path d="M1685 4150 c3 -5 8 -10 11 -10 2 0 4 5 4 10 0 6 -5 10 -11 10 -5 0
-7 -4 -4 -10z"/>
<path d="M1793 3772 c-1 -22 0 -24 9 -8 6 10 6 22 2 26 -5 5 -10 -3 -11 -18z"/>
<path d="M1044 3145 c-4 -8 -4 -22 0 -30 4 -13 9 -13 25 -3 15 9 17 16 10 30
-12 22 -28 23 -35 3z"/>
<path d="M1356 2964 c-8 -21 -8 -24 5 -24 5 0 7 5 4 10 -3 6 1 10 10 10 9 0
13 5 10 10 -9 15 -22 12 -29 -6z"/>
<path d="M1736 2785 c4 -8 8 -15 10 -15 2 0 4 7 4 15 0 8 -4 15 -10 15 -5 0
-7 -7 -4 -15z"/>
<path d="M1790 2481 c0 -5 19 -7 43 -5 33 3 37 2 17 -5 l-25 -9 28 -1 c18 -1
27 4 27 14 0 11 -12 15 -45 15 -25 0 -45 -4 -45 -9z"/>
<path d="M1742 2448 c2 -28 -1 -34 -20 -36 -21 -3 -23 -8 -20 -63 3 -69 18
-80 18 -14 0 39 3 45 20 45 19 0 21 6 19 50 -2 28 -7 50 -12 50 -4 0 -7 -15
-5 -32z m5 -54 c-3 -3 -12 -4 -19 -1 -8 3 -5 6 6 6 11 1 17 -2 13 -5z"/>
<path d="M1898 2473 c6 -2 18 -2 25 0 6 3 1 5 -13 5 -14 0 -19 -2 -12 -5z"/>
<path d="M1788 2453 c7 -3 16 -2 19 1 4 3 -2 6 -13 5 -11 0 -14 -3 -6 -6z"/>
<path d="M1865 2450 l-30 -8 28 -1 c33 -1 38 -30 5 -32 -19 -1 -18 -3 7 -10
25 -7 23 -8 -15 -5 -25 2 -40 2 -33 -1 19 -7 3 -33 -21 -32 -12 0 -16 3 -7 6
11 5 11 7 0 14 -10 6 -11 9 -1 9 6 0 12 7 12 15 0 8 -5 15 -11 15 -5 0 -8 -4
-4 -9 3 -5 1 -12 -5 -16 -5 -3 -10 -19 -10 -36 0 -23 -4 -29 -22 -29 -21 0
-23 -5 -23 -50 0 -27 3 -50 8 -50 4 0 7 11 7 25 0 18 5 25 19 25 15 0 19 -7
19 -36 0 -19 3 -38 6 -41 3 -4 6 14 6 38 0 28 3 39 9 30 5 -8 16 -11 30 -6 17
5 21 2 20 -17 0 -13 -3 -17 -6 -10 -2 6 -14 11 -26 11 -17 -1 -18 -2 -4 -6 9
-2 17 -11 17 -18 0 -7 -8 -16 -17 -18 -10 -3 -2 -5 17 -6 23 0 30 2 22 8 -11
7 -10 10 3 15 24 9 25 8 25 -16 0 -25 10 -19 14 9 2 11 -5 20 -18 25 -19 6
-19 6 4 8 l25 2 -25 8 -25 8 28 1 c20 1 27 6 27 21 0 11 -6 20 -12 20 -10 0
-10 2 0 9 19 11 17 24 -5 32 -15 7 -16 8 -1 8 10 1 15 8 13 19 -1 9 1 22 6 27
4 6 7 21 6 33 -1 23 -11 25 -62 12z m-5 -80 c0 -5 -4 -10 -10 -10 -5 0 -10 5
-10 10 0 6 5 10 10 10 6 0 10 -4 10 -10z m-30 -30 c0 -5 8 -10 18 -11 9 -1 -1
-5 -22 -10 -22 -5 -44 -7 -50 -5 -6 2 -3 5 6 5 11 1 15 6 12 16 -4 10 0 15 15
15 12 0 21 -4 21 -10z m50 -25 c0 -11 -10 -15 -32 -14 -31 2 -31 2 -5 6 15 2
27 9 27 14 0 5 2 9 5 9 3 0 5 -7 5 -15z m-97 -22 c-7 -2 -19 -2 -25 0 -7 3 -2
5 12 5 14 0 19 -2 13 -5z m122 -3 c-3 -5 -21 -9 -38 -9 l-32 2 35 7 c19 4 36
8 38 9 2 0 0 -3 -3 -9z"/>
<path d="M1788 2433 c7 -3 16 -2 19 1 4 3 -2 6 -13 5 -11 0 -14 -3 -6 -6z"/>
<path d="M1848 2423 c6 -2 18 -2 25 0 6 3 1 5 -13 5 -14 0 -19 -2 -12 -5z"/>
<path d="M1738 2363 c6 -2 18 -2 25 0 6 3 1 5 -13 5 -14 0 -19 -2 -12 -5z"/>
<path d="M1738 2343 c6 -2 18 -2 25 0 6 3 1 5 -13 5 -14 0 -19 -2 -12 -5z"/>
<path d="M1503 2273 c9 -2 23 -2 30 0 6 3 -1 5 -18 5 -16 0 -22 -2 -12 -5z"/>
<path d="M1698 2253 c7 -3 16 -2 19 1 4 3 -2 6 -13 5 -11 0 -14 -3 -6 -6z"/>
<path d="M1508 2243 c23 -2 61 -2 85 0 23 2 4 4 -43 4 -47 0 -66 -2 -42 -4z"/>
<path d="M1701 2224 c0 -11 3 -14 6 -6 3 7 2 16 -1 19 -3 4 -6 -2 -5 -13z"/>
<path d="M1622 2200 c0 -19 2 -27 5 -17 2 9 2 25 0 35 -3 9 -5 1 -5 -18z"/>
<path d="M2087 2195 c-4 -8 -2 -17 3 -20 6 -4 10 3 10 14 0 25 -6 27 -13 6z"/>
<path d="M1694 2145 c-2 -59 12 -59 15 0 1 25 -2 45 -6 45 -4 0 -9 -20 -9 -45z"/>
<path d="M2185 2180 c-11 -5 -15 -9 -8 -9 6 -1 18 -4 27 -7 11 -4 16 -1 16 10
0 18 -6 19 -35 6z"/>
<path d="M1733 2135 c0 -27 2 -38 4 -22 2 15 2 37 0 50 -2 12 -4 0 -4 -28z"/>
<path d="M1821 2153 c-1 -20 3 -21 37 -16 45 7 54 13 21 14 -21 1 -21 2 6 9
30 8 30 8 -8 9 -21 0 -36 -3 -32 -8 3 -5 1 -12 -4 -15 -5 -4 -12 2 -14 11 -4
14 -5 13 -6 -4z"/>
<path d="M1610 2153 c0 -5 -25 -6 -55 -5 -30 2 -55 0 -55 -5 0 -4 24 -8 52 -8
34 0 53 -4 53 -12 0 -6 3 -15 8 -19 4 -4 7 7 7 24 0 18 -2 32 -5 32 -3 0 -5
-3 -5 -7z"/>
<path d="M2079 2155 c-1 -6 0 -14 1 -20 3 -13 -1 -141 -5 -180 -2 -16 -3 -54
-4 -82 l-1 -53 -37 -1 c-21 -1 -30 -3 -20 -6 9 -2 17 -10 17 -18 0 -9 -8 -11
-22 -8 -13 3 -20 2 -16 -2 4 -4 1 -20 -7 -35 -8 -15 -11 -30 -8 -34 4 -3 -1
-6 -11 -6 -14 0 -15 4 -6 20 9 16 8 20 -5 20 -8 0 -15 -4 -15 -8 0 -5 -12 -22
-26 -38 -15 -16 -23 -24 -20 -17 3 6 2 14 -2 17 -5 3 -8 18 -7 33 1 15 -3 31
-9 35 -7 5 -7 8 2 8 7 0 12 13 12 30 0 23 -3 28 -16 23 -12 -4 -15 -2 -12 8 3
8 11 13 17 11 8 -1 11 13 10 43 -2 38 -6 45 -23 46 -15 1 -12 4 9 9 l30 8 -30
2 -30 2 30 8 c21 5 24 8 10 10 l-20 1 20 9 c15 6 6 8 -30 8 -27 0 -42 -2 -32
-5 12 -3 17 -14 17 -38 0 -24 5 -35 18 -38 13 -4 11 -5 -5 -6 -20 -1 -23 4
-24 37 l-2 37 -7 -40 c-4 -22 -8 -34 -9 -27 0 7 -18 13 -43 14 l-43 1 45 7 45
6 -45 5 -45 6 41 1 c38 2 41 4 36 27 -4 24 -2 25 47 25 50 0 51 1 49 28 -2 27
-2 27 -62 22 l-61 -4 45 -7 c43 -6 43 -6 10 -8 -19 -1 -44 -6 -54 -10 -18 -7
-18 -8 -3 -14 9 -3 17 -16 17 -27 0 -16 -6 -20 -32 -19 -31 2 -31 2 -5 6 38 6
36 33 -3 33 -26 0 -30 -4 -31 -27 0 -16 -2 -37 -4 -47 -4 -19 -8 -109 -6 -133
1 -6 9 -14 19 -16 12 -3 10 -5 -8 -7 -21 -2 -20 -4 10 -10 l35 -7 -35 -3 c-33
-2 -33 -3 -10 -10 24 -8 24 -8 3 -9 -13 -1 -23 -4 -24 -8 -8 -60 -8 -61 40
-67 25 -4 53 -11 61 -17 11 -8 8 -9 -15 -5 -16 2 -47 8 -69 11 l-39 6 7 102
c3 56 9 144 12 195 5 61 3 92 -4 92 -6 0 -9 -8 -7 -17 1 -10 -1 -25 -5 -33 -7
-13 -13 -80 -37 -412 l-6 -88 194 0 c173 1 192 2 175 15 -11 8 -14 15 -8 15 9
0 10 5 2 19 -16 30 -13 46 5 31 8 -7 18 -29 21 -50 4 -22 12 -37 20 -37 8 0
14 3 15 6 0 3 2 15 4 26 3 11 7 90 10 175 3 85 10 220 15 300 6 93 6 148 0
154 -6 6 -10 6 -11 1z m-206 -132 c-13 -2 -35 -2 -50 0 -16 2 -5 4 22 4 28 0
40 -2 28 -4z m-110 -30 c-7 -2 -19 -2 -25 0 -7 3 -2 5 12 5 14 0 19 -2 13 -5z
m54 -139 c-3 -3 -12 -4 -19 -1 -8 3 -5 6 6 6 11 1 17 -2 13 -5z m253 -54 c0
-5 -2 -10 -4 -10 -3 0 -8 5 -11 10 -3 6 -1 10 4 10 6 0 11 -4 11 -10z m-47
-72 c-2 -5 1 -8 6 -8 6 0 11 -11 11 -25 0 -19 -5 -25 -22 -24 -13 0 -17 3 -10
6 17 7 15 33 -3 33 -16 0 -19 9 -9 34 5 12 9 13 19 3 7 -7 11 -15 8 -19z
m-286 -4 c-3 -3 -12 -4 -19 -1 -8 3 -5 6 6 6 11 1 17 -2 13 -5z m300 -70 c-3
-3 -12 -4 -19 -1 -8 3 -5 6 6 6 11 1 17 -2 13 -5z m-70 -110 c-3 -3 -12 -4
-19 -1 -8 3 -5 6 6 6 11 1 17 -2 13 -5z"/>
<path d="M1470 2139 c0 -5 5 -7 10 -4 6 3 10 8 10 11 0 2 -4 4 -10 4 -5 0 -10
-5 -10 -11z"/>
<path d="M1850 2105 c0 -21 5 -25 28 -24 l27 1 -25 8 -25 8 25 2 25 2 -25 8
-25 7 30 5 30 5 -32 2 c-29 1 -33 -2 -33 -24z"/>
<path d="M1818 2113 c7 -3 16 -2 19 1 4 3 -2 6 -13 5 -11 0 -14 -3 -6 -6z"/>
<path d="M2061 2104 c0 -11 3 -14 6 -6 3 7 2 16 -1 19 -3 4 -6 -2 -5 -13z"/>
<path d="M1773 2093 c15 -2 37 -2 50 0 12 2 0 4 -28 4 -27 0 -38 -2 -22 -4z"/>
<path d="M1455 2076 c11 -8 29 -16 40 -16 11 -1 29 -6 40 -11 19 -9 18 -9 -2
-5 -13 2 -23 0 -23 -4 0 -5 25 -8 55 -7 50 2 55 4 55 25 0 20 -5 22 -47 23
-27 0 -68 3 -93 5 -42 5 -44 4 -25 -10z"/>
<path d="M2233 2050 c0 -25 2 -35 4 -22 2 12 2 32 0 45 -2 12 -4 2 -4 -23z"/>
<path d="M1733 2050 c3 -10 0 -21 -7 -24 -6 -2 -3 -5 7 -5 12 -1 17 7 17 24 0
14 -5 25 -11 25 -6 0 -9 -9 -6 -20z"/>
<path d="M1761 2054 c0 -11 3 -14 6 -6 3 7 2 16 -1 19 -3 4 -6 -2 -5 -13z"/>
<path d="M1599 2016 c9 -11 9 -15 -1 -19 -8 -4 -7 -6 5 -6 22 -1 22 25 1 33
-14 5 -15 4 -5 -8z"/>
<path d="M1520 2000 c0 -12 7 -20 16 -20 10 0 14 6 11 14 -3 8 -1 17 6 20 7 2
2 5 -10 5 -17 1 -23 -5 -23 -19z"/>
<path d="M2201 1994 c0 -11 3 -14 6 -6 3 7 2 16 -1 19 -3 4 -6 -2 -5 -13z"/>
<path d="M1580 1970 c-24 -8 -23 -8 8 -9 17 -1 32 4 32 9 0 11 -5 11 -40 0z"/>
<path d="M1508 1943 c6 -2 18 -2 25 0 6 3 1 5 -13 5 -14 0 -19 -2 -12 -5z"/>
<path d="M1588 1933 c7 -3 16 -2 19 1 4 3 -2 6 -13 5 -11 0 -14 -3 -6 -6z"/>
<path d="M1935 1770 c-4 -6 3 -10 14 -10 25 0 27 6 6 13 -8 4 -17 2 -20 -3z"/>
<path d="M2100 1520 c0 -5 5 -10 11 -10 5 0 7 5 4 10 -3 6 -8 10 -11 10 -2 0
-4 -4 -4 -10z"/>
<path d="M1830 1360 c-11 -7 -5 -8 20 -4 43 8 51 14 19 14 -13 0 -31 -5 -39
-10z"/>
<path d="M1901 1349 c-17 -7 -21 -13 -14 -20 14 -14 126 -29 138 -18 5 6 1 9
-10 9 -17 0 -18 2 -5 11 12 9 12 10 -3 5 -25 -8 -44 4 -26 15 19 12 -49 10
-80 -2z"/>
<path d="M2190 1330 c8 -5 24 -10 35 -10 17 0 17 2 5 10 -8 5 -24 10 -35 10
-17 0 -17 -2 -5 -10z"/>
<path d="M2177 1294 c3 -8 12 -13 20 -10 8 3 17 6 19 6 3 0 2 5 -1 10 -11 17
-45 12 -38 -6z"/>
<path d="M2430 1280 c0 -5 5 -10 11 -10 5 0 7 5 4 10 -3 6 -8 10 -11 10 -2 0
-4 -4 -4 -10z"/>
<path d="M1720 1270 c0 -5 9 -10 21 -10 13 0 19 -5 16 -13 -4 -10 4 -11 39 -3
24 6 44 13 44 17 0 7 -61 19 -97 19 -13 0 -23 -4 -23 -10z"/>
<path d="M1412 1200 c-51 -12 -52 -22 -2 -14 50 7 90 24 55 23 -11 -1 -35 -5
-53 -9z"/>
<path d="M1475 1184 c-37 -12 -38 -12 -10 -13 35 0 73 13 59 21 -5 2 -27 -1
-49 -8z"/>
<path d="M1605 1154 l-30 -13 27 -1 c15 0 30 5 33 11 11 16 2 17 -30 3z"/>
<path d="M2025 1050 c-9 -15 14 -21 35 -10 11 6 20 12 20 13 0 6 -51 4 -55 -3z"/>
<path d="M1995 1030 c-3 -5 1 -10 10 -10 9 0 13 5 10 10 -3 6 -8 10 -10 10 -2
0 -7 -4 -10 -10z"/>
<path d="M2111 1029 c9 -5 8 -8 -2 -12 -8 -2 -3 -2 11 0 38 7 45 20 10 20 -17
0 -26 -4 -19 -8z"/>
<path d="M366 2566 c3 -9 11 -16 16 -16 13 0 5 23 -10 28 -7 2 -10 -2 -6 -12z"/>
<path d="M2970 2295 c0 -8 7 -15 15 -15 8 0 15 7 15 15 0 8 -7 15 -15 15 -8 0
-15 -7 -15 -15z"/>
<path d="M3210 2190 c0 -11 7 -20 15 -20 8 0 15 9 15 20 0 11 -7 20 -15 20 -8
0 -15 -9 -15 -20z"/>
<path d="M968 2163 c6 -2 18 -2 25 0 6 3 1 5 -13 5 -14 0 -19 -2 -12 -5z"/>
<path d="M309 1414 c-22 -25 -22 -26 -3 -16 12 6 24 18 28 27 8 21 3 19 -25
-11z"/>
<path d="M2200 266 c0 -2 9 -6 20 -9 11 -3 18 -1 14 4 -5 9 -34 13 -34 5z"/>
<path d="M2175 4561 c-3 -5 -1 -12 5 -16 6 -4 8 -11 5 -16 -4 -5 3 -21 14 -34
17 -23 20 -24 25 -8 3 10 4 27 1 38 -2 11 -4 26 -4 33 -1 14 -37 17 -46 3z"/>
<path d="M2293 4506 c37 -35 67 -72 67 -81 0 -13 6 -16 21 -12 15 4 19 2 15
-10 -3 -8 -9 -27 -13 -41 -3 -15 -15 -39 -26 -54 -12 -15 -17 -31 -13 -35 10
-11 45 33 52 66 3 14 9 35 14 46 7 19 8 18 14 -5 46 -187 54 -219 50 -182 -5
32 -3 42 8 40 7 -2 17 -7 21 -13 5 -6 7 -1 5 10 -2 12 -11 20 -23 20 -22 0
-37 44 -20 61 13 15 35 -1 35 -27 0 -21 18 -35 43 -31 9 2 35 -10 56 -27 37
-30 38 -32 30 -73 -4 -24 -13 -59 -19 -78 -5 -19 -10 -42 -9 -50 1 -22 38 111
39 138 0 12 4 22 8 22 16 0 114 -108 108 -119 -4 -6 -11 -9 -16 -6 -4 3 -13
-1 -19 -9 -6 -7 -24 -12 -40 -11 -17 1 -28 -2 -25 -7 3 -4 -2 -8 -10 -8 -9 0
-16 -4 -16 -10 0 -5 -7 -10 -15 -10 -13 0 -15 -7 -9 -35 4 -23 2 -41 -7 -51
-10 -12 -9 -18 4 -31 15 -15 18 -15 38 2 l21 20 -13 -27 c-6 -15 -15 -25 -20
-23 -4 3 -10 -4 -14 -15 -3 -11 -9 -20 -13 -20 -13 0 -66 94 -82 142 -10 33
-10 33 -4 -7 3 -21 14 -51 25 -66 10 -15 19 -30 19 -33 0 -4 10 -20 22 -36 17
-23 24 -27 35 -18 7 6 16 9 18 6 8 -8 -6 -38 -15 -33 -5 3 -6 -4 -3 -15 6 -23
23 -27 23 -5 0 19 11 19 57 0 20 -8 38 -13 40 -11 3 2 -5 7 -17 11 -18 6 -21
12 -16 36 3 15 15 38 26 49 l21 21 -22 39 -22 39 26 40 c15 22 27 47 27 54 0
7 4 17 10 23 6 6 -14 33 -56 76 -56 57 -65 71 -60 93 4 14 10 25 14 25 4 -1
29 -21 57 -47 l50 -46 -35 7 -35 6 35 -14 c19 -7 39 -11 43 -9 4 3 14 -1 23
-7 8 -7 29 -20 46 -30 18 -9 34 -23 36 -30 3 -7 0 -10 -5 -7 -5 3 -17 -27 -27
-66 -10 -40 -24 -75 -30 -79 -6 -4 3 -6 19 -5 29 2 30 1 28 -38 -1 -21 1 -34
5 -28 9 14 16 9 61 -39 30 -33 33 -39 20 -55 -13 -16 -12 -17 4 -4 9 8 19 12
20 10 1 -2 8 -12 16 -21 10 -13 10 -21 0 -40 -11 -21 -11 -22 4 -9 10 7 17 25
17 39 0 14 -3 23 -6 19 -6 -6 -104 105 -104 117 0 4 9 2 19 -4 11 -5 26 -10
33 -9 7 0 -3 7 -23 15 -42 17 -66 58 -48 80 17 20 28 81 17 92 -6 6 -6 12 1
16 6 4 11 23 11 42 0 44 22 54 61 25 29 -21 29 -21 29 -1 0 23 28 27 36 5 3
-8 -5 -37 -18 -65 l-24 -51 -38 26 c-21 14 -40 24 -43 21 -3 -2 8 -12 24 -22
15 -9 65 -41 110 -70 46 -30 88 -54 95 -54 7 0 4 6 -7 12 -46 25 -125 82 -125
90 0 5 5 18 11 29 9 17 13 18 25 8 9 -8 18 -9 22 -3 4 5 15 10 24 10 15 2 14
-3 -7 -28 -14 -16 -25 -34 -25 -39 0 -12 17 -12 25 0 3 6 14 8 24 6 15 -3 19
1 16 16 -6 29 5 52 19 40 7 -6 17 -6 26 -1 24 15 25 13 25 -60 0 -39 -3 -70
-8 -70 -4 0 -6 -4 -3 -9 3 -5 -6 -8 -20 -8 -15 0 -30 -7 -35 -14 -15 -25 -10
-33 11 -14 10 9 26 15 33 12 28 -11 90 99 65 114 -7 4 -10 11 -6 14 3 3 20 -6
37 -20 37 -32 41 -20 5 14 -19 18 -22 26 -12 32 16 11 48 12 47 2 -1 -5 -1
-24 0 -43 2 -34 3 -34 13 -10 6 14 15 34 20 45 5 11 10 31 11 43 1 15 7 22 17
19 11 -2 14 -14 13 -45 -1 -23 1 -42 3 -42 18 0 34 35 34 75 0 41 -2 46 -17
40 -10 -4 -30 -8 -46 -10 -15 -1 -30 -5 -34 -9 -4 -4 -13 4 -20 16 l-14 23 6
-23 c10 -34 -18 -72 -47 -65 -49 10 -54 15 -33 23 16 7 17 9 3 9 -25 1 -76
181 -52 181 3 0 19 -8 36 -17 26 -16 29 -22 23 -52 -6 -31 -5 -33 9 -22 14 11
16 11 16 -4 0 -11 5 -15 14 -12 8 3 17 2 20 -4 2 -5 3 -4 2 3 -4 17 28 81 49
98 15 12 16 12 13 -6 -2 -12 2 -18 12 -17 10 2 23 -16 36 -50 l22 -52 1 79 c0
54 -3 83 -12 88 -9 6 -9 8 1 8 8 0 12 20 12 65 0 68 -3 74 -29 51 -9 -8 -29
-17 -44 -20 -22 -4 -28 0 -33 20 -3 13 -4 34 -1 45 4 16 2 19 -10 15 -12 -5
-14 -1 -10 14 3 11 1 20 -4 20 -5 0 -9 7 -9 15 0 10 -10 15 -30 15 -24 0 -30
-4 -30 -21 0 -17 5 -20 25 -17 21 4 25 1 25 -18 0 -12 4 -25 9 -28 5 -3 11
-21 13 -39 3 -26 0 -33 -14 -34 -10 -1 -18 4 -18 11 0 7 -13 24 -29 39 -16 14
-37 41 -46 61 -17 35 -53 62 -41 30 6 -15 4 -15 -19 0 -34 23 -81 18 -77 -8 2
-13 -1 -16 -10 -10 -10 6 -10 4 1 -9 18 -23 42 -22 34 1 -4 9 -11 20 -17 24
-13 9 16 11 38 2 11 -4 14 -14 11 -33 -5 -25 -5 -25 6 -4 11 21 14 21 39 8 19
-10 34 -30 45 -62 9 -27 21 -56 26 -65 6 -12 5 -18 -2 -18 -8 0 -8 -4 0 -14 7
-8 23 -13 36 -11 14 1 22 -1 20 -6 -3 -4 -23 -8 -44 -7 -21 0 -47 -3 -58 -6
-24 -8 -39 19 -23 39 8 9 8 15 1 20 -6 3 -10 17 -9 30 1 13 5 22 9 19 4 -2 10
0 14 6 6 9 2 12 -27 14 -7 1 -13 -13 -14 -32 -2 -39 -10 -50 -25 -35 -6 6 -18
9 -25 6 -8 -3 -18 5 -24 22 -13 34 -13 58 0 50 6 -3 10 1 10 10 0 9 -9 19 -19
22 -11 3 -24 18 -30 34 -9 26 -15 29 -50 29 -30 0 -39 -3 -35 -14 3 -8 -4 -20
-15 -28 -11 -8 -25 -25 -31 -39 -10 -23 -10 -23 -6 -1 4 19 2 21 -9 12 -8 -6
-29 -13 -47 -15 -21 -3 -28 -1 -19 4 10 7 10 10 1 16 -7 4 -16 2 -21 -6 -4 -7
-11 -11 -14 -7 -6 5 33 41 71 65 17 10 13 12 -23 12 -34 1 -43 -3 -43 -16 0
-31 -30 -53 -64 -46 -43 8 -61 32 -38 49 16 12 15 13 -5 14 -18 0 -23 -6 -23
-24 0 -23 -2 -24 -30 -15 -16 6 -30 17 -30 25 0 10 -15 14 -60 14 -59 0 -60 0
-59 -27 0 -27 1 -27 9 -5 12 27 26 28 33 2 6 -23 -2 -60 -12 -60 -16 0 -20 14
-9 27 8 10 8 12 -4 8 -17 -7 -53 29 -43 44 4 7 -5 11 -25 11 l-31 0 16 -30
c21 -40 19 -44 -9 -23 -13 10 -21 22 -18 27 3 5 0 6 -6 2 -6 -3 -13 -2 -17 4
-3 5 -12 10 -18 10 -7 0 5 -15 27 -33 l38 -33 -25 -13 c-23 -12 -29 -11 -56 8
-17 12 -40 35 -51 51 -12 17 -27 30 -33 30 -7 -1 18 -29 56 -64z m676 11 c0
-21 -1 -21 -9 -2 -12 28 -12 37 0 30 6 -3 10 -16 9 -28z m47 -13 c-4 -15 -3
-23 3 -20 5 3 14 -8 20 -24 11 -33 4 -37 -30 -20 -29 16 -26 90 4 90 5 0 6
-12 3 -26z m-388 -1 c21 -5 22 -10 22 -100 0 -91 -1 -93 -20 -83 -19 10 -19
13 -5 40 8 16 14 39 14 52 -1 20 -2 20 -6 3 -10 -49 -43 -87 -43 -50 0 9 -7
30 -16 46 -12 24 -13 34 -3 45 6 7 9 25 6 40 -4 20 -1 24 12 18 9 -3 26 -9 39
-11z m155 -39 c49 -12 73 -24 84 -41 8 -12 21 -23 28 -23 15 0 47 -34 39 -42
-3 -3 -5 -24 -6 -47 0 -23 -4 -41 -9 -41 -5 0 -9 -8 -9 -17 0 -15 -2 -16 -10
-3 -8 12 -13 13 -30 2 -17 -10 -20 -10 -20 2 0 40 -38 25 -70 -26 l-16 -27
-38 26 c-20 15 -35 32 -32 40 3 7 2 12 -2 12 -22 -4 -32 3 -32 21 0 11 6 20
14 20 14 0 37 42 51 90 l7 25 -17 -23 c-9 -13 -20 -34 -24 -47 -5 -21 -21 -35
-21 -20 0 3 0 37 0 76 0 69 1 71 23 65 12 -3 53 -13 90 -22z m-331 -81 c3 -29
4 -53 2 -53 -9 0 -31 93 -27 111 8 31 19 6 25 -58z m107 25 c5 -13 11 -34 15
-48 6 -21 5 -22 -4 -7 -15 23 -72 24 -63 0 4 -11 3 -14 -5 -9 -13 8 -15 35 -5
63 6 16 8 15 14 -7 l6 -25 11 28 c14 33 20 34 31 5z m482 -9 c17 -17 19 -23 8
-30 -11 -7 -11 -9 3 -9 9 0 19 -6 22 -12 4 -7 4 -3 2 10 -4 21 -3 22 15 10 32
-21 23 -33 -23 -33 -39 0 -43 2 -40 22 2 17 -3 24 -22 29 -14 3 -26 12 -26 20
0 21 37 17 61 -7z m220 4 c13 -16 12 -17 -3 -4 -17 13 -22 21 -14 21 2 0 10
-8 17 -17z m-784 -55 c-3 -8 -6 -5 -6 6 -1 11 2 17 5 13 3 -3 4 -12 1 -19z
m873 -22 c0 -2 -8 -10 -17 -17 -16 -13 -17 -12 -4 4 13 16 21 21 21 13z m-720
-24 c18 -15 21 -24 15 -50 -3 -18 -10 -32 -13 -32 -4 1 -21 13 -39 28 -55 48
-19 99 37 54z m593 7 c-8 -8 -16 -8 -30 0 -16 9 -14 10 12 11 21 0 26 -3 18
-11z m67 3 c0 -5 -7 -17 -15 -28 -13 -16 -16 -17 -25 -4 -17 25 -11 40 15 40
14 0 25 -4 25 -8z m-329 -49 c-9 -16 -10 -16 -11 -1 0 9 3 25 7 35 7 16 8 17
11 1 2 -10 -1 -25 -7 -35z m115 10 c19 -26 17 -43 -6 -43 -11 0 -20 5 -20 10
0 6 7 10 16 10 8 0 12 5 9 10 -4 7 -12 7 -25 0 -13 -7 -21 -6 -30 4 -9 12 -7
15 12 19 13 2 25 5 27 6 2 0 10 -7 17 -16z m44 -27 c0 -3 -4 -8 -10 -11 -5 -3
-10 -1 -10 4 0 6 5 11 10 11 6 0 10 -2 10 -4z m-150 -16 c-20 -13 -33 -13 -25
0 3 6 14 10 23 10 15 0 15 -2 2 -10z m186 -8 c6 -4 16 -25 22 -47 6 -22 13
-49 17 -60 5 -18 1 -20 -38 -20 -34 0 -43 3 -39 13 3 8 -1 18 -9 23 -11 7 -10
9 5 9 14 0 17 6 14 29 -3 21 -1 28 9 24 7 -3 13 0 13 6 0 6 -4 11 -10 11 -5 0
-10 5 -10 10 0 12 11 13 26 2z m-147 -19 c-6 -7 -15 -11 -19 -8 -5 3 -11 1
-15 -5 -8 -13 -35 -13 -35 0 0 6 9 10 19 10 11 0 22 4 25 8 3 5 12 9 20 9 12
0 13 -4 5 -14z m81 -14 c-11 -20 -35 -25 -45 -10 -6 12 35 42 47 35 4 -3 3
-14 -2 -25z m-180 7 c0 -13 -29 -31 -37 -22 -4 4 25 36 33 36 2 0 4 -6 4 -14z
m-4 -71 c-4 -12 -10 -13 -31 -3 -29 13 -34 28 -6 21 10 -3 22 1 27 8 10 17 19
-5 10 -26z m-226 -175 c0 -5 -5 -10 -11 -10 -5 0 -7 5 -4 10 3 6 8 10 11 10 2
0 4 -4 4 -10z m17 -77 c3 -7 -3 -9 -16 -6 -12 3 -21 10 -21 15 0 13 32 6 37
-9z m-33 -28 c-7 -16 -24 -21 -24 -6 0 8 7 13 27 20 1 1 0 -6 -3 -14z"/>
<path d="M2590 4466 c0 -2 7 -7 16 -10 8 -3 12 -2 9 4 -6 10 -25 14 -25 6z"/>
<path d="M2870 4544 c0 -28 15 -25 23 6 3 13 0 20 -9 20 -8 0 -14 -10 -14 -26z"/>
<path d="M3404 4539 c-3 -6 -1 -15 6 -19 9 -5 9 -9 1 -14 -17 -11 -13 -36 4
-30 9 4 15 19 15 40 0 34 -12 45 -26 23z"/>
<path d="M2845 4530 c3 -5 8 -10 11 -10 2 0 4 5 4 10 0 6 -5 10 -11 10 -5 0
-7 -4 -4 -10z"/>
<path d="M3345 4530 c-3 -5 -1 -10 4 -10 6 0 11 5 11 10 0 6 -2 10 -4 10 -3 0
-8 -4 -11 -10z"/>
<path d="M2246 4446 c8 -11 14 -32 15 -46 0 -14 3 -19 6 -12 9 23 -6 79 -22
79 -12 0 -12 -3 1 -21z"/>
<path d="M3077 4463 c-4 -3 -7 -13 -7 -22 1 -13 3 -13 11 2 11 19 8 33 -4 20z"/>
<path d="M3190 4390 c-13 -8 -12 -10 3 -10 9 0 17 5 17 10 0 12 -1 12 -20 0z"/>
<path d="M2471 4305 c1 -19 18 -51 18 -35 0 8 -4 22 -9 30 -5 8 -9 11 -9 5z"/>
<path d="M2170 4275 c0 -3 9 -14 20 -25 22 -22 25 -19 10 11 -10 17 -30 27
-30 14z"/>
<path d="M2264 4243 c-5 -25 -10 -29 -30 -25 -52 10 -59 -91 -7 -104 25 -7 25
-8 8 -20 -28 -20 -11 -28 19 -9 23 15 27 45 5 45 -11 0 -11 41 0 59 7 11 10 9
16 -8 3 -11 12 -21 20 -21 15 0 28 27 15 32 -5 2 -11 16 -14 32 -8 45 -25 55
-32 19z"/>
<path d="M2390 4210 c0 -16 40 -51 50 -45 16 10 11 34 -9 45 -25 13 -41 13
-41 0z"/>
<path d="M2086 4202 c5 -4 22 -18 38 -32 28 -24 28 -24 17 -3 -6 13 -20 27
-31 33 -22 12 -38 13 -24 2z"/>
<path d="M2516 4197 c3 -10 9 -15 12 -12 3 3 0 11 -7 18 -10 9 -11 8 -5 -6z"/>
<path d="M2381 4164 c0 -11 3 -14 6 -6 3 7 2 16 -1 19 -3 4 -6 -2 -5 -13z"/>
<path d="M2482 4135 c0 -11 4 -33 8 -50 7 -27 8 -27 8 -5 0 14 -4 36 -8 50 -6
20 -8 21 -8 5z"/>
<path d="M1890 4110 c0 -13 18 -22 24 -11 3 5 -1 11 -9 15 -8 3 -15 1 -15 -4z"/>
<path d="M2310 4091 c0 -14 34 -38 63 -45 24 -6 28 -4 25 11 -3 17 -88 50 -88
34z"/>
<path d="M2630 4070 c0 -5 5 -10 11 -10 5 0 7 5 4 10 -3 6 -8 10 -11 10 -2 0
-4 -4 -4 -10z"/>
<path d="M2186 4057 c-14 -10 -13 -12 11 -14 15 0 29 -6 31 -12 2 -6 8 -11 13
-11 13 0 1 24 -20 37 -14 9 -23 9 -35 0z"/>
<path d="M803 4019 c1 -19 2 -19 15 -2 11 15 14 16 22 3 5 -8 10 -24 11 -35 0
-11 3 -14 6 -7 3 7 2 24 -1 37 -8 33 -56 36 -53 4z"/>
<path d="M2151 4024 c0 -11 3 -14 6 -6 3 7 2 16 -1 19 -3 4 -6 -2 -5 -13z"/>
<path d="M2310 4021 c0 -14 -5 -19 -14 -15 -10 4 -13 0 -11 -13 2 -10 4 -21 4
-25 2 -16 21 -7 21 10 0 14 2 15 10 2 9 -13 11 -13 20 0 15 23 12 38 -10 50
-17 9 -20 8 -20 -9z"/>
<path d="M2501 4024 c0 -11 3 -14 6 -6 3 7 2 16 -1 19 -3 4 -6 -2 -5 -13z"/>
<path d="M2159 3993 c-13 -16 -12 -17 4 -4 9 7 17 15 17 17 0 8 -8 3 -21 -13z"/>
<path d="M636 3977 c3 -8 11 -14 19 -14 11 0 12 4 4 14 -6 7 -15 13 -20 13 -5
0 -6 -6 -3 -13z"/>
<path d="M990 3985 c0 -5 5 -17 10 -25 5 -8 10 -10 10 -5 0 6 -5 17 -10 25 -5
8 -10 11 -10 5z"/>
<path d="M2370 3978 c0 -2 7 -23 15 -48 11 -33 14 -36 11 -13 -5 28 -3 31 19
28 27 -3 31 5 13 23 -10 10 -58 18 -58 10z"/>
<path d="M400 3960 c0 -13 33 -21 42 -12 6 6 -1 11 -16 14 -14 3 -26 2 -26 -2z"/>
<path d="M800 3959 c0 -8 9 -21 20 -29 11 -8 20 -21 20 -30 1 -12 3 -11 11 3
13 22 3 59 -10 38 -7 -10 -12 -8 -25 10 -11 16 -16 18 -16 8z"/>
<path d="M3001 3923 c-1 -31 -6 -53 -13 -56 -8 -3 -6 -6 5 -6 9 -1 17 -9 17
-18 0 -13 3 -14 8 -6 8 12 84 12 236 1 25 -2 41 2 43 9 4 10 -8 12 -45 8 -38
-4 -54 -1 -66 11 -9 8 -16 11 -16 5 0 -6 -13 -11 -30 -11 -16 0 -30 5 -30 11
0 8 -4 8 -14 0 -8 -7 -30 -11 -48 -9 -28 3 -33 7 -36 32 -2 16 2 32 10 37 9 6
9 9 1 9 -6 0 -14 8 -16 18 -3 9 -5 -6 -6 -35z"/>
<path d="M611 3944 c6 -7 9 -20 6 -28 -9 -23 16 -25 38 -3 11 11 15 17 9 14
-7 -4 -14 -1 -17 7 -3 7 -15 16 -27 19 -17 4 -19 3 -9 -9z"/>
<path d="M1967 3953 c-7 -11 10 -40 18 -31 4 4 3 14 -3 24 -5 9 -12 12 -15 7z"/>
<path d="M2171 3925 c0 -35 2 -37 11 -19 7 15 7 28 -1 40 -9 16 -10 12 -10
-21z"/>
<path d="M2105 3923 c8 -18 18 -33 20 -33 10 0 4 16 -16 40 l-20 25 16 -32z"/>
<path d="M2280 3919 c12 -16 24 -28 27 -25 8 7 -15 43 -32 50 -12 4 -11 -1 5
-25z"/>
<path d="M390 3909 c0 -5 5 -7 10 -4 6 3 10 8 10 11 0 2 -4 4 -10 4 -5 0 -10
-5 -10 -11z"/>
<path d="M2250 3909 c0 -5 5 -7 10 -4 6 3 10 8 10 11 0 2 -4 4 -10 4 -5 0 -10
-5 -10 -11z"/>
<path d="M1985 3899 c-4 -6 -5 -12 -2 -15 2 -3 7 2 10 11 7 17 1 20 -8 4z"/>
<path d="M3040 3897 c0 -8 7 -17 15 -21 8 -3 15 -3 15 0 0 3 -7 12 -15 20 -13
13 -15 13 -15 1z"/>
<path d="M2440 3880 c-9 -17 -8 -20 9 -20 19 0 35 23 24 34 -11 11 -22 6 -33
-14z"/>
<path d="M2780 3889 c0 -5 5 -7 10 -4 6 3 10 8 10 11 0 2 -4 4 -10 4 -5 0 -10
-5 -10 -11z"/>
<path d="M480 3879 c0 -5 5 -7 10 -4 6 3 10 8 10 11 0 2 -4 4 -10 4 -5 0 -10
-5 -10 -11z"/>
<path d="M376 3857 c3 -10 9 -15 12 -12 3 3 0 11 -7 18 -10 9 -11 8 -5 -6z"/>
<path d="M873 3855 c0 -8 3 -13 5 -10 3 3 15 -3 26 -12 15 -13 14 -10 -3 10
-29 32 -28 31 -28 12z"/>
<path d="M1940 3855 c-7 -8 -17 -12 -23 -8 -6 3 -7 1 -3 -6 6 -8 12 -9 20 -2
7 6 15 8 18 5 3 -2 8 2 11 11 8 19 -7 20 -23 0z"/>
<path d="M685 3850 c-3 -6 1 -7 9 -4 18 7 21 14 7 14 -6 0 -13 -4 -16 -10z"/>
<path d="M2005 3852 c-6 -4 -11 -20 -12 -36 -1 -33 13 -23 22 17 8 29 6 31
-10 19z"/>
<path d="M693 3809 c2 -13 9 -25 15 -27 6 -2 8 5 5 18 -8 29 -24 36 -20 9z"/>
<path d="M861 3827 c2 -1 13 -9 24 -17 19 -14 19 -14 6 3 -7 9 -18 17 -24 17
-6 0 -8 -1 -6 -3z"/>
<path d="M1157 3806 c-11 -12 -17 -12 -28 -3 -11 10 -11 9 0 -5 7 -10 17 -15
23 -12 5 3 20 -1 33 -10 17 -11 26 -13 31 -4 4 6 3 8 -3 5 -12 -8 -46 27 -36
36 3 4 4 7 0 7 -3 0 -12 -6 -20 -14z"/>
<path d="M1885 3793 l-17 -28 23 22 c12 12 20 25 17 28 -3 3 -13 -7 -23 -22z"/>
<path d="M722 3780 c-18 -30 -15 -42 7 -28 10 6 18 17 17 24 -3 23 -11 24 -24
4z"/>
<path d="M391 3764 c0 -11 3 -14 6 -6 3 7 2 16 -1 19 -3 4 -6 -2 -5 -13z"/>
<path d="M3040 3776 c0 -2 8 -10 18 -17 15 -13 16 -12 3 4 -13 16 -21 21 -21
13z"/>
<path d="M472 3758 c3 -7 13 -15 24 -17 16 -3 17 -1 5 13 -16 19 -34 21 -29 4z"/>
<path d="M1232 3744 c10 -10 20 -15 24 -12 3 4 -5 12 -18 18 -22 12 -22 12 -6
-6z"/>
<path d="M330 3740 c-13 -8 -13 -10 2 -10 9 0 20 5 23 10 8 13 -5 13 -25 0z"/>
<path d="M1300 3741 c0 -9 30 -24 36 -18 2 1 -6 8 -16 15 -11 7 -20 8 -20 3z"/>
<path d="M2770 3743 c14 -3 29 -9 35 -14 5 -5 16 -9 25 -9 8 0 2 7 -14 15 -15
8 -38 14 -50 14 -18 -2 -17 -2 4 -6z"/>
<path d="M2929 3740 c-1 -3 0 -9 1 -15 1 -5 -2 -7 -6 -3 -4 4 -13 3 -21 -3 -7
-6 -22 -9 -34 -6 -16 4 -18 3 -9 -9 9 -10 17 -11 30 -4 23 13 61 14 42 1 -10
-6 -10 -10 3 -21 20 -17 29 -7 16 18 -11 21 -3 33 29 45 8 3 0 5 -17 4 -18 -1
-34 -4 -34 -7z"/>
<path d="M396 3698 c7 -53 -7 -70 -30 -36 -12 17 -16 19 -16 6 0 -9 6 -19 13
-21 7 -3 5 -6 -5 -6 -10 -1 -18 -6 -18 -12 0 -5 -5 -7 -11 -3 -8 5 -8 9 1 14
7 4 9 13 5 20 -6 10 -11 9 -20 -4 -10 -13 -18 -14 -39 -6 -21 8 -26 7 -26 -5
0 -8 8 -15 18 -15 13 0 14 -2 3 -9 -11 -7 -9 -10 9 -16 18 -6 20 -9 9 -17 -11
-8 -11 -9 2 -5 9 3 22 0 28 -6 8 -8 11 -5 11 11 0 13 6 22 15 22 8 0 15 5 15
10 0 6 5 10 11 10 7 0 9 -13 5 -37 -6 -34 -4 -32 17 17 24 59 28 103 9 122 -9
9 -11 2 -6 -34z"/>
<path d="M2650 3720 c6 -11 8 -25 5 -31 -4 -5 -7 -39 -8 -75 -1 -45 -7 -68
-17 -74 -16 -10 -8 -23 18 -27 15 -2 17 6 14 73 -2 48 1 80 8 89 10 12 9 20
-4 40 -20 30 -31 33 -16 5z"/>
<path d="M288 3723 c7 -3 16 -2 19 1 4 3 -2 6 -13 5 -11 0 -14 -3 -6 -6z"/>
<path d="M3033 3720 c2 -8 12 -16 23 -17 13 -2 15 -1 4 4 -8 3 -19 11 -23 17
-6 7 -7 6 -4 -4z"/>
<path d="M830 3706 c0 -8 4 -17 9 -20 5 -4 7 3 4 14 -6 23 -13 26 -13 6z"/>
<path d="M506 3674 c-8 -22 -9 -21 14 -27 23 -6 27 15 6 32 -11 9 -15 8 -20
-5z"/>
<path d="M442 3655 c-6 -14 -8 -25 -4 -25 4 0 12 11 19 25 6 14 8 25 4 25 -4
0 -13 -11 -19 -25z"/>
<path d="M850 3670 c-8 -5 -12 -11 -9 -14 2 -3 11 -1 19 4 8 5 12 11 9 14 -2
3 -11 1 -19 -4z"/>
<path d="M471 3649 c0 -8 3 -21 7 -30 6 -14 9 -14 19 -4 9 10 8 17 -8 31 -14
13 -19 14 -18 3z"/>
<path d="M2695 3649 c-11 -17 1 -21 15 -4 8 9 8 15 2 15 -6 0 -14 -5 -17 -11z"/>
<path d="M2735 3650 c-3 -5 -2 -10 4 -10 5 0 13 5 16 10 3 6 2 10 -4 10 -5 0
-13 -4 -16 -10z"/>
<path d="M2900 3640 c0 -5 5 -10 11 -10 5 0 7 5 4 10 -3 6 -8 10 -11 10 -2 0
-4 -4 -4 -10z"/>
<path d="M190 3630 c0 -5 5 -10 10 -10 6 0 10 5 10 10 0 6 -4 10 -10 10 -5 0
-10 -4 -10 -10z"/>
<path d="M567 3618 c9 -10 20 -15 24 -12 5 3 6 -2 3 -10 -6 -17 12 -56 27 -56
6 0 5 9 -2 23 -7 12 -11 22 -10 22 2 0 0 11 -4 25 -4 18 -13 25 -30 25 -22 0
-22 -1 -8 -17z"/>
<path d="M2010 3608 c0 -10 49 -62 54 -57 3 3 -8 18 -24 34 -17 16 -30 26 -30
23z"/>
<path d="M1986 3577 c3 -10 9 -15 12 -12 3 3 0 11 -7 18 -10 9 -11 8 -5 -6z"/>
<path d="M2250 3580 c0 -5 5 -10 11 -10 5 0 7 5 4 10 -3 6 -8 10 -11 10 -2 0
-4 -4 -4 -10z"/>
<path d="M1595 3560 c3 -5 11 -10 16 -10 6 0 7 5 4 10 -3 6 -11 10 -16 10 -6
0 -7 -4 -4 -10z"/>
<path d="M881 3544 c0 -11 3 -14 6 -6 3 7 2 16 -1 19 -3 4 -6 -2 -5 -13z"/>
<path d="M750 3533 c0 -8 4 -12 9 -9 13 8 42 -4 35 -15 -3 -5 -1 -9 5 -9 5 0
9 9 8 19 -1 23 -57 36 -57 14z"/>
<path d="M1078 3538 c5 -5 16 -8 23 -6 8 3 3 7 -10 11 -17 4 -21 3 -13 -5z"/>
<path d="M2539 3536 c12 -7 34 -11 47 -8 32 6 28 8 -26 15 -41 5 -43 4 -21 -7z"/>
<path d="M1495 3530 c3 -5 8 -10 11 -10 2 0 4 5 4 10 0 6 -5 10 -11 10 -5 0
-7 -4 -4 -10z"/>
<path d="M1757 3524 c-3 -3 -3 -12 0 -20 4 -10 0 -13 -13 -8 -18 5 -18 5 0
-10 16 -13 17 -19 8 -28 -16 -16 -15 -35 3 -42 12 -4 13 -2 5 13 -8 16 -7 18
10 14 17 -4 20 0 20 25 0 17 3 37 6 46 4 11 0 16 -13 16 -11 0 -22 -3 -26 -6z"/>
<path d="M2680 3519 c0 -5 5 -7 10 -4 6 3 10 8 10 11 0 2 -4 4 -10 4 -5 0 -10
-5 -10 -11z"/>
<path d="M610 3516 c0 -2 7 -7 16 -10 8 -3 12 -2 9 4 -6 10 -25 14 -25 6z"/>
<path d="M890 3511 c0 -6 4 -13 10 -16 6 -3 7 1 4 9 -7 18 -14 21 -14 7z"/>
<path d="M1450 3506 c0 -8 5 -18 10 -21 6 -4 8 -10 6 -14 -3 -4 0 -13 5 -21 8
-13 11 -12 20 3 7 12 17 16 30 12 13 -4 19 -2 19 9 0 9 8 16 17 16 9 0 13 3
10 7 -4 3 -18 1 -31 -6 -21 -12 -26 -11 -45 8 -24 24 -41 27 -41 7z"/>
<path d="M1673 3501 c-10 -16 -9 -20 4 -25 23 -9 46 13 32 30 -15 19 -22 18
-36 -5z"/>
<path d="M351 3487 c0 -10 -5 -15 -11 -12 -5 3 -10 1 -10 -4 0 -6 6 -11 14
-11 9 0 12 -9 9 -27 l-3 -28 12 25 c7 14 17 28 23 32 6 5 3 8 -7 8 -9 0 -19 8
-21 18 -4 16 -5 16 -6 -1z"/>
<path d="M1810 3480 c0 -5 7 -7 15 -4 8 4 15 8 15 10 0 2 -7 4 -15 4 -8 0 -15
-4 -15 -10z"/>
<path d="M1115 3470 c-9 -15 3 -30 25 -30 13 0 17 -5 13 -19 -4 -17 0 -18 49
-10 77 12 98 18 98 29 0 5 -19 3 -41 -5 -63 -23 -77 -20 -72 13 4 21 2 24 -6
12 -10 -13 -13 -13 -22 3 -11 19 -34 23 -44 7z"/>
<path d="M2510 3469 c0 -5 5 -7 10 -4 6 3 10 8 10 11 0 2 -4 4 -10 4 -5 0 -10
-5 -10 -11z"/>
<path d="M2482 3441 c2 -7 7 -12 11 -12 12 1 9 15 -3 20 -7 2 -11 -2 -8 -8z"/>
<path d="M1426 3413 c-4 -5 -22 -13 -39 -20 l-32 -12 37 2 c22 1 40 9 47 20
11 17 1 24 -13 10z"/>
<path d="M2425 3380 c-3 -5 -1 -10 4 -10 6 0 11 5 11 10 0 6 -2 10 -4 10 -3 0
-8 -4 -11 -10z"/>
<path d="M1170 3356 c0 -13 6 -29 14 -35 11 -10 16 -8 21 9 7 21 -9 50 -26 50
-5 0 -9 -11 -9 -24z"/>
<path d="M245 3339 c-20 -20 -20 -20 5 -11 13 5 26 14 28 20 6 18 -11 13 -33
-9z"/>
<path d="M3323 3353 c-8 -3 -13 -24 -13 -54 0 -47 1 -49 29 -49 16 0 43 3 60
6 29 6 31 9 31 49 0 36 -4 44 -22 49 -27 7 -68 7 -85 -1z"/>
<path d="M195 3310 c-3 -6 1 -7 9 -4 18 7 21 14 7 14 -6 0 -13 -4 -16 -10z"/>
<path d="M218 3223 c7 -3 16 -2 19 1 4 3 -2 6 -13 5 -11 0 -14 -3 -6 -6z"/>
<path d="M172 3193 c-5 -10 -10 -39 -11 -65 -2 -42 0 -48 18 -48 26 0 32 10
33 65 0 26 5 45 12 46 6 0 2 4 -9 9 -29 13 -33 12 -43 -7z"/>
<path d="M500 3196 c0 -2 8 -10 18 -17 15 -13 16 -12 3 4 -13 16 -21 21 -21
13z"/>
<path d="M294 3158 c2 -32 26 -35 26 -4 0 15 -6 26 -14 26 -7 0 -13 -9 -12
-22z"/>
<path d="M168 3053 c7 -3 16 -2 19 1 4 3 -2 6 -13 5 -11 0 -14 -3 -6 -6z"/>
<path d="M3412 2160 c0 -14 2 -19 5 -12 2 6 2 18 0 25 -3 6 -5 1 -5 -13z"/>
<path d="M1258 2093 c6 -2 18 -2 25 0 6 3 1 5 -13 5 -14 0 -19 -2 -12 -5z"/>
<path d="M1320 2080 c0 -5 5 -10 10 -10 6 0 10 5 10 10 0 6 -4 10 -10 10 -5 0
-10 -4 -10 -10z"/>
<path d="M2212 979 l-32 -17 25 -6 c39 -10 89 24 53 36 -7 2 -28 -4 -46 -13z
m32 -4 c-4 -8 -13 -15 -22 -15 -13 0 -12 3 4 15 24 18 25 18 18 0z"/>
<path d="M2372 976 c7 -8 15 -12 17 -11 5 6 -10 25 -20 25 -5 0 -4 -6 3 -14z"/>
<path d="M2506 922 c-3 -6 1 -13 10 -16 23 -9 28 -2 10 13 -8 7 -17 8 -20 3z"/>
<path d="M3350 920 c8 -5 24 -10 34 -10 26 0 18 6 -19 14 -22 5 -26 4 -15 -4z"/>
<path d="M3170 826 c0 -2 7 -6 15 -10 8 -3 15 -1 15 4 0 6 -7 10 -15 10 -8 0
-15 -2 -15 -4z"/>
<path d="M3398 793 c7 -3 16 -2 19 1 4 3 -2 6 -13 5 -11 0 -14 -3 -6 -6z"/>
<path d="M3378 738 c9 -9 15 -9 24 0 9 9 7 12 -12 12 -19 0 -21 -3 -12 -12z"/>
<path d="M3312 698 c-8 -10 -4 -13 15 -15 15 0 22 2 17 6 -5 3 -12 10 -15 14
-3 4 -11 2 -17 -5z"/>
<path d="M1086 505 c-3 -8 -1 -15 4 -15 6 0 10 7 10 15 0 8 -2 15 -4 15 -2 0
-6 -7 -10 -15z"/>
<path d="M1216 391 c-4 -7 -5 -15 -2 -18 9 -9 19 4 14 18 -4 11 -6 11 -12 0z"/>
<path d="M1220 120 c0 -5 5 -10 10 -10 6 0 10 5 10 10 0 6 -4 10 -10 10 -5 0
-10 -4 -10 -10z"/>
<path d="M18 73 c-13 -3 -18 -15 -18 -39 l0 -34 88 1 c48 0 80 3 72 6 -8 3
-17 9 -20 13 -5 6 -101 61 -104 59 0 -1 -9 -3 -18 -6z"/>
<path d="M1265 60 c3 -5 8 -10 11 -10 2 0 4 5 4 10 0 6 -5 10 -11 10 -5 0 -7
-4 -4 -10z"/>
<path d="M1296 61 c-4 -7 -5 -15 -2 -18 9 -9 19 4 14 18 -4 11 -6 11 -12 0z"/>
</g>
</svg>
